{
.appVersion = "113";
DisplayStrings = (
A,
F,
G,
W,
ABCDEFGHIJKLMNOPQRSTUVWXYZabcdefghijklmnopqrstuvwxyz,
"A/space/euro"
);
copyright = "Copyright (c) 2009 by Daniel Pouzeot, Jovanny Lemonad. All rights reserved.";
date = "2009-08-31 10:44:53 +0000";
designer = "Daniel Pouzeot, Jovanny Lemonad";
familyName = Furore;
featurePrefixes = (
{
automatic = 1;
code = "languagesystem DFLT dflt;\012";
name = Languagesystems;
}
);
features = (
{
automatic = 1;
code = "feature ordn;\012";
name = aalt;
},
{
automatic = 1;
code = "sub N o period by numero;\012";
name = ordn;
}
);
fontMaster = (
{
alignmentZones = (
"{700, 0}",
"{0, 0}"
);
ascender = 700;
capHeight = 700;
descender = -130;
horizontalStems = (
105,
140,
210
);
id = "C2265137-4960-4D1A-899B-D2ADBAADF5E4";
weightValue = 400;
widthValue = 5;
xHeight = 700;
}
);
glyphs = (
{
glyphname = A;
lastChange = "2023-05-28 20:48:05 +0000";
layers = (
{
hints = (
{
horizontal = 1;
place = "{0, 21}";
target = up;
type = BottomGhost;
},
{
horizontal = 1;
place = "{209, 140}";
type = Stem;
},
{
horizontal = 1;
place = "{560, 140}";
type = Stem;
},
{
place = "{40, 140}";
type = Stem;
},
{
place = "{529, 139}";
type = Stem;
}
);
layerId = "C2265137-4960-4D1A-899B-D2ADBAADF5E4";
paths = (
{
closed = 1;
nodes = (
"240 349 LINE",
"240 419 LINE",
"379 560 LINE",
"589 560 LINE",
"589 349 LINE"
);
},
{
closed = 1;
nodes = (
"240 0 LINE",
"240 209 LINE",
"589 209 LINE",
"589 0 LINE",
"728 0 LINE",
"728 700 LINE",
"309 700 LINE",
"100 489 LINE",
"100 0 LINE"
);
}
);
width = 828;
}
);
note = A;
unicode = 0041;
},
{
glyphname = B;
lastChange = "2023-05-28 20:48:15 +0000";
layers = (
{
hints = (
{
horizontal = 1;
place = "{0, 140}";
type = Stem;
},
{
horizontal = 1;
place = "{279, 140}";
type = Stem;
},
{
horizontal = 1;
place = "{560, 140}";
type = Stem;
},
{
place = "{50, 140}";
type = Stem;
},
{
place = "{539, 139}";
type = Stem;
}
);
layerId = "C2265137-4960-4D1A-899B-D2ADBAADF5E4";
paths = (
{
closed = 1;
nodes = (
"240 140 LINE",
"240 279 LINE",
"589 279 LINE",
"589 140 LINE"
);
},
{
closed = 1;
nodes = (
"240 419 LINE",
"240 560 LINE",
"589 560 LINE",
"589 419 LINE"
);
},
{
closed = 1;
nodes = (
"659 0 LINE",
"728 69 LINE",
"728 279 LINE",
"659 349 LINE",
"728 419 LINE",
"728 629 LINE",
"659 700 LINE",
"100 700 LINE",
"100 0 LINE"
);
}
);
width = 828;
}
);
leftMetricsKey = A;
note = B;
rightMetricsKey = A;
unicode = 0042;
},
{
glyphname = C;
lastChange = "2023-05-28 20:48:15 +0000";
layers = (
{
hints = (
{
horizontal = 1;
place = "{0, 209}";
type = Stem;
},
{
horizontal = 1;
place = "{490, 210}";
type = Stem;
},
{
place = "{50, 140}";
type = Stem;
},
{
place = "{539, 139}";
type = Stem;
},
{
horizontal = 1;
place = "{0, 140}";
type = Stem;
},
{
horizontal = 1;
place = "{560, 140}";
type = Stem;
}
);
layerId = "C2265137-4960-4D1A-899B-D2ADBAADF5E4";
paths = (
{
closed = 1;
nodes = (
"659 0 LINE",
"728 69 LINE",
"728 209 LINE",
"589 209 LINE",
"589 140 LINE",
"240 140 LINE",
"240 560 LINE",
"589 560 LINE",
"589 490 LINE",
"728 490 LINE",
"728 629 LINE",
"659 700 LINE",
"169 700 LINE",
"100 629 LINE",
"100 69 LINE",
"169 0 LINE"
);
}
);
width = 828;
}
);
leftMetricsKey = A;
note = C;
rightMetricsKey = A;
unicode = 0043;
},
{
glyphname = D;
lastChange = "2023-05-28 20:48:15 +0000";
layers = (
{
hints = (
{
horizontal = 1;
place = "{0, 140}";
type = Stem;
},
{
horizontal = 1;
place = "{560, 140}";
type = Stem;
},
{
place = "{50, 140}";
type = Stem;
},
{
place = "{539, 139}";
type = Stem;
}
);
layerId = "C2265137-4960-4D1A-899B-D2ADBAADF5E4";
paths = (
{
closed = 1;
nodes = (
"728 490 LINE",
"519 700 LINE",
"100 700 LINE",
"100 0 LINE",
"659 0 LINE",
"728 69 LINE"
);
},
{
closed = 1;
nodes = (
"589 140 LINE",
"240 140 LINE",
"240 560 LINE",
"449 560 LINE",
"589 420 LINE"
);
}
);
width = 828;
}
);
leftMetricsKey = A;
note = D;
rightMetricsKey = A;
unicode = 0044;
},
{
glyphname = E;
lastChange = "2023-05-28 20:48:15 +0000";
layers = (
{
hints = (
{
horizontal = 1;
place = "{0, 140}";
type = Stem;
},
{
horizontal = 1;
place = "{279, 140}";
type = Stem;
},
{
horizontal = 1;
place = "{560, 140}";
type = Stem;
},
{
place = "{50, 140}";
type = Stem;
}
);
layerId = "C2265137-4960-4D1A-899B-D2ADBAADF5E4";
paths = (
{
closed = 1;
nodes = (
"694 0 LINE",
"694 140 LINE",
"240 140 LINE",
"240 279 LINE",
"659 279 LINE",
"659 419 LINE",
"240 419 LINE",
"240 560 LINE",
"694 560 LINE",
"694 700 LINE",
"100 700 LINE",
"100 0 LINE"
);
}
);
width = 794;
}
);
leftMetricsKey = A;
note = E;
rightMetricsKey = A;
unicode = 0045;
},
{
glyphname = F;
lastChange = "2023-05-28 20:48:15 +0000";
layers = (
{
hints = (
{
horizontal = 1;
place = "{0, 21}";
target = up;
type = BottomGhost;
},
{
horizontal = 1;
place = "{279, 140}";
type = Stem;
},
{
horizontal = 1;
place = "{560, 140}";
type = Stem;
},
{
place = "{50, 140}";
type = Stem;
}
);
layerId = "C2265137-4960-4D1A-899B-D2ADBAADF5E4";
paths = (
{
closed = 1;
nodes = (
"240 0 LINE",
"240 279 LINE",
"659 279 LINE",
"659 419 LINE",
"240 419 LINE",
"240 560 LINE",
"694 560 LINE",
"694 700 LINE",
"100 700 LINE",
"100 0 LINE"
);
}
);
width = 794;
}
);
leftMetricsKey = A;
note = F;
rightMetricsKey = A;
unicode = 0046;
},
{
glyphname = G;
lastChange = "2023-05-28 20:48:15 +0000";
layers = (
{
hints = (
{
horizontal = 1;
place = "{0, 140}";
type = Stem;
},
{
horizontal = 1;
place = "{261, 140}";
type = Stem;
},
{
horizontal = 1;
place = "{560, 140}";
type = Stem;
},
{
place = "{50, 140}";
type = Stem;
},
{
place = "{539, 139}";
type = Stem;
},
{
horizontal = 1;
place = "{490, 210}";
type = Stem;
}
);
layerId = "C2265137-4960-4D1A-899B-D2ADBAADF5E4";
paths = (
{
closed = 1;
nodes = (
"659 0 LINE",
"728 69 LINE",
"728 401 LINE",
"413 401 LINE",
"413 261 LINE",
"589 261 LINE",
"589 140 LINE",
"240 140 LINE",
"240 560 LINE",
"589 560 LINE",
"589 490 LINE",
"728 490 LINE",
"728 629 LINE",
"659 700 LINE",
"169 700 LINE",
"100 629 LINE",
"100 69 LINE",
"169 0 LINE"
);
}
);
width = 828;
}
);
leftMetricsKey = A;
note = G;
rightMetricsKey = A;
unicode = 0047;
},
{
glyphname = H;
lastChange = "2023-05-28 20:48:15 +0000";
layers = (
{
hints = (
{
horizontal = 1;
place = "{0, 21}";
target = up;
type = BottomGhost;
},
{
horizontal = 1;
place = "{279, 140}";
type = Stem;
},
{
horizontal = 1;
place = "{700, -20}";
target = down;
type = TopGhost;
},
{
place = "{50, 140}";
type = Stem;
},
{
place = "{539, 139}";
type = Stem;
}
);
layerId = "C2265137-4960-4D1A-899B-D2ADBAADF5E4";
paths = (
{
closed = 1;
nodes = (
"240 0 LINE",
"240 279 LINE",
"589 279 LINE",
"589 0 LINE",
"728 0 LINE",
"728 700 LINE",
"589 700 LINE",
"589 419 LINE",
"240 419 LINE",
"240 700 LINE",
"100 700 LINE",
"100 0 LINE"
);
}
);
width = 828;
}
);
leftMetricsKey = A;
note = H;
rightMetricsKey = A;
unicode = 0048;
},
{
glyphname = I;
lastChange = "2023-05-28 20:48:15 +0000";
layers = (
{
hints = (
{
horizontal = 1;
place = "{0, 21}";
target = up;
type = BottomGhost;
},
{
horizontal = 1;
place = "{700, -20}";
target = down;
type = TopGhost;
},
{
place = "{50, 140}";
type = Stem;
}
);
layerId = "C2265137-4960-4D1A-899B-D2ADBAADF5E4";
paths = (
{
closed = 1;
nodes = (
"240 0 LINE",
"240 700 LINE",
"100 700 LINE",
"100 0 LINE"
);
}
);
width = 340;
}
);
leftMetricsKey = A;
note = I;
rightMetricsKey = A;
unicode = 0049;
},
{
glyphname = J;
lastChange = "2023-05-28 20:48:15 +0000";
layers = (
{
hints = (
{
horizontal = 1;
place = "{0, 140}";
type = Stem;
},
{
horizontal = 1;
place = "{560, 140}";
type = Stem;
},
{
place = "{20, 140}";
type = Stem;
},
{
place = "{509, 139}";
type = Stem;
}
);
layerId = "C2265137-4960-4D1A-899B-D2ADBAADF5E4";
paths = (
{
closed = 1;
nodes = (
"449 140 LINE",
"379 140 LINE",
"240 279 LINE",
"240 349 LINE",
"100 349 LINE",
"100 209 LINE",
"309 0 LINE",
"519 0 LINE",
"728 209 LINE",
"728 700 LINE",
"379 700 LINE",
"379 560 LINE",
"589 560 LINE",
"589 279 LINE"
);
}
);
width = 828;
}
);
leftMetricsKey = A;
note = J;
rightMetricsKey = A;
unicode = 004A;
},
{
glyphname = K;
lastChange = "2023-05-28 20:48:15 +0000";
layers = (
{
hints = (
{
horizontal = 1;
place = "{0, 21}";
target = up;
type = BottomGhost;
},
{
horizontal = 1;
place = "{279, 140}";
type = Stem;
},
{
horizontal = 1;
place = "{700, -20}";
target = down;
type = TopGhost;
},
{
place = "{50, 140}";
type = Stem;
},
{
place = "{539, 139}";
type = Stem;
}
);
layerId = "C2265137-4960-4D1A-899B-D2ADBAADF5E4";
paths = (
{
closed = 1;
nodes = (
"240 0 LINE",
"240 279 LINE",
"449 279 LINE",
"589 140 LINE",
"589 0 LINE",
"728 0 LINE",
"728 209 LINE",
"589 349 LINE",
"728 489 LINE",
"728 700 LINE",
"589 700 LINE",
"589 559 LINE",
"449 419 LINE",
"240 419 LINE",
"240 700 LINE",
"100 700 LINE",
"100 0 LINE"
);
}
);
width = 828;
}
);
leftMetricsKey = A;
note = K;
rightMetricsKey = A;
unicode = 004B;
},
{
glyphname = L;
lastChange = "2023-05-28 20:48:15 +0000";
layers = (
{
hints = (
{
horizontal = 1;
place = "{0, 140}";
type = Stem;
},
{
horizontal = 1;
place = "{700, -20}";
target = down;
type = TopGhost;
},
{
place = "{50, 140}";
type = Stem;
}
);
layerId = "C2265137-4960-4D1A-899B-D2ADBAADF5E4";
paths = (
{
closed = 1;
nodes = (
"100 700 LINE",
"100 0 LINE",
"694 0 LINE",
"694 140 LINE",
"240 140 LINE",
"240 700 LINE"
);
}
);
width = 794;
}
);
leftMetricsKey = A;
note = L;
rightMetricsKey = A;
unicode = 004C;
},
{
glyphname = M;
lastChange = "2023-05-28 20:48:15 +0000";
layers = (
{
hints = (
{
horizontal = 1;
place = "{0, 21}";
target = up;
type = BottomGhost;
},
{
horizontal = 1;
place = "{700, -20}";
target = down;
type = TopGhost;
},
{
place = "{50, 140}";
type = Stem;
},
{
place = "{677, 140}";
type = Stem;
}
);
layerId = "C2265137-4960-4D1A-899B-D2ADBAADF5E4";
paths = (
{
closed = 1;
nodes = (
"240 0 LINE",
"240 472 LINE",
"427 203 LINE",
"544 203 LINE",
"727 472 LINE",
"727 0 LINE",
"867 0 LINE",
"867 700 LINE",
"732 700 LINE",
"484 361 LINE",
"240 700 LINE",
"100 700 LINE",
"100 0 LINE"
);
}
);
width = 967;
}
);
leftMetricsKey = A;
note = M;
rightMetricsKey = A;
unicode = 004D;
},
{
glyphname = N;
lastChange = "2023-05-28 20:48:15 +0000";
layers = (
{
hints = (
{
horizontal = 1;
place = "{0, 21}";
target = up;
type = BottomGhost;
},
{
horizontal = 1;
place = "{700, -20}";
target = down;
type = TopGhost;
},
{
place = "{50, 140}";
type = Stem;
},
{
place = "{539, 139}";
type = Stem;
}
);
layerId = "C2265137-4960-4D1A-899B-D2ADBAADF5E4";
paths = (
{
closed = 1;
nodes = (
"728 0 LINE",
"728 700 LINE",
"589 700 LINE",
"589 234 LINE",
"240 700 LINE",
"100 700 LINE",
"100 0 LINE",
"240 0 LINE",
"240 467 LINE",
"589 0 LINE"
);
}
);
width = 828;
}
);
leftMetricsKey = A;
note = N;
rightMetricsKey = A;
unicode = 004E;
},
{
glyphname = O;
lastChange = "2023-05-28 20:48:15 +0000";
layers = (
{
hints = (
{
horizontal = 1;
place = "{0, 140}";
type = Stem;
},
{
horizontal = 1;
place = "{560, 140}";
type = Stem;
},
{
place = "{50, 140}";
type = Stem;
},
{
place = "{539, 139}";
type = Stem;
}
);
layerId = "C2265137-4960-4D1A-899B-D2ADBAADF5E4";
paths = (
{
closed = 1;
nodes = (
"240 140 LINE",
"240 560 LINE",
"589 560 LINE",
"589 140 LINE"
);
},
{
closed = 1;
nodes = (
"659 0 LINE",
"728 69 LINE",
"728 629 LINE",
"659 700 LINE",
"169 700 LINE",
"100 629 LINE",
"100 69 LINE",
"169 0 LINE"
);
}
);
width = 828;
}
);
leftMetricsKey = A;
note = O;
rightMetricsKey = A;
unicode = 004F;
},
{
glyphname = P;
lastChange = "2023-05-28 20:48:15 +0000";
layers = (
{
hints = (
{
horizontal = 1;
place = "{0, 21}";
target = up;
type = BottomGhost;
},
{
horizontal = 1;
place = "{209, 140}";
type = Stem;
},
{
horizontal = 1;
place = "{560, 140}";
type = Stem;
},
{
place = "{50, 140}";
type = Stem;
},
{
place = "{539, 139}";
type = Stem;
}
);
layerId = "C2265137-4960-4D1A-899B-D2ADBAADF5E4";
paths = (
{
closed = 1;
nodes = (
"240 349 LINE",
"240 560 LINE",
"589 560 LINE",
"589 349 LINE"
);
},
{
closed = 1;
nodes = (
"240 0 LINE",
"240 209 LINE",
"659 209 LINE",
"728 279 LINE",
"728 629 LINE",
"659 700 LINE",
"100 700 LINE",
"100 0 LINE"
);
}
);
width = 828;
}
);
leftMetricsKey = A;
note = P;
rightMetricsKey = A;
unicode = 0050;
},
{
glyphname = Q;
lastChange = "2023-05-28 20:48:15 +0000";
layers = (
{
hints = (
{
horizontal = 1;
place = "{0, 140}";
type = Stem;
},
{
horizontal = 1;
place = "{560, 140}";
type = Stem;
},
{
place = "{50, 140}";
type = Stem;
},
{
place = "{539, 139}";
type = Stem;
}
);
layerId = "C2265137-4960-4D1A-899B-D2ADBAADF5E4";
paths = (
{
closed = 1;
nodes = (
"637 142 LINE",
"728 209 LINE",
"728 629 LINE",
"659 700 LINE",
"169 700 LINE",
"100 629 LINE",
"100 69 LINE",
"169 0 LINE",
"449 0 LINE",
"535 65 LINE",
"589 0 LINE",
"758 0 LINE"
);
},
{
closed = 1;
nodes = (
"439 178 LINE",
"379 140 LINE",
"240 140 LINE",
"240 560 LINE",
"589 560 LINE",
"589 279 LINE",
"544 250 LINE",
"519 279 LINE",
"353 279 LINE"
);
}
);
width = 858;
}
);
leftMetricsKey = A;
note = Q;
rightMetricsKey = A;
unicode = 0051;
},
{
glyphname = R;
lastChange = "2023-05-28 20:48:15 +0000";
layers = (
{
hints = (
{
horizontal = 1;
place = "{0, 21}";
target = up;
type = BottomGhost;
},
{
horizontal = 1;
place = "{209, 140}";
type = Stem;
},
{
horizontal = 1;
place = "{560, 140}";
type = Stem;
},
{
place = "{50, 140}";
type = Stem;
},
{
place = "{539, 139}";
type = Stem;
}
);
layerId = "C2265137-4960-4D1A-899B-D2ADBAADF5E4";
paths = (
{
closed = 1;
nodes = (
"240 349 LINE",
"240 560 LINE",
"589 560 LINE",
"589 349 LINE"
);
},
{
closed = 1;
nodes = (
"728 0 LINE",
"728 140 LINE",
"659 209 LINE",
"728 279 LINE",
"728 629 LINE",
"659 700 LINE",
"100 700 LINE",
"100 0 LINE",
"240 0 LINE",
"240 209 LINE",
"449 209 LINE",
"519 140 LINE",
"589 69 LINE",
"589 0 LINE"
);
}
);
width = 828;
}
);
leftMetricsKey = A;
note = R;
rightMetricsKey = A;
unicode = 0052;
},
{
glyphname = S;
lastChange = "2023-05-28 20:48:15 +0000";
layers = (
{
hints = (
{
horizontal = 1;
place = "{0, 140}";
type = Stem;
},
{
horizontal = 1;
place = "{279, 141}";
type = Stem;
},
{
horizontal = 1;
place = "{560, 140}";
type = Stem;
},
{
place = "{50, 140}";
type = Stem;
},
{
place = "{539, 139}";
type = Stem;
},
{
horizontal = 1;
place = "{490, 210}";
type = Stem;
}
);
layerId = "C2265137-4960-4D1A-899B-D2ADBAADF5E4";
paths = (
{
closed = 1;
nodes = (
"659 0 LINE",
"728 69 LINE",
"728 350 LINE",
"659 420 LINE",
"240 420 LINE",
"240 560 LINE",
"589 560 LINE",
"589 490 LINE",
"728 490 LINE",
"728 629 LINE",
"659 700 LINE",
"169 700 LINE",
"100 629 LINE",
"100 329 LINE",
"169 279 LINE",
"589 279 LINE",
"589 140 LINE",
"240 140 LINE",
"240 209 LINE",
"100 209 LINE",
"100 69 LINE",
"169 0 LINE"
);
}
);
width = 828;
}
);
leftMetricsKey = A;
note = S;
rightMetricsKey = A;
unicode = 0053;
},
{
glyphname = T;
lastChange = "2023-05-28 20:48:15 +0000";
layers = (
{
hints = (
{
horizontal = 1;
place = "{0, 21}";
target = up;
type = BottomGhost;
},
{
horizontal = 1;
place = "{560, 140}";
type = Stem;
},
{
place = "{265, 140}";
type = Stem;
}
);
layerId = "C2265137-4960-4D1A-899B-D2ADBAADF5E4";
paths = (
{
closed = 1;
nodes = (
"485 0 LINE",
"485 560 LINE",
"728 560 LINE",
"728 700 LINE",
"100 700 LINE",
"100 560 LINE",
"345 560 LINE",
"345 0 LINE"
);
}
);
width = 828;
}
);
leftMetricsKey = A;
note = T;
rightMetricsKey = A;
unicode = 0054;
},
{
glyphname = U;
lastChange = "2023-05-28 20:48:15 +0000";
layers = (
{
hints = (
{
horizontal = 1;
place = "{0, 140}";
type = Stem;
},
{
horizontal = 1;
place = "{700, -20}";
target = down;
type = TopGhost;
},
{
place = "{50, 140}";
type = Stem;
},
{
place = "{539, 139}";
type = Stem;
}
);
layerId = "C2265137-4960-4D1A-899B-D2ADBAADF5E4";
paths = (
{
closed = 1;
nodes = (
"100 700 LINE",
"100 69 LINE",
"169 0 LINE",
"659 0 LINE",
"728 69 LINE",
"728 700 LINE",
"589 700 LINE",
"589 140 LINE",
"240 140 LINE",
"240 700 LINE"
);
}
);
width = 828;
}
);
leftMetricsKey = A;
note = U;
rightMetricsKey = A;
unicode = 0055;
},
{
glyphname = V;
lastChange = "2023-05-28 20:48:15 +0000";
layers = (
{
hints = (
{
horizontal = 1;
place = "{0, 140}";
type = Stem;
},
{
horizontal = 1;
place = "{700, -20}";
target = down;
type = TopGhost;
},
{
place = "{40, 140}";
type = Stem;
},
{
place = "{529, 139}";
type = Stem;
}
);
layerId = "C2265137-4960-4D1A-899B-D2ADBAADF5E4";
paths = (
{
closed = 1;
nodes = (
"449 140 LINE",
"379 140 LINE",
"240 279 LINE",
"240 700 LINE",
"100 700 LINE",
"100 209 LINE",
"309 0 LINE",
"519 0 LINE",
"728 209 LINE",
"728 700 LINE",
"589 700 LINE",
"589 279 LINE"
);
}
);
width = 828;
}
);
leftMetricsKey = A;
note = V;
rightMetricsKey = A;
unicode = 0056;
},
{
glyphname = W;
lastChange = "2023-05-28 20:48:15 +0000";
layers = (
{
hints = (
{
horizontal = 1;
place = "{0, 21}";
target = up;
type = BottomGhost;
},
{
horizontal = 1;
place = "{700, -20}";
target = down;
type = TopGhost;
},
{
place = "{40, 140}";
type = Stem;
},
{
place = "{389, 140}";
type = Stem;
},
{
place = "{739, 139}";
type = Stem;
}
);
layerId = "C2265137-4960-4D1A-899B-D2ADBAADF5E4";
paths = (
{
closed = 1;
nodes = (
"625 0 LINE",
"765 0 LINE",
"938 209 LINE",
"938 700 LINE",
"799 700 LINE",
"799 279 LINE",
"695 140 LINE",
"589 279 LINE",
"589 700 LINE",
"449 700 LINE",
"449 279 LINE",
"346 140 LINE",
"240 279 LINE",
"240 700 LINE",
"100 700 LINE",
"100 209 LINE",
"275 0 LINE",
"415 0 LINE",
"519 125 LINE"
);
}
);
width = 1038;
}
);
leftMetricsKey = A;
note = W;
rightMetricsKey = A;
unicode = 0057;
},
{
glyphname = X;
lastChange = "2023-05-28 20:48:15 +0000";
layers = (
{
hints = (
{
horizontal = 1;
place = "{0, 21}";
target = up;
type = BottomGhost;
},
{
horizontal = 1;
place = "{279, 140}";
type = Stem;
},
{
horizontal = 1;
place = "{700, -20}";
target = down;
type = TopGhost;
},
{
place = "{40, 140}";
type = Stem;
},
{
place = "{529, 139}";
type = Stem;
}
);
layerId = "C2265137-4960-4D1A-899B-D2ADBAADF5E4";
paths = (
{
closed = 1;
nodes = (
"240 0 LINE",
"240 140 LINE",
"379 279 LINE",
"449 279 LINE",
"589 140 LINE",
"589 0 LINE",
"728 0 LINE",
"728 209 LINE",
"589 349 LINE",
"728 489 LINE",
"728 700 LINE",
"589 700 LINE",
"589 559 LINE",
"449 419 LINE",
"379 419 LINE",
"240 559 LINE",
"240 700 LINE",
"100 700 LINE",
"100 489 LINE",
"240 349 LINE",
"100 209 LINE",
"100 0 LINE"
);
}
);
width = 828;
}
);
leftMetricsKey = A;
note = X;
rightMetricsKey = A;
unicode = 0058;
},
{
glyphname = Y;
lastChange = "2023-05-28 20:48:15 +0000";
layers = (
{
hints = (
{
horizontal = 1;
place = "{0, 21}";
target = up;
type = BottomGhost;
},
{
horizontal = 1;
place = "{700, -20}";
target = down;
type = TopGhost;
},
{
place = "{30, 140}";
type = Stem;
},
{
place = "{275, 139}";
type = Stem;
},
{
place = "{519, 139}";
type = Stem;
}
);
layerId = "C2265137-4960-4D1A-899B-D2ADBAADF5E4";
paths = (
{
closed = 1;
nodes = (
"484 0 LINE",
"484 264 LINE",
"728 439 LINE",
"728 700 LINE",
"589 700 LINE",
"589 498 LINE",
"413 380 LINE",
"240 498 LINE",
"240 700 LINE",
"100 700 LINE",
"100 439 LINE",
"345 264 LINE",
"345 0 LINE"
);
}
);
width = 828;
}
);
leftMetricsKey = A;
note = Y;
rightMetricsKey = A;
unicode = 0059;
},
{
glyphname = Z;
lastChange = "2023-05-28 20:48:15 +0000";
layers = (
{
hints = (
{
horizontal = 1;
place = "{0, 140}";
type = Stem;
},
{
horizontal = 1;
place = "{560, 140}";
type = Stem;
}
);
layerId = "C2265137-4960-4D1A-899B-D2ADBAADF5E4";
paths = (
{
closed = 1;
nodes = (
"728 700 LINE",
"100 700 LINE",
"100 560 LINE",
"519 560 LINE",
"100 140 LINE",
"100 0 LINE",
"728 0 LINE",
"728 140 LINE",
"309 140 LINE",
"728 560 LINE"
);
}
);
width = 828;
}
);
leftMetricsKey = A;
note = Z;
rightMetricsKey = A;
unicode = 005A;
},
{
glyphname = a;
lastChange = "2023-05-28 20:48:15 +0000";
layers = (
{
hints = (
{
horizontal = 1;
place = "{0, 21}";
target = up;
type = BottomGhost;
},
{
horizontal = 1;
place = "{209, 140}";
type = Stem;
},
{
horizontal = 1;
place = "{560, 140}";
type = Stem;
},
{
place = "{40, 140}";
type = Stem;
},
{
place = "{529, 139}";
type = Stem;
}
);
layerId = "C2265137-4960-4D1A-899B-D2ADBAADF5E4";
paths = (
{
closed = 1;
nodes = (
"240 349 LINE",
"240 419 LINE",
"379 560 LINE",
"589 560 LINE",
"589 349 LINE"
);
},
{
closed = 1;
nodes = (
"240 0 LINE",
"240 209 LINE",
"589 209 LINE",
"589 0 LINE",
"728 0 LINE",
"728 700 LINE",
"309 700 LINE",
"100 489 LINE",
"100 0 LINE"
);
}
);
width = 828;
}
);
leftMetricsKey = A;
note = a;
rightMetricsKey = A;
unicode = 0061;
},
{
glyphname = b;
lastChange = "2023-05-28 20:48:15 +0000";
layers = (
{
hints = (
{
horizontal = 1;
place = "{0, 140}";
type = Stem;
},
{
horizontal = 1;
place = "{279, 140}";
type = Stem;
},
{
horizontal = 1;
place = "{560, 140}";
type = Stem;
},
{
place = "{50, 140}";
type = Stem;
},
{
place = "{539, 139}";
type = Stem;
}
);
layerId = "C2265137-4960-4D1A-899B-D2ADBAADF5E4";
paths = (
{
closed = 1;
nodes = (
"240 140 LINE",
"240 279 LINE",
"589 279 LINE",
"589 140 LINE"
);
},
{
closed = 1;
nodes = (
"240 419 LINE",
"240 560 LINE",
"589 560 LINE",
"589 419 LINE"
);
},
{
closed = 1;
nodes = (
"659 0 LINE",
"728 69 LINE",
"728 279 LINE",
"659 349 LINE",
"728 419 LINE",
"728 629 LINE",
"659 700 LINE",
"100 700 LINE",
"100 0 LINE"
);
}
);
width = 828;
}
);
leftMetricsKey = A;
note = b;
rightMetricsKey = A;
unicode = 0062;
},
{
glyphname = c;
lastChange = "2023-05-28 20:48:15 +0000";
layers = (
{
hints = (
{
horizontal = 1;
place = "{0, 209}";
type = Stem;
},
{
horizontal = 1;
place = "{490, 210}";
type = Stem;
},
{
place = "{50, 140}";
type = Stem;
},
{
place = "{539, 139}";
type = Stem;
},
{
horizontal = 1;
place = "{0, 140}";
type = Stem;
},
{
horizontal = 1;
place = "{560, 140}";
type = Stem;
}
);
layerId = "C2265137-4960-4D1A-899B-D2ADBAADF5E4";
paths = (
{
closed = 1;
nodes = (
"659 0 LINE",
"728 69 LINE",
"728 209 LINE",
"589 209 LINE",
"589 140 LINE",
"240 140 LINE",
"240 560 LINE",
"589 560 LINE",
"589 490 LINE",
"728 490 LINE",
"728 629 LINE",
"659 700 LINE",
"169 700 LINE",
"100 629 LINE",
"100 69 LINE",
"169 0 LINE"
);
}
);
width = 828;
}
);
leftMetricsKey = A;
note = c;
rightMetricsKey = A;
unicode = 0063;
},
{
glyphname = d;
lastChange = "2023-05-28 20:48:15 +0000";
layers = (
{
hints = (
{
horizontal = 1;
place = "{0, 140}";
type = Stem;
},
{
horizontal = 1;
place = "{560, 140}";
type = Stem;
},
{
place = "{50, 140}";
type = Stem;
},
{
place = "{539, 139}";
type = Stem;
}
);
layerId = "C2265137-4960-4D1A-899B-D2ADBAADF5E4";
paths = (
{
closed = 1;
nodes = (
"728 490 LINE",
"519 700 LINE",
"100 700 LINE",
"100 0 LINE",
"659 0 LINE",
"728 69 LINE"
);
},
{
closed = 1;
nodes = (
"589 140 LINE",
"240 140 LINE",
"240 560 LINE",
"449 560 LINE",
"589 420 LINE"
);
}
);
width = 828;
}
);
leftMetricsKey = A;
note = d;
rightMetricsKey = A;
unicode = 0064;
},
{
glyphname = e;
lastChange = "2023-05-28 20:48:15 +0000";
layers = (
{
hints = (
{
horizontal = 1;
place = "{0, 140}";
type = Stem;
},
{
horizontal = 1;
place = "{279, 140}";
type = Stem;
},
{
horizontal = 1;
place = "{560, 140}";
type = Stem;
},
{
place = "{50, 140}";
type = Stem;
}
);
layerId = "C2265137-4960-4D1A-899B-D2ADBAADF5E4";
paths = (
{
closed = 1;
nodes = (
"694 0 LINE",
"694 140 LINE",
"240 140 LINE",
"240 279 LINE",
"659 279 LINE",
"659 419 LINE",
"240 419 LINE",
"240 560 LINE",
"694 560 LINE",
"694 700 LINE",
"100 700 LINE",
"100 0 LINE"
);
}
);
width = 794;
}
);
leftMetricsKey = A;
note = e;
rightMetricsKey = A;
unicode = 0065;
},
{
glyphname = f;
lastChange = "2023-05-28 20:48:15 +0000";
layers = (
{
hints = (
{
horizontal = 1;
place = "{0, 21}";
target = up;
type = BottomGhost;
},
{
horizontal = 1;
place = "{279, 140}";
type = Stem;
},
{
horizontal = 1;
place = "{560, 140}";
type = Stem;
},
{
place = "{50, 140}";
type = Stem;
}
);
layerId = "C2265137-4960-4D1A-899B-D2ADBAADF5E4";
paths = (
{
closed = 1;
nodes = (
"240 0 LINE",
"240 279 LINE",
"659 279 LINE",
"659 419 LINE",
"240 419 LINE",
"240 560 LINE",
"694 560 LINE",
"694 700 LINE",
"100 700 LINE",
"100 0 LINE"
);
}
);
width = 794;
}
);
leftMetricsKey = A;
note = f;
rightMetricsKey = A;
unicode = 0066;
},
{
glyphname = g;
lastChange = "2023-05-28 20:48:15 +0000";
layers = (
{
hints = (
{
horizontal = 1;
place = "{0, 140}";
type = Stem;
},
{
horizontal = 1;
place = "{261, 140}";
type = Stem;
},
{
horizontal = 1;
place = "{560, 140}";
type = Stem;
},
{
place = "{50, 140}";
type = Stem;
},
{
place = "{539, 139}";
type = Stem;
},
{
horizontal = 1;
place = "{490, 210}";
type = Stem;
}
);
layerId = "C2265137-4960-4D1A-899B-D2ADBAADF5E4";
paths = (
{
closed = 1;
nodes = (
"659 0 LINE",
"728 69 LINE",
"728 401 LINE",
"413 401 LINE",
"413 261 LINE",
"589 261 LINE",
"589 140 LINE",
"240 140 LINE",
"240 560 LINE",
"589 560 LINE",
"589 490 LINE",
"728 490 LINE",
"728 629 LINE",
"659 700 LINE",
"169 700 LINE",
"100 629 LINE",
"100 69 LINE",
"169 0 LINE"
);
}
);
width = 828;
}
);
leftMetricsKey = A;
note = g;
rightMetricsKey = A;
unicode = 0067;
},
{
glyphname = h;
lastChange = "2023-05-28 20:48:15 +0000";
layers = (
{
hints = (
{
horizontal = 1;
place = "{0, 21}";
target = up;
type = BottomGhost;
},
{
horizontal = 1;
place = "{279, 140}";
type = Stem;
},
{
horizontal = 1;
place = "{700, -20}";
target = down;
type = TopGhost;
},
{
place = "{50, 140}";
type = Stem;
},
{
place = "{539, 139}";
type = Stem;
}
);
layerId = "C2265137-4960-4D1A-899B-D2ADBAADF5E4";
paths = (
{
closed = 1;
nodes = (
"240 0 LINE",
"240 279 LINE",
"589 279 LINE",
"589 0 LINE",
"728 0 LINE",
"728 700 LINE",
"589 700 LINE",
"589 419 LINE",
"240 419 LINE",
"240 700 LINE",
"100 700 LINE",
"100 0 LINE"
);
}
);
width = 828;
}
);
leftMetricsKey = A;
note = h;
rightMetricsKey = A;
unicode = 0068;
},
{
glyphname = i;
lastChange = "2023-05-28 20:48:15 +0000";
layers = (
{
hints = (
{
horizontal = 1;
place = "{0, 21}";
target = up;
type = BottomGhost;
},
{
horizontal = 1;
place = "{700, -20}";
target = down;
type = TopGhost;
},
{
place = "{50, 140}";
type = Stem;
}
);
layerId = "C2265137-4960-4D1A-899B-D2ADBAADF5E4";
paths = (
{
closed = 1;
nodes = (
"240 0 LINE",
"240 700 LINE",
"100 700 LINE",
"100 0 LINE"
);
}
);
width = 340;
}
);
leftMetricsKey = A;
note = i;
rightMetricsKey = A;
unicode = 0069;
},
{
glyphname = j;
lastChange = "2023-05-28 20:48:15 +0000";
layers = (
{
hints = (
{
horizontal = 1;
place = "{0, 140}";
type = Stem;
},
{
horizontal = 1;
place = "{560, 140}";
type = Stem;
},
{
place = "{20, 140}";
type = Stem;
},
{
place = "{509, 139}";
type = Stem;
}
);
layerId = "C2265137-4960-4D1A-899B-D2ADBAADF5E4";
paths = (
{
closed = 1;
nodes = (
"449 140 LINE",
"379 140 LINE",
"240 279 LINE",
"240 349 LINE",
"100 349 LINE",
"100 209 LINE",
"309 0 LINE",
"519 0 LINE",
"728 209 LINE",
"728 700 LINE",
"379 700 LINE",
"379 560 LINE",
"589 560 LINE",
"589 279 LINE"
);
}
);
width = 828;
}
);
leftMetricsKey = A;
note = j;
rightMetricsKey = A;
unicode = 006A;
},
{
glyphname = k;
lastChange = "2023-05-28 20:48:15 +0000";
layers = (
{
hints = (
{
horizontal = 1;
place = "{0, 21}";
target = up;
type = BottomGhost;
},
{
horizontal = 1;
place = "{279, 140}";
type = Stem;
},
{
horizontal = 1;
place = "{700, -20}";
target = down;
type = TopGhost;
},
{
place = "{50, 140}";
type = Stem;
},
{
place = "{539, 139}";
type = Stem;
}
);
layerId = "C2265137-4960-4D1A-899B-D2ADBAADF5E4";
paths = (
{
closed = 1;
nodes = (
"240 0 LINE",
"240 279 LINE",
"449 279 LINE",
"589 140 LINE",
"589 0 LINE",
"728 0 LINE",
"728 209 LINE",
"589 349 LINE",
"728 489 LINE",
"728 700 LINE",
"589 700 LINE",
"589 559 LINE",
"449 419 LINE",
"240 419 LINE",
"240 700 LINE",
"100 700 LINE",
"100 0 LINE"
);
}
);
width = 828;
}
);
leftMetricsKey = A;
note = k;
rightMetricsKey = A;
unicode = 006B;
},
{
glyphname = l;
lastChange = "2023-05-28 20:48:15 +0000";
layers = (
{
hints = (
{
horizontal = 1;
place = "{0, 140}";
type = Stem;
},
{
horizontal = 1;
place = "{700, -20}";
target = down;
type = TopGhost;
},
{
place = "{50, 140}";
type = Stem;
}
);
layerId = "C2265137-4960-4D1A-899B-D2ADBAADF5E4";
paths = (
{
closed = 1;
nodes = (
"100 700 LINE",
"100 0 LINE",
"694 0 LINE",
"694 140 LINE",
"240 140 LINE",
"240 700 LINE"
);
}
);
width = 794;
}
);
leftMetricsKey = A;
note = l;
rightMetricsKey = A;
unicode = 006C;
},
{
glyphname = m;
lastChange = "2023-05-28 20:48:15 +0000";
layers = (
{
hints = (
{
horizontal = 1;
place = "{0, 21}";
target = up;
type = BottomGhost;
},
{
horizontal = 1;
place = "{700, -20}";
target = down;
type = TopGhost;
},
{
place = "{50, 140}";
type = Stem;
},
{
place = "{677, 140}";
type = Stem;
}
);
layerId = "C2265137-4960-4D1A-899B-D2ADBAADF5E4";
paths = (
{
closed = 1;
nodes = (
"240 0 LINE",
"240 472 LINE",
"427 203 LINE",
"544 203 LINE",
"727 472 LINE",
"727 0 LINE",
"867 0 LINE",
"867 700 LINE",
"732 700 LINE",
"484 361 LINE",
"240 700 LINE",
"100 700 LINE",
"100 0 LINE"
);
}
);
width = 967;
}
);
leftMetricsKey = A;
note = m;
rightMetricsKey = A;
unicode = 006D;
},
{
glyphname = n;
lastChange = "2023-05-28 20:48:15 +0000";
layers = (
{
hints = (
{
horizontal = 1;
place = "{0, 21}";
target = up;
type = BottomGhost;
},
{
horizontal = 1;
place = "{700, -20}";
target = down;
type = TopGhost;
},
{
place = "{50, 140}";
type = Stem;
},
{
place = "{539, 139}";
type = Stem;
}
);
layerId = "C2265137-4960-4D1A-899B-D2ADBAADF5E4";
paths = (
{
closed = 1;
nodes = (
"728 0 LINE",
"728 700 LINE",
"589 700 LINE",
"589 234 LINE",
"240 700 LINE",
"100 700 LINE",
"100 0 LINE",
"240 0 LINE",
"240 467 LINE",
"589 0 LINE"
);
}
);
width = 828;
}
);
leftMetricsKey = A;
note = n;
rightMetricsKey = A;
unicode = 006E;
},
{
glyphname = o;
lastChange = "2023-05-28 20:48:15 +0000";
layers = (
{
hints = (
{
horizontal = 1;
place = "{0, 140}";
type = Stem;
},
{
horizontal = 1;
place = "{560, 140}";
type = Stem;
},
{
place = "{50, 140}";
type = Stem;
},
{
place = "{539, 139}";
type = Stem;
}
);
layerId = "C2265137-4960-4D1A-899B-D2ADBAADF5E4";
paths = (
{
closed = 1;
nodes = (
"240 140 LINE",
"240 560 LINE",
"589 560 LINE",
"589 140 LINE"
);
},
{
closed = 1;
nodes = (
"659 0 LINE",
"728 69 LINE",
"728 629 LINE",
"659 700 LINE",
"169 700 LINE",
"100 629 LINE",
"100 69 LINE",
"169 0 LINE"
);
}
);
width = 828;
}
);
leftMetricsKey = A;
note = o;
rightMetricsKey = A;
unicode = 006F;
},
{
glyphname = p;
lastChange = "2023-05-28 20:48:15 +0000";
layers = (
{
hints = (
{
horizontal = 1;
place = "{0, 21}";
target = up;
type = BottomGhost;
},
{
horizontal = 1;
place = "{209, 140}";
type = Stem;
},
{
horizontal = 1;
place = "{560, 140}";
type = Stem;
},
{
place = "{50, 140}";
type = Stem;
},
{
place = "{539, 139}";
type = Stem;
}
);
layerId = "C2265137-4960-4D1A-899B-D2ADBAADF5E4";
paths = (
{
closed = 1;
nodes = (
"240 349 LINE",
"240 560 LINE",
"589 560 LINE",
"589 349 LINE"
);
},
{
closed = 1;
nodes = (
"240 0 LINE",
"240 209 LINE",
"659 209 LINE",
"728 279 LINE",
"728 629 LINE",
"659 700 LINE",
"100 700 LINE",
"100 0 LINE"
);
}
);
width = 828;
}
);
leftMetricsKey = A;
note = p;
rightMetricsKey = A;
unicode = 0070;
},
{
glyphname = q;
lastChange = "2023-05-28 20:48:15 +0000";
layers = (
{
hints = (
{
horizontal = 1;
place = "{0, 140}";
type = Stem;
},
{
horizontal = 1;
place = "{560, 140}";
type = Stem;
},
{
place = "{50, 140}";
type = Stem;
},
{
place = "{539, 139}";
type = Stem;
}
);
layerId = "C2265137-4960-4D1A-899B-D2ADBAADF5E4";
paths = (
{
closed = 1;
nodes = (
"637 142 LINE",
"728 209 LINE",
"728 629 LINE",
"659 700 LINE",
"169 700 LINE",
"100 629 LINE",
"100 69 LINE",
"169 0 LINE",
"449 0 LINE",
"535 65 LINE",
"589 0 LINE",
"758 0 LINE"
);
},
{
closed = 1;
nodes = (
"439 178 LINE",
"379 140 LINE",
"240 140 LINE",
"240 560 LINE",
"589 560 LINE",
"589 279 LINE",
"544 250 LINE",
"519 279 LINE",
"353 279 LINE"
);
}
);
width = 858;
}
);
leftMetricsKey = A;
note = q;
rightMetricsKey = A;
unicode = 0071;
},
{
glyphname = r;
lastChange = "2023-05-28 20:48:15 +0000";
layers = (
{
hints = (
{
horizontal = 1;
place = "{0, 21}";
target = up;
type = BottomGhost;
},
{
horizontal = 1;
place = "{209, 140}";
type = Stem;
},
{
horizontal = 1;
place = "{560, 140}";
type = Stem;
},
{
place = "{50, 140}";
type = Stem;
},
{
place = "{539, 139}";
type = Stem;
}
);
layerId = "C2265137-4960-4D1A-899B-D2ADBAADF5E4";
paths = (
{
closed = 1;
nodes = (
"240 349 LINE",
"240 560 LINE",
"589 560 LINE",
"589 349 LINE"
);
},
{
closed = 1;
nodes = (
"728 0 LINE",
"728 140 LINE",
"659 209 LINE",
"728 279 LINE",
"728 629 LINE",
"659 700 LINE",
"100 700 LINE",
"100 0 LINE",
"240 0 LINE",
"240 209 LINE",
"449 209 LINE",
"519 140 LINE",
"589 69 LINE",
"589 0 LINE"
);
}
);
width = 828;
}
);
leftMetricsKey = A;
note = r;
rightMetricsKey = A;
unicode = 0072;
},
{
glyphname = s;
lastChange = "2023-05-28 20:48:15 +0000";
layers = (
{
hints = (
{
horizontal = 1;
place = "{0, 140}";
type = Stem;
},
{
horizontal = 1;
place = "{279, 141}";
type = Stem;
},
{
horizontal = 1;
place = "{560, 140}";
type = Stem;
},
{
place = "{50, 140}";
type = Stem;
},
{
place = "{539, 139}";
type = Stem;
},
{
horizontal = 1;
place = "{490, 210}";
type = Stem;
}
);
layerId = "C2265137-4960-4D1A-899B-D2ADBAADF5E4";
paths = (
{
closed = 1;
nodes = (
"659 0 LINE",
"728 69 LINE",
"728 350 LINE",
"659 420 LINE",
"240 420 LINE",
"240 560 LINE",
"589 560 LINE",
"589 490 LINE",
"728 490 LINE",
"728 629 LINE",
"659 700 LINE",
"169 700 LINE",
"100 629 LINE",
"100 329 LINE",
"169 279 LINE",
"589 279 LINE",
"589 140 LINE",
"240 140 LINE",
"240 209 LINE",
"100 209 LINE",
"100 69 LINE",
"169 0 LINE"
);
}
);
width = 828;
}
);
leftMetricsKey = A;
note = s;
rightMetricsKey = A;
unicode = 0073;
},
{
glyphname = t;
lastChange = "2023-05-28 20:48:15 +0000";
layers = (
{
hints = (
{
horizontal = 1;
place = "{0, 21}";
target = up;
type = BottomGhost;
},
{
horizontal = 1;
place = "{560, 140}";
type = Stem;
},
{
place = "{265, 140}";
type = Stem;
}
);
layerId = "C2265137-4960-4D1A-899B-D2ADBAADF5E4";
paths = (
{
closed = 1;
nodes = (
"485 0 LINE",
"485 560 LINE",
"728 560 LINE",
"728 700 LINE",
"100 700 LINE",
"100 560 LINE",
"345 560 LINE",
"345 0 LINE"
);
}
);
width = 828;
}
);
leftMetricsKey = A;
note = t;
rightMetricsKey = A;
unicode = 0074;
},
{
glyphname = u;
lastChange = "2023-05-28 20:48:15 +0000";
layers = (
{
hints = (
{
horizontal = 1;
place = "{0, 140}";
type = Stem;
},
{
horizontal = 1;
place = "{700, -20}";
target = down;
type = TopGhost;
},
{
place = "{50, 140}";
type = Stem;
},
{
place = "{539, 139}";
type = Stem;
}
);
layerId = "C2265137-4960-4D1A-899B-D2ADBAADF5E4";
paths = (
{
closed = 1;
nodes = (
"100 700 LINE",
"100 69 LINE",
"169 0 LINE",
"659 0 LINE",
"728 69 LINE",
"728 700 LINE",
"589 700 LINE",
"589 140 LINE",
"240 140 LINE",
"240 700 LINE"
);
}
);
width = 828;
}
);
leftMetricsKey = A;
note = u;
rightMetricsKey = A;
unicode = 0075;
},
{
glyphname = v;
lastChange = "2023-05-28 20:48:15 +0000";
layers = (
{
hints = (
{
horizontal = 1;
place = "{0, 140}";
type = Stem;
},
{
horizontal = 1;
place = "{700, -20}";
target = down;
type = TopGhost;
},
{
place = "{40, 140}";
type = Stem;
},
{
place = "{529, 139}";
type = Stem;
}
);
layerId = "C2265137-4960-4D1A-899B-D2ADBAADF5E4";
paths = (
{
closed = 1;
nodes = (
"449 140 LINE",
"379 140 LINE",
"240 279 LINE",
"240 700 LINE",
"100 700 LINE",
"100 209 LINE",
"309 0 LINE",
"519 0 LINE",
"728 209 LINE",
"728 700 LINE",
"589 700 LINE",
"589 279 LINE"
);
}
);
width = 828;
}
);
leftMetricsKey = A;
note = v;
rightMetricsKey = A;
unicode = 0076;
},
{
glyphname = w;
lastChange = "2023-05-28 20:48:15 +0000";
layers = (
{
hints = (
{
horizontal = 1;
place = "{0, 21}";
target = up;
type = BottomGhost;
},
{
horizontal = 1;
place = "{700, -20}";
target = down;
type = TopGhost;
},
{
place = "{40, 140}";
type = Stem;
},
{
place = "{389, 140}";
type = Stem;
},
{
place = "{739, 139}";
type = Stem;
}
);
layerId = "C2265137-4960-4D1A-899B-D2ADBAADF5E4";
paths = (
{
closed = 1;
nodes = (
"625 0 LINE",
"765 0 LINE",
"938 209 LINE",
"938 700 LINE",
"799 700 LINE",
"799 279 LINE",
"695 140 LINE",
"589 279 LINE",
"589 700 LINE",
"449 700 LINE",
"449 279 LINE",
"346 140 LINE",
"240 279 LINE",
"240 700 LINE",
"100 700 LINE",
"100 209 LINE",
"275 0 LINE",
"415 0 LINE",
"519 125 LINE"
);
}
);
width = 1038;
}
);
leftMetricsKey = A;
note = w;
rightMetricsKey = A;
unicode = 0077;
},
{
glyphname = x;
lastChange = "2023-05-28 20:48:15 +0000";
layers = (
{
hints = (
{
horizontal = 1;
place = "{0, 21}";
target = up;
type = BottomGhost;
},
{
horizontal = 1;
place = "{279, 140}";
type = Stem;
},
{
horizontal = 1;
place = "{700, -20}";
target = down;
type = TopGhost;
},
{
place = "{40, 140}";
type = Stem;
},
{
place = "{529, 139}";
type = Stem;
}
);
layerId = "C2265137-4960-4D1A-899B-D2ADBAADF5E4";
paths = (
{
closed = 1;
nodes = (
"240 0 LINE",
"240 140 LINE",
"379 279 LINE",
"449 279 LINE",
"589 140 LINE",
"589 0 LINE",
"728 0 LINE",
"728 209 LINE",
"589 349 LINE",
"728 489 LINE",
"728 700 LINE",
"589 700 LINE",
"589 559 LINE",
"449 419 LINE",
"379 419 LINE",
"240 559 LINE",
"240 700 LINE",
"100 700 LINE",
"100 489 LINE",
"240 349 LINE",
"100 209 LINE",
"100 0 LINE"
);
}
);
width = 828;
}
);
leftMetricsKey = A;
note = x;
rightMetricsKey = A;
unicode = 0078;
},
{
glyphname = y;
lastChange = "2023-05-28 20:48:15 +0000";
layers = (
{
hints = (
{
horizontal = 1;
place = "{0, 21}";
target = up;
type = BottomGhost;
},
{
horizontal = 1;
place = "{700, -20}";
target = down;
type = TopGhost;
},
{
place = "{30, 140}";
type = Stem;
},
{
place = "{275, 139}";
type = Stem;
},
{
place = "{519, 139}";
type = Stem;
}
);
layerId = "C2265137-4960-4D1A-899B-D2ADBAADF5E4";
paths = (
{
closed = 1;
nodes = (
"484 0 LINE",
"484 264 LINE",
"728 439 LINE",
"728 700 LINE",
"589 700 LINE",
"589 498 LINE",
"413 380 LINE",
"240 498 LINE",
"240 700 LINE",
"100 700 LINE",
"100 439 LINE",
"345 264 LINE",
"345 0 LINE"
);
}
);
width = 828;
}
);
leftMetricsKey = A;
note = y;
rightMetricsKey = A;
unicode = 0079;
},
{
glyphname = z;
lastChange = "2023-05-28 20:48:15 +0000";
layers = (
{
hints = (
{
horizontal = 1;
place = "{0, 140}";
type = Stem;
},
{
horizontal = 1;
place = "{560, 140}";
type = Stem;
}
);
layerId = "C2265137-4960-4D1A-899B-D2ADBAADF5E4";
paths = (
{
closed = 1;
nodes = (
"728 700 LINE",
"100 700 LINE",
"100 560 LINE",
"519 560 LINE",
"100 140 LINE",
"100 0 LINE",
"728 0 LINE",
"728 140 LINE",
"309 140 LINE",
"728 560 LINE"
);
}
);
width = 828;
}
);
leftMetricsKey = A;
note = z;
rightMetricsKey = A;
unicode = 007A;
},
{
glyphname = "A-cy";
lastChange = "2023-05-28 20:48:15 +0000";
layers = (
{
hints = (
{
horizontal = 1;
place = "{0, 21}";
target = up;
type = BottomGhost;
},
{
horizontal = 1;
place = "{209, 140}";
type = Stem;
},
{
horizontal = 1;
place = "{560, 140}";
type = Stem;
},
{
place = "{40, 140}";
type = Stem;
},
{
place = "{529, 139}";
type = Stem;
}
);
layerId = "C2265137-4960-4D1A-899B-D2ADBAADF5E4";
paths = (
{
closed = 1;
nodes = (
"240 349 LINE",
"240 419 LINE",
"379 560 LINE",
"589 560 LINE",
"589 349 LINE"
);
},
{
closed = 1;
nodes = (
"240 0 LINE",
"240 209 LINE",
"589 209 LINE",
"589 0 LINE",
"728 0 LINE",
"728 700 LINE",
"309 700 LINE",
"100 489 LINE",
"100 0 LINE"
);
}
);
width = 828;
}
);
leftMetricsKey = A;
note = afii10017;
rightMetricsKey = A;
unicode = 0410;
},
{
glyphname = "Be-cy";
lastChange = "2023-05-28 20:48:15 +0000";
layers = (
{
hints = (
{
horizontal = 1;
place = "{0, 140}";
type = Stem;
},
{
horizontal = 1;
place = "{279, 140}";
type = Stem;
},
{
horizontal = 1;
place = "{560, 140}";
type = Stem;
},
{
place = "{50, 140}";
type = Stem;
},
{
place = "{539, 139}";
type = Stem;
}
);
layerId = "C2265137-4960-4D1A-899B-D2ADBAADF5E4";
paths = (
{
closed = 1;
nodes = (
"240 140 LINE",
"240 279 LINE",
"589 279 LINE",
"589 140 LINE"
);
},
{
closed = 1;
nodes = (
"659 0 LINE",
"728 69 LINE",
"728 349 LINE",
"659 419 LINE",
"240 419 LINE",
"240 560 LINE",
"694 560 LINE",
"694 700 LINE",
"100 700 LINE",
"100 0 LINE"
);
}
);
width = 828;
}
);
leftMetricsKey = A;
note = afii10018;
rightMetricsKey = A;
unicode = 0411;
},
{
glyphname = "Ve-cy";
lastChange = "2023-05-28 20:48:15 +0000";
layers = (
{
hints = (
{
horizontal = 1;
place = "{0, 140}";
type = Stem;
},
{
horizontal = 1;
place = "{279, 140}";
type = Stem;
},
{
horizontal = 1;
place = "{560, 140}";
type = Stem;
},
{
place = "{50, 140}";
type = Stem;
},
{
place = "{539, 139}";
type = Stem;
}
);
layerId = "C2265137-4960-4D1A-899B-D2ADBAADF5E4";
paths = (
{
closed = 1;
nodes = (
"240 140 LINE",
"240 279 LINE",
"589 279 LINE",
"589 140 LINE"
);
},
{
closed = 1;
nodes = (
"240 419 LINE",
"240 560 LINE",
"589 560 LINE",
"589 419 LINE"
);
},
{
closed = 1;
nodes = (
"659 0 LINE",
"728 69 LINE",
"728 279 LINE",
"659 349 LINE",
"728 419 LINE",
"728 629 LINE",
"659 700 LINE",
"100 700 LINE",
"100 0 LINE"
);
}
);
width = 828;
}
);
leftMetricsKey = A;
note = afii10019;
rightMetricsKey = A;
unicode = 0412;
},
{
glyphname = "Ge-cy";
lastChange = "2023-05-28 20:48:15 +0000";
layers = (
{
hints = (
{
horizontal = 1;
place = "{0, 21}";
target = up;
type = BottomGhost;
},
{
horizontal = 1;
place = "{560, 140}";
type = Stem;
},
{
place = "{50, 140}";
type = Stem;
}
);
layerId = "C2265137-4960-4D1A-899B-D2ADBAADF5E4";
paths = (
{
closed = 1;
nodes = (
"240 0 LINE",
"240 560 LINE",
"694 560 LINE",
"694 700 LINE",
"100 700 LINE",
"100 0 LINE"
);
}
);
width = 794;
}
);
leftMetricsKey = A;
note = afii10020;
rightMetricsKey = A;
unicode = 0413;
},
{
glyphname = "Gje-cy";
lastChange = "2023-05-28 20:48:15 +0000";
layers = (
{
hints = (
{
horizontal = 1;
place = "{0, 21}";
target = up;
type = BottomGhost;
},
{
horizontal = 1;
place = "{560, 140}";
type = Stem;
},
{
horizontal = 1;
place = "{940, -20}";
target = down;
type = TopGhost;
},
{
place = "{50, 140}";
type = Stem;
}
);
layerId = "C2265137-4960-4D1A-899B-D2ADBAADF5E4";
paths = (
{
closed = 1;
nodes = (
"240 0 LINE",
"240 560 LINE",
"694 560 LINE",
"694 700 LINE",
"100 700 LINE",
"100 0 LINE"
);
},
{
closed = 1;
nodes = (
"470 940 LINE",
"320 750 LINE",
"460 750 LINE",
"620 940 LINE"
);
}
);
width = 794;
}
);
leftMetricsKey = A;
note = afii10052;
rightMetricsKey = A;
unicode = 0403;
},
{
glyphname = "Gheupturn-cy";
lastChange = "2023-05-28 20:48:15 +0000";
layers = (
{
hints = (
{
horizontal = 1;
place = "{0, 21}";
target = up;
type = BottomGhost;
},
{
horizontal = 1;
place = "{560, 210}";
type = Stem;
},
{
place = "{50, 140}";
type = Stem;
},
{
place = "{504, 140}";
type = Stem;
}
);
layerId = "C2265137-4960-4D1A-899B-D2ADBAADF5E4";
paths = (
{
closed = 1;
nodes = (
"694 560 LINE",
"694 770 LINE",
"554 770 LINE",
"554 700 LINE",
"100 700 LINE",
"100 0 LINE",
"240 0 LINE",
"240 560 LINE"
);
}
);
width = 794;
}
);
leftMetricsKey = A;
note = afii10050;
rightMetricsKey = A;
unicode = 0490;
},
{
glyphname = "De-cy";
lastChange = "2023-05-28 20:48:15 +0000";
layers = (
{
hints = (
{
horizontal = 1;
place = "{-140, 21}";
target = up;
type = BottomGhost;
},
{
horizontal = 1;
place = "{0, 140}";
type = Stem;
},
{
horizontal = 1;
place = "{560, 140}";
type = Stem;
},
{
place = "{79, 140}";
type = Stem;
},
{
place = "{499, 139}";
type = Stem;
},
{
place = "{10, 140}";
type = Stem;
},
{
place = "{569, 140}";
type = Stem;
}
);
layerId = "C2265137-4960-4D1A-899B-D2ADBAADF5E4";
paths = (
{
closed = 1;
nodes = (
"309 140 LINE",
"309 420 LINE",
"449 560 LINE",
"589 560 LINE",
"589 140 LINE"
);
},
{
closed = 1;
nodes = (
"240 -140 LINE",
"240 0 LINE",
"659 0 LINE",
"659 -140 LINE",
"799 -140 LINE",
"799 140 LINE",
"728 140 LINE",
"728 700 LINE",
"379 700 LINE",
"169 490 LINE",
"169 140 LINE",
"100 140 LINE",
"100 -140 LINE"
);
}
);
width = 899;
}
);
leftMetricsKey = A;
note = afii10021;
rightMetricsKey = A;
unicode = 0414;
},
{
glyphname = "Ie-cy";
lastChange = "2023-05-28 20:48:15 +0000";
layers = (
{
hints = (
{
horizontal = 1;
place = "{0, 140}";
type = Stem;
},
{
horizontal = 1;
place = "{279, 140}";
type = Stem;
},
{
horizontal = 1;
place = "{560, 140}";
type = Stem;
},
{
place = "{50, 140}";
type = Stem;
}
);
layerId = "C2265137-4960-4D1A-899B-D2ADBAADF5E4";
paths = (
{
closed = 1;
nodes = (
"694 0 LINE",
"694 140 LINE",
"240 140 LINE",
"240 279 LINE",
"659 279 LINE",
"659 419 LINE",
"240 419 LINE",
"240 560 LINE",
"694 560 LINE",
"694 700 LINE",
"100 700 LINE",
"100 0 LINE"
);
}
);
width = 794;
}
);
leftMetricsKey = A;
note = afii10022;
rightMetricsKey = A;
unicode = 0415;
},
{
glyphname = "Io-cy";
lastChange = "2023-05-28 20:48:15 +0000";
layers = (
{
hints = (
{
horizontal = 1;
place = "{0, 140}";
type = Stem;
},
{
horizontal = 1;
place = "{279, 140}";
type = Stem;
},
{
horizontal = 1;
place = "{560, 140}";
type = Stem;
},
{
horizontal = 1;
place = "{769, 140}";
type = Stem;
},
{
place = "{50, 140}";
type = Stem;
},
{
place = "{399, 140}";
type = Stem;
},
{
place = "{155, 140}";
type = Stem;
}
);
layerId = "C2265137-4960-4D1A-899B-D2ADBAADF5E4";
paths = (
{
closed = 1;
nodes = (
"694 0 LINE",
"694 140 LINE",
"240 140 LINE",
"240 279 LINE",
"659 279 LINE",
"659 419 LINE",
"240 419 LINE",
"240 560 LINE",
"694 560 LINE",
"694 700 LINE",
"100 700 LINE",
"100 0 LINE"
);
},
{
closed = 1;
nodes = (
"205 769 LINE",
"345 769 LINE",
"345 909 LINE",
"205 909 LINE"
);
},
{
closed = 1;
nodes = (
"449 769 LINE",
"589 769 LINE",
"589 909 LINE",
"449 909 LINE"
);
}
);
width = 794;
}
);
leftMetricsKey = A;
note = afii10023;
rightMetricsKey = A;
unicode = 0401;
},
{
glyphname = "Zhe-cy";
lastChange = "2023-05-28 20:48:15 +0000";
layers = (
{
hints = (
{
horizontal = 1;
place = "{0, 21}";
target = up;
type = BottomGhost;
},
{
horizontal = 1;
place = "{279, 140}";
type = Stem;
},
{
horizontal = 1;
place = "{700, -20}";
target = down;
type = TopGhost;
},
{
place = "{40, 140}";
type = Stem;
},
{
place = "{389, 140}";
type = Stem;
},
{
place = "{739, 139}";
type = Stem;
}
);
layerId = "C2265137-4960-4D1A-899B-D2ADBAADF5E4";
paths = (
{
closed = 1;
nodes = (
"240 0 LINE",
"240 140 LINE",
"379 279 LINE",
"449 279 LINE",
"449 0 LINE",
"589 0 LINE",
"589 279 LINE",
"659 279 LINE",
"799 140 LINE",
"799 0 LINE",
"938 0 LINE",
"938 209 LINE",
"799 349 LINE",
"938 489 LINE",
"938 700 LINE",
"799 700 LINE",
"799 559 LINE",
"659 419 LINE",
"589 419 LINE",
"589 700 LINE",
"449 700 LINE",
"449 419 LINE",
"379 419 LINE",
"240 559 LINE",
"240 700 LINE",
"100 700 LINE",
"100 489 LINE",
"240 349 LINE",
"100 209 LINE",
"100 0 LINE"
);
}
);
width = 1038;
}
);
leftMetricsKey = A;
note = afii10024;
rightMetricsKey = A;
unicode = 0416;
},
{
glyphname = "Ze-cy";
lastChange = "2023-05-28 20:48:15 +0000";
layers = (
{
hints = (
{
horizontal = 1;
place = "{0, 140}";
type = Stem;
},
{
horizontal = 1;
place = "{279, 140}";
type = Stem;
},
{
horizontal = 1;
place = "{490, 210}";
type = Stem;
},
{
place = "{30, 140}";
type = Stem;
},
{
place = "{519, 139}";
type = Stem;
},
{
horizontal = 1;
place = "{560, 140}";
type = Stem;
}
);
layerId = "C2265137-4960-4D1A-899B-D2ADBAADF5E4";
paths = (
{
closed = 1;
nodes = (
"659 0 LINE",
"728 69 LINE",
"728 279 LINE",
"659 349 LINE",
"728 419 LINE",
"728 629 LINE",
"659 700 LINE",
"169 700 LINE",
"100 629 LINE",
"100 490 LINE",
"240 490 LINE",
"240 560 LINE",
"589 560 LINE",
"589 419 LINE",
"379 419 LINE",
"379 279 LINE",
"589 279 LINE",
"589 140 LINE",
"240 140 LINE",
"240 209 LINE",
"100 209 LINE",
"100 69 LINE",
"169 0 LINE"
);
}
);
width = 828;
}
);
leftMetricsKey = A;
note = afii10025;
rightMetricsKey = A;
unicode = 0417;
},
{
glyphname = "Ii-cy";
lastChange = "2023-05-28 20:48:15 +0000";
layers = (
{
hints = (
{
horizontal = 1;
place = "{0, 21}";
target = up;
type = BottomGhost;
},
{
horizontal = 1;
place = "{700, -20}";
target = down;
type = TopGhost;
},
{
place = "{50, 140}";
type = Stem;
},
{
place = "{539, 139}";
type = Stem;
}
);
layerId = "C2265137-4960-4D1A-899B-D2ADBAADF5E4";
paths = (
{
closed = 1;
nodes = (
"240 0 LINE",
"589 467 LINE",
"589 0 LINE",
"728 0 LINE",
"728 700 LINE",
"589 700 LINE",
"240 234 LINE",
"240 700 LINE",
"100 700 LINE",
"100 0 LINE"
);
}
);
width = 828;
}
);
leftMetricsKey = A;
note = afii10026;
rightMetricsKey = A;
unicode = 0418;
},
{
glyphname = "Iishort-cy";
lastChange = "2023-05-28 20:48:15 +0000";
layers = (
{
hints = (
{
horizontal = 1;
place = "{0, 21}";
target = up;
type = BottomGhost;
},
{
horizontal = 1;
place = "{700, -20}";
target = down;
type = TopGhost;
},
{
horizontal = 1;
place = "{769, 119}";
type = Stem;
},
{
place = "{119, 140}";
type = Stem;
},
{
place = "{469, 140}";
type = Stem;
},
{
place = "{50, 140}";
type = Stem;
},
{
place = "{539, 139}";
type = Stem;
},
{
horizontal = 1;
place = "{769, 210}";
type = Stem;
}
);
layerId = "C2265137-4960-4D1A-899B-D2ADBAADF5E4";
paths = (
{
closed = 1;
nodes = (
"169 839 LINE",
"240 769 LINE",
"589 769 LINE",
"659 839 LINE",
"659 979 LINE",
"519 979 LINE",
"519 888 LINE",
"309 888 LINE",
"309 979 LINE",
"169 979 LINE"
);
},
{
closed = 1;
nodes = (
"240 0 LINE",
"589 467 LINE",
"589 0 LINE",
"728 0 LINE",
"728 700 LINE",
"589 700 LINE",
"240 234 LINE",
"240 700 LINE",
"100 700 LINE",
"100 0 LINE"
);
}
);
width = 828;
}
);
leftMetricsKey = A;
note = afii10027;
rightMetricsKey = A;
unicode = 0419;
},
{
glyphname = "Ka-cy";
lastChange = "2023-05-28 20:48:15 +0000";
layers = (
{
hints = (
{
horizontal = 1;
place = "{0, 21}";
target = up;
type = BottomGhost;
},
{
horizontal = 1;
place = "{279, 140}";
type = Stem;
},
{
horizontal = 1;
place = "{700, -20}";
target = down;
type = TopGhost;
},
{
place = "{50, 140}";
type = Stem;
},
{
place = "{539, 139}";
type = Stem;
}
);
layerId = "C2265137-4960-4D1A-899B-D2ADBAADF5E4";
paths = (
{
closed = 1;
nodes = (
"240 0 LINE",
"240 279 LINE",
"449 279 LINE",
"589 140 LINE",
"589 0 LINE",
"728 0 LINE",
"728 209 LINE",
"589 349 LINE",
"728 489 LINE",
"728 700 LINE",
"589 700 LINE",
"589 559 LINE",
"449 419 LINE",
"240 419 LINE",
"240 700 LINE",
"100 700 LINE",
"100 0 LINE"
);
}
);
width = 828;
}
);
leftMetricsKey = A;
note = afii10028;
rightMetricsKey = A;
unicode = 041A;
},
{
glyphname = "Kje-cy";
lastChange = "2023-05-28 20:48:15 +0000";
layers = (
{
hints = (
{
horizontal = 1;
place = "{0, 21}";
target = up;
type = BottomGhost;
},
{
horizontal = 1;
place = "{279, 140}";
type = Stem;
},
{
horizontal = 1;
place = "{700, -20}";
target = down;
type = TopGhost;
},
{
horizontal = 1;
place = "{920, -20}";
target = down;
type = TopGhost;
},
{
place = "{50, 140}";
type = Stem;
},
{
place = "{539, 139}";
type = Stem;
}
);
layerId = "C2265137-4960-4D1A-899B-D2ADBAADF5E4";
paths = (
{
closed = 1;
nodes = (
"240 0 LINE",
"240 279 LINE",
"449 279 LINE",
"589 140 LINE",
"589 0 LINE",
"728 0 LINE",
"728 209 LINE",
"589 349 LINE",
"728 489 LINE",
"728 700 LINE",
"589 700 LINE",
"589 559 LINE",
"449 419 LINE",
"240 419 LINE",
"240 700 LINE",
"100 700 LINE",
"100 0 LINE"
);
},
{
closed = 1;
nodes = (
"470 920 LINE",
"320 730 LINE",
"460 730 LINE",
"620 920 LINE"
);
}
);
width = 828;
}
);
leftMetricsKey = A;
note = afii10061;
rightMetricsKey = A;
unicode = 040C;
},
{
glyphname = "El-cy";
lastChange = "2023-05-28 20:48:15 +0000";
layers = (
{
hints = (
{
horizontal = 1;
place = "{0, 21}";
target = up;
type = BottomGhost;
},
{
horizontal = 1;
place = "{560, 140}";
type = Stem;
},
{
place = "{40, 140}";
type = Stem;
},
{
place = "{529, 139}";
type = Stem;
}
);
layerId = "C2265137-4960-4D1A-899B-D2ADBAADF5E4";
paths = (
{
closed = 1;
nodes = (
"240 0 LINE",
"240 420 LINE",
"379 560 LINE",
"589 560 LINE",
"589 0 LINE",
"728 0 LINE",
"728 700 LINE",
"309 700 LINE",
"100 490 LINE",
"100 0 LINE"
);
}
);
width = 828;
}
);
leftMetricsKey = A;
note = afii10029;
rightMetricsKey = A;
unicode = 041B;
},
{
glyphname = "Em-cy";
lastChange = "2023-05-28 20:48:15 +0000";
layers = (
{
hints = (
{
horizontal = 1;
place = "{0, 21}";
target = up;
type = BottomGhost;
},
{
horizontal = 1;
place = "{700, -20}";
target = down;
type = TopGhost;
},
{
place = "{50, 140}";
type = Stem;
},
{
place = "{677, 140}";
type = Stem;
}
);
layerId = "C2265137-4960-4D1A-899B-D2ADBAADF5E4";
paths = (
{
closed = 1;
nodes = (
"240 0 LINE",
"240 472 LINE",
"427 203 LINE",
"544 203 LINE",
"727 472 LINE",
"727 0 LINE",
"867 0 LINE",
"867 700 LINE",
"732 700 LINE",
"484 361 LINE",
"240 700 LINE",
"100 700 LINE",
"100 0 LINE"
);
}
);
width = 967;
}
);
leftMetricsKey = A;
note = afii10030;
rightMetricsKey = A;
unicode = 041C;
},
{
glyphname = "En-cy";
lastChange = "2023-05-28 20:48:15 +0000";
layers = (
{
hints = (
{
horizontal = 1;
place = "{0, 21}";
target = up;
type = BottomGhost;
},
{
horizontal = 1;
place = "{279, 140}";
type = Stem;
},
{
horizontal = 1;
place = "{700, -20}";
target = down;
type = TopGhost;
},
{
place = "{50, 140}";
type = Stem;
},
{
place = "{539, 139}";
type = Stem;
}
);
layerId = "C2265137-4960-4D1A-899B-D2ADBAADF5E4";
paths = (
{
closed = 1;
nodes = (
"240 0 LINE",
"240 279 LINE",
"589 279 LINE",
"589 0 LINE",
"728 0 LINE",
"728 700 LINE",
"589 700 LINE",
"589 419 LINE",
"240 419 LINE",
"240 700 LINE",
"100 700 LINE",
"100 0 LINE"
);
}
);
width = 828;
}
);
leftMetricsKey = A;
note = afii10031;
rightMetricsKey = A;
unicode = 041D;
},
{
glyphname = "O-cy";
lastChange = "2023-05-28 20:48:15 +0000";
layers = (
{
hints = (
{
horizontal = 1;
place = "{0, 140}";
type = Stem;
},
{
horizontal = 1;
place = "{560, 140}";
type = Stem;
},
{
place = "{50, 140}";
type = Stem;
},
{
place = "{539, 139}";
type = Stem;
}
);
layerId = "C2265137-4960-4D1A-899B-D2ADBAADF5E4";
paths = (
{
closed = 1;
nodes = (
"240 140 LINE",
"240 560 LINE",
"589 560 LINE",
"589 140 LINE"
);
},
{
closed = 1;
nodes = (
"659 0 LINE",
"728 69 LINE",
"728 629 LINE",
"659 700 LINE",
"169 700 LINE",
"100 629 LINE",
"100 69 LINE",
"169 0 LINE"
);
}
);
width = 828;
}
);
leftMetricsKey = A;
note = afii10032;
rightMetricsKey = A;
unicode = 041E;
},
{
glyphname = "Pe-cy";
lastChange = "2023-05-28 20:48:15 +0000";
layers = (
{
hints = (
{
horizontal = 1;
place = "{0, 21}";
target = up;
type = BottomGhost;
},
{
horizontal = 1;
place = "{560, 140}";
type = Stem;
},
{
place = "{50, 140}";
type = Stem;
},
{
place = "{539, 139}";
type = Stem;
}
);
layerId = "C2265137-4960-4D1A-899B-D2ADBAADF5E4";
paths = (
{
closed = 1;
nodes = (
"240 0 LINE",
"240 560 LINE",
"589 560 LINE",
"589 0 LINE",
"728 0 LINE",
"728 700 LINE",
"100 700 LINE",
"100 0 LINE"
);
}
);
width = 828;
}
);
leftMetricsKey = A;
note = afii10033;
rightMetricsKey = A;
unicode = 041F;
},
{
glyphname = "Er-cy";
lastChange = "2023-05-28 20:48:15 +0000";
layers = (
{
hints = (
{
horizontal = 1;
place = "{0, 21}";
target = up;
type = BottomGhost;
},
{
horizontal = 1;
place = "{209, 140}";
type = Stem;
},
{
horizontal = 1;
place = "{560, 140}";
type = Stem;
},
{
place = "{50, 140}";
type = Stem;
},
{
place = "{539, 139}";
type = Stem;
}
);
layerId = "C2265137-4960-4D1A-899B-D2ADBAADF5E4";
paths = (
{
closed = 1;
nodes = (
"240 349 LINE",
"240 560 LINE",
"589 560 LINE",
"589 349 LINE"
);
},
{
closed = 1;
nodes = (
"240 0 LINE",
"240 209 LINE",
"659 209 LINE",
"728 279 LINE",
"728 629 LINE",
"659 700 LINE",
"100 700 LINE",
"100 0 LINE"
);
}
);
width = 828;
}
);
leftMetricsKey = A;
note = afii10034;
rightMetricsKey = A;
unicode = 0420;
},
{
glyphname = "Es-cy";
lastChange = "2023-05-28 20:48:15 +0000";
layers = (
{
hints = (
{
horizontal = 1;
place = "{0, 209}";
type = Stem;
},
{
horizontal = 1;
place = "{490, 210}";
type = Stem;
},
{
place = "{50, 140}";
type = Stem;
},
{
place = "{539, 139}";
type = Stem;
},
{
horizontal = 1;
place = "{0, 140}";
type = Stem;
},
{
horizontal = 1;
place = "{560, 140}";
type = Stem;
}
);
layerId = "C2265137-4960-4D1A-899B-D2ADBAADF5E4";
paths = (
{
closed = 1;
nodes = (
"659 0 LINE",
"728 69 LINE",
"728 209 LINE",
"589 209 LINE",
"589 140 LINE",
"240 140 LINE",
"240 560 LINE",
"589 560 LINE",
"589 490 LINE",
"728 490 LINE",
"728 629 LINE",
"659 700 LINE",
"169 700 LINE",
"100 629 LINE",
"100 69 LINE",
"169 0 LINE"
);
}
);
width = 828;
}
);
leftMetricsKey = A;
note = afii10035;
rightMetricsKey = A;
unicode = 0421;
},
{
glyphname = "Te-cy";
lastChange = "2023-05-28 20:48:15 +0000";
layers = (
{
hints = (
{
horizontal = 1;
place = "{0, 21}";
target = up;
type = BottomGhost;
},
{
horizontal = 1;
place = "{560, 140}";
type = Stem;
},
{
place = "{265, 140}";
type = Stem;
}
);
layerId = "C2265137-4960-4D1A-899B-D2ADBAADF5E4";
paths = (
{
closed = 1;
nodes = (
"485 0 LINE",
"485 560 LINE",
"728 560 LINE",
"728 700 LINE",
"100 700 LINE",
"100 560 LINE",
"345 560 LINE",
"345 0 LINE"
);
}
);
width = 828;
}
);
leftMetricsKey = A;
note = afii10036;
rightMetricsKey = A;
unicode = 0422;
},
{
glyphname = "U-cy";
lastChange = "2023-05-28 20:48:15 +0000";
layers = (
{
hints = (
{
horizontal = 1;
place = "{0, 140}";
type = Stem;
},
{
horizontal = 1;
place = "{279, 140}";
type = Stem;
},
{
horizontal = 1;
place = "{700, -20}";
target = down;
type = TopGhost;
},
{
place = "{20, 140}";
type = Stem;
},
{
place = "{509, 139}";
type = Stem;
}
);
layerId = "C2265137-4960-4D1A-899B-D2ADBAADF5E4";
paths = (
{
closed = 1;
nodes = (
"169 0 LINE",
"519 0 LINE",
"728 209 LINE",
"728 700 LINE",
"589 700 LINE",
"589 419 LINE",
"379 419 LINE",
"240 559 LINE",
"240 700 LINE",
"100 700 LINE",
"100 489 LINE",
"309 279 LINE",
"589 279 LINE",
"449 140 LINE",
"169 140 LINE"
);
}
);
width = 828;
}
);
leftMetricsKey = A;
note = afii10037;
rightMetricsKey = A;
unicode = 0423;
},
{
glyphname = "Ushort-cy";
lastChange = "2023-05-28 20:48:15 +0000";
layers = (
{
hints = (
{
horizontal = 1;
place = "{0, 140}";
type = Stem;
},
{
horizontal = 1;
place = "{279, 140}";
type = Stem;
},
{
horizontal = 1;
place = "{700, -20}";
target = down;
type = TopGhost;
},
{
horizontal = 1;
place = "{769, 119}";
type = Stem;
},
{
place = "{89, 140}";
type = Stem;
},
{
place = "{439, 140}";
type = Stem;
},
{
place = "{20, 140}";
type = Stem;
},
{
place = "{509, 139}";
type = Stem;
},
{
horizontal = 1;
place = "{769, 210}";
type = Stem;
}
);
layerId = "C2265137-4960-4D1A-899B-D2ADBAADF5E4";
paths = (
{
closed = 1;
nodes = (
"169 0 LINE",
"519 0 LINE",
"728 209 LINE",
"728 700 LINE",
"589 700 LINE",
"589 419 LINE",
"379 419 LINE",
"240 559 LINE",
"240 700 LINE",
"100 700 LINE",
"100 489 LINE",
"309 279 LINE",
"589 279 LINE",
"449 140 LINE",
"169 140 LINE"
);
},
{
closed = 1;
nodes = (
"169 839 LINE",
"240 769 LINE",
"589 769 LINE",
"659 839 LINE",
"659 979 LINE",
"519 979 LINE",
"519 888 LINE",
"309 888 LINE",
"309 979 LINE",
"169 979 LINE"
);
}
);
width = 828;
}
);
leftMetricsKey = A;
note = afii10062;
rightMetricsKey = A;
unicode = 040E;
},
{
glyphname = "Ef-cy";
lastChange = "2023-05-28 20:48:15 +0000";
layers = (
{
hints = (
{
horizontal = 1;
place = "{0, 21}";
target = up;
type = BottomGhost;
},
{
horizontal = 1;
place = "{104, 140}";
type = Stem;
},
{
horizontal = 1;
place = "{560, 140}";
type = Stem;
},
{
horizontal = 1;
place = "{805, -20}";
target = down;
type = TopGhost;
},
{
place = "{40, 140}";
type = Stem;
},
{
place = "{389, 140}";
type = Stem;
},
{
place = "{739, 139}";
type = Stem;
}
);
layerId = "C2265137-4960-4D1A-899B-D2ADBAADF5E4";
paths = (
{
closed = 1;
nodes = (
"169 700 LINE",
"100 629 LINE",
"100 173 LINE",
"169 104 LINE",
"449 104 LINE",
"449 0 LINE",
"589 0 LINE",
"589 104 LINE",
"868 104 LINE",
"938 173 LINE",
"938 629 LINE",
"868 700 LINE",
"589 700 LINE",
"589 805 LINE",
"449 805 LINE",
"449 700 LINE"
);
},
{
closed = 1;
nodes = (
"240 244 LINE",
"240 560 LINE",
"449 560 LINE",
"449 244 LINE"
);
},
{
closed = 1;
nodes = (
"589 244 LINE",
"589 560 LINE",
"799 560 LINE",
"799 244 LINE"
);
}
);
width = 1038;
}
);
leftMetricsKey = A;
note = afii10038;
rightMetricsKey = A;
unicode = 0424;
},
{
glyphname = "Ha-cy";
lastChange = "2023-05-28 20:48:15 +0000";
layers = (
{
hints = (
{
horizontal = 1;
place = "{0, 21}";
target = up;
type = BottomGhost;
},
{
horizontal = 1;
place = "{279, 140}";
type = Stem;
},
{
horizontal = 1;
place = "{700, -20}";
target = down;
type = TopGhost;
},
{
place = "{40, 140}";
type = Stem;
},
{
place = "{529, 139}";
type = Stem;
}
);
layerId = "C2265137-4960-4D1A-899B-D2ADBAADF5E4";
paths = (
{
closed = 1;
nodes = (
"240 0 LINE",
"240 140 LINE",
"379 279 LINE",
"449 279 LINE",
"589 140 LINE",
"589 0 LINE",
"728 0 LINE",
"728 209 LINE",
"589 349 LINE",
"728 489 LINE",
"728 700 LINE",
"589 700 LINE",
"589 559 LINE",
"449 419 LINE",
"379 419 LINE",
"240 559 LINE",
"240 700 LINE",
"100 700 LINE",
"100 489 LINE",
"240 349 LINE",
"100 209 LINE",
"100 0 LINE"
);
}
);
width = 828;
}
);
leftMetricsKey = A;
note = afii10039;
rightMetricsKey = A;
unicode = 0425;
},
{
glyphname = "Che-cy";
lastChange = "2023-05-28 20:48:15 +0000";
layers = (
{
hints = (
{
horizontal = 1;
place = "{0, 21}";
target = up;
type = BottomGhost;
},
{
horizontal = 1;
place = "{279, 140}";
type = Stem;
},
{
horizontal = 1;
place = "{700, -20}";
target = down;
type = TopGhost;
},
{
place = "{40, 140}";
type = Stem;
},
{
place = "{495, 140}";
type = Stem;
}
);
layerId = "C2265137-4960-4D1A-899B-D2ADBAADF5E4";
paths = (
{
closed = 1;
nodes = (
"695 0 LINE",
"695 700 LINE",
"555 700 LINE",
"555 419 LINE",
"240 419 LINE",
"240 700 LINE",
"100 700 LINE",
"100 349 LINE",
"169 279 LINE",
"555 279 LINE",
"555 0 LINE"
);
}
);
width = 795;
}
);
leftMetricsKey = A;
note = afii10041;
rightMetricsKey = A;
unicode = 0427;
},
{
glyphname = "Tse-cy";
lastChange = "2023-05-28 20:48:15 +0000";
layers = (
{
hints = (
{
horizontal = 1;
place = "{-140, 21}";
target = up;
type = BottomGhost;
},
{
horizontal = 1;
place = "{0, 140}";
type = Stem;
},
{
horizontal = 1;
place = "{700, -20}";
target = down;
type = TopGhost;
},
{
place = "{50, 140}";
type = Stem;
},
{
place = "{609, 140}";
type = Stem;
},
{
place = "{539, 139}";
type = Stem;
}
);
layerId = "C2265137-4960-4D1A-899B-D2ADBAADF5E4";
paths = (
{
closed = 1;
nodes = (
"799 -140 LINE",
"799 140 LINE",
"728 140 LINE",
"728 700 LINE",
"589 700 LINE",
"589 140 LINE",
"240 140 LINE",
"240 700 LINE",
"100 700 LINE",
"100 0 LINE",
"659 0 LINE",
"659 -140 LINE"
);
}
);
width = 899;
}
);
leftMetricsKey = A;
note = afii10040;
rightMetricsKey = A;
unicode = 0426;
},
{
glyphname = "Sha-cy";
lastChange = "2023-05-28 20:48:15 +0000";
layers = (
{
hints = (
{
horizontal = 1;
place = "{0, 140}";
type = Stem;
},
{
horizontal = 1;
place = "{700, -20}";
target = down;
type = TopGhost;
},
{
place = "{50, 140}";
type = Stem;
},
{
place = "{399, 140}";
type = Stem;
},
{
place = "{749, 139}";
type = Stem;
}
);
layerId = "C2265137-4960-4D1A-899B-D2ADBAADF5E4";
paths = (
{
closed = 1;
nodes = (
"938 0 LINE",
"938 700 LINE",
"799 700 LINE",
"799 140 LINE",
"589 140 LINE",
"589 700 LINE",
"449 700 LINE",
"449 140 LINE",
"240 140 LINE",
"240 700 LINE",
"100 700 LINE",
"100 0 LINE"
);
}
);
width = 1038;
}
);
leftMetricsKey = A;
note = afii10042;
rightMetricsKey = A;
unicode = 0428;
},
{
glyphname = "Shcha-cy";
lastChange = "2023-05-28 20:48:15 +0000";
layers = (
{
hints = (
{
horizontal = 1;
place = "{-140, 21}";
target = up;
type = BottomGhost;
},
{
horizontal = 1;
place = "{0, 140}";
type = Stem;
},
{
horizontal = 1;
place = "{700, -20}";
target = down;
type = TopGhost;
},
{
place = "{50, 140}";
type = Stem;
},
{
place = "{399, 140}";
type = Stem;
},
{
place = "{818, 140}";
type = Stem;
},
{
place = "{749, 139}";
type = Stem;
}
);
layerId = "C2265137-4960-4D1A-899B-D2ADBAADF5E4";
paths = (
{
closed = 1;
nodes = (
"1008 -140 LINE",
"1008 140 LINE",
"938 140 LINE",
"938 700 LINE",
"799 700 LINE",
"799 140 LINE",
"589 140 LINE",
"589 700 LINE",
"449 700 LINE",
"449 140 LINE",
"240 140 LINE",
"240 700 LINE",
"100 700 LINE",
"100 0 LINE",
"868 0 LINE",
"868 -140 LINE"
);
}
);
width = 1108;
}
);
leftMetricsKey = A;
note = afii10043;
rightMetricsKey = A;
unicode = 0429;
},
{
glyphname = "Dzhe-cy";
lastChange = "2023-05-28 20:48:15 +0000";
layers = (
{
hints = (
{
horizontal = 1;
place = "{-140, 21}";
target = up;
type = BottomGhost;
},
{
horizontal = 1;
place = "{0, 140}";
type = Stem;
},
{
horizontal = 1;
place = "{700, -20}";
target = down;
type = TopGhost;
},
{
place = "{50, 140}";
type = Stem;
},
{
place = "{294, 140}";
type = Stem;
},
{
place = "{539, 139}";
type = Stem;
}
);
layerId = "C2265137-4960-4D1A-899B-D2ADBAADF5E4";
paths = (
{
closed = 1;
nodes = (
"484 -140 LINE",
"484 0 LINE",
"728 0 LINE",
"728 700 LINE",
"589 700 LINE",
"589 140 LINE",
"240 140 LINE",
"240 700 LINE",
"100 700 LINE",
"100 0 LINE",
"344 0 LINE",
"344 -140 LINE"
);
}
);
width = 828;
}
);
leftMetricsKey = A;
note = afii10145;
rightMetricsKey = A;
unicode = 040F;
},
{
glyphname = "Softsign-cy";
lastChange = "2023-05-28 20:48:15 +0000";
layers = (
{
hints = (
{
horizontal = 1;
place = "{0, 140}";
type = Stem;
},
{
horizontal = 1;
place = "{349, 140}";
type = Stem;
},
{
horizontal = 1;
place = "{700, -20}";
target = down;
type = TopGhost;
},
{
place = "{50, 140}";
type = Stem;
},
{
place = "{539, 139}";
type = Stem;
}
);
layerId = "C2265137-4960-4D1A-899B-D2ADBAADF5E4";
paths = (
{
closed = 1;
nodes = (
"240 140 LINE",
"240 349 LINE",
"589 349 LINE",
"589 140 LINE"
);
},
{
closed = 1;
nodes = (
"659 0 LINE",
"728 69 LINE",
"728 419 LINE",
"659 489 LINE",
"240 489 LINE",
"240 700 LINE",
"100 700 LINE",
"100 0 LINE"
);
}
);
width = 828;
}
);
leftMetricsKey = A;
note = afii10046;
rightMetricsKey = A;
unicode = 042C;
},
{
glyphname = "Hardsign-cy";
lastChange = "2023-05-28 20:48:15 +0000";
layers = (
{
hints = (
{
horizontal = 1;
place = "{0, 140}";
type = Stem;
},
{
horizontal = 1;
place = "{349, 140}";
type = Stem;
},
{
horizontal = 1;
place = "{560, 140}";
type = Stem;
},
{
place = "{160, 139}";
type = Stem;
},
{
place = "{648, 140}";
type = Stem;
}
);
layerId = "C2265137-4960-4D1A-899B-D2ADBAADF5E4";
paths = (
{
closed = 1;
nodes = (
"379 140 LINE",
"379 349 LINE",
"728 349 LINE",
"728 140 LINE"
);
},
{
closed = 1;
nodes = (
"799 0 LINE",
"868 69 LINE",
"868 419 LINE",
"799 489 LINE",
"379 489 LINE",
"379 700 LINE",
"100 700 LINE",
"100 560 LINE",
"240 560 LINE",
"240 0 LINE"
);
}
);
width = 968;
}
);
leftMetricsKey = A;
note = afii10044;
rightMetricsKey = A;
unicode = 042A;
},
{
glyphname = "Yeru-cy";
lastChange = "2023-05-28 20:48:15 +0000";
layers = (
{
hints = (
{
horizontal = 1;
place = "{0, 140}";
type = Stem;
},
{
horizontal = 1;
place = "{349, 140}";
type = Stem;
},
{
horizontal = 1;
place = "{700, -20}";
target = down;
type = TopGhost;
},
{
place = "{50, 140}";
type = Stem;
},
{
place = "{539, 139}";
type = Stem;
},
{
place = "{749, 139}";
type = Stem;
}
);
layerId = "C2265137-4960-4D1A-899B-D2ADBAADF5E4";
paths = (
{
closed = 1;
nodes = (
"240 140 LINE",
"240 349 LINE",
"589 349 LINE",
"589 140 LINE"
);
},
{
closed = 1;
nodes = (
"659 0 LINE",
"728 69 LINE",
"728 419 LINE",
"659 489 LINE",
"240 489 LINE",
"240 700 LINE",
"100 700 LINE",
"100 0 LINE"
);
},
{
closed = 1;
nodes = (
"938 0 LINE",
"938 700 LINE",
"799 700 LINE",
"799 0 LINE"
);
}
);
width = 1038;
}
);
leftMetricsKey = A;
note = afii10045;
rightMetricsKey = A;
unicode = 042B;
},
{
glyphname = "Lje-cy";
lastChange = "2023-05-28 20:48:15 +0000";
layers = (
{
hints = (
{
horizontal = 1;
place = "{0, 140}";
type = Stem;
},
{
horizontal = 1;
place = "{349, 140}";
type = Stem;
},
{
horizontal = 1;
place = "{560, 140}";
type = Stem;
},
{
place = "{40, 140}";
type = Stem;
},
{
place = "{479, 139}";
type = Stem;
},
{
place = "{917, 139}";
type = Stem;
}
);
layerId = "C2265137-4960-4D1A-899B-D2ADBAADF5E4";
paths = (
{
closed = 1;
nodes = (
"1047 0 LINE",
"1116 69 LINE",
"1116 419 LINE",
"1047 489 LINE",
"678 489 LINE",
"678 700 LINE",
"309 700 LINE",
"100 490 LINE",
"100 0 LINE",
"240 0 LINE",
"240 420 LINE",
"379 560 LINE",
"539 560 LINE",
"539 0 LINE"
);
},
{
closed = 1;
nodes = (
"678 140 LINE",
"678 349 LINE",
"977 349 LINE",
"977 140 LINE"
);
}
);
width = 1216;
}
);
leftMetricsKey = A;
note = afii10058;
rightMetricsKey = A;
unicode = 0409;
},
{
glyphname = "Nje-cy";
lastChange = "2023-05-28 20:48:15 +0000";
layers = (
{
hints = (
{
horizontal = 1;
place = "{0, 140}";
type = Stem;
},
{
horizontal = 1;
place = "{310, 140}";
type = Stem;
},
{
horizontal = 1;
place = "{700, -20}";
target = down;
type = TopGhost;
},
{
place = "{50, 140}";
type = Stem;
},
{
place = "{489, 139}";
type = Stem;
},
{
place = "{927, 139}";
type = Stem;
}
);
layerId = "C2265137-4960-4D1A-899B-D2ADBAADF5E4";
paths = (
{
closed = 1;
nodes = (
"240 0 LINE",
"240 310 LINE",
"539 310 LINE",
"539 0 LINE",
"1047 0 LINE",
"1116 69 LINE",
"1116 380 LINE",
"1047 450 LINE",
"678 450 LINE",
"678 700 LINE",
"539 700 LINE",
"539 450 LINE",
"240 450 LINE",
"240 700 LINE",
"100 700 LINE",
"100 0 LINE"
);
},
{
closed = 1;
nodes = (
"678 140 LINE",
"678 310 LINE",
"977 310 LINE",
"977 140 LINE"
);
}
);
width = 1216;
}
);
leftMetricsKey = A;
note = afii10059;
rightMetricsKey = A;
unicode = 040A;
},
{
glyphname = "Dze-cy";
lastChange = "2023-05-28 20:48:15 +0000";
layers = (
{
hints = (
{
horizontal = 1;
place = "{0, 140}";
type = Stem;
},
{
horizontal = 1;
place = "{279, 141}";
type = Stem;
},
{
horizontal = 1;
place = "{560, 140}";
type = Stem;
},
{
place = "{50, 140}";
type = Stem;
},
{
place = "{539, 139}";
type = Stem;
},
{
horizontal = 1;
place = "{490, 210}";
type = Stem;
}
);
layerId = "C2265137-4960-4D1A-899B-D2ADBAADF5E4";
paths = (
{
closed = 1;
nodes = (
"659 0 LINE",
"728 69 LINE",
"728 350 LINE",
"659 420 LINE",
"240 420 LINE",
"240 560 LINE",
"589 560 LINE",
"589 490 LINE",
"728 490 LINE",
"728 629 LINE",
"659 700 LINE",
"169 700 LINE",
"100 629 LINE",
"100 329 LINE",
"169 279 LINE",
"589 279 LINE",
"589 140 LINE",
"240 140 LINE",
"240 209 LINE",
"100 209 LINE",
"100 69 LINE",
"169 0 LINE"
);
}
);
width = 828;
}
);
leftMetricsKey = A;
note = afii10054;
rightMetricsKey = A;
unicode = 0405;
},
{
glyphname = "E-cy";
lastChange = "2023-05-28 20:48:15 +0000";
layers = (
{
hints = (
{
horizontal = 1;
place = "{0, 209}";
type = Stem;
},
{
horizontal = 1;
place = "{279, 140}";
type = Stem;
},
{
horizontal = 1;
place = "{490, 210}";
type = Stem;
},
{
place = "{50, 139}";
type = Stem;
},
{
place = "{538, 140}";
type = Stem;
},
{
horizontal = 1;
place = "{0, 140}";
type = Stem;
},
{
horizontal = 1;
place = "{560, 140}";
type = Stem;
}
);
layerId = "C2265137-4960-4D1A-899B-D2ADBAADF5E4";
paths = (
{
closed = 1;
nodes = (
"659 0 LINE",
"728 69 LINE",
"728 209 LINE",
"588 209 LINE",
"588 140 LINE",
"239 140 LINE",
"239 279 LINE",
"519 279 LINE",
"519 419 LINE",
"239 419 LINE",
"239 560 LINE",
"588 560 LINE",
"588 490 LINE",
"728 490 LINE",
"728 629 LINE",
"659 700 LINE",
"169 700 LINE",
"100 629 LINE",
"100 69 LINE",
"169 0 LINE"
);
}
);
width = 828;
}
);
leftMetricsKey = A;
note = afii10053;
rightMetricsKey = A;
unicode = 0404;
},
{
glyphname = "Ereversed-cy";
lastChange = "2023-05-28 20:48:15 +0000";
layers = (
{
hints = (
{
horizontal = 1;
place = "{0, 140}";
type = Stem;
},
{
horizontal = 1;
place = "{279, 140}";
type = Stem;
},
{
horizontal = 1;
place = "{490, 210}";
type = Stem;
},
{
place = "{40, 140}";
type = Stem;
},
{
place = "{529, 139}";
type = Stem;
},
{
horizontal = 1;
place = "{560, 140}";
type = Stem;
}
);
layerId = "C2265137-4960-4D1A-899B-D2ADBAADF5E4";
paths = (
{
closed = 1;
nodes = (
"659 0 LINE",
"728 69 LINE",
"728 629 LINE",
"659 700 LINE",
"169 700 LINE",
"100 629 LINE",
"100 490 LINE",
"240 490 LINE",
"240 560 LINE",
"589 560 LINE",
"589 419 LINE",
"309 419 LINE",
"309 279 LINE",
"589 279 LINE",
"589 140 LINE",
"240 140 LINE",
"240 209 LINE",
"100 209 LINE",
"100 69 LINE",
"169 0 LINE"
);
}
);
width = 828;
}
);
leftMetricsKey = A;
note = afii10047;
rightMetricsKey = A;
unicode = 042D;
},
{
glyphname = "I-cy";
lastChange = "2023-05-28 20:48:15 +0000";
layers = (
{
hints = (
{
horizontal = 1;
place = "{0, 21}";
target = up;
type = BottomGhost;
},
{
horizontal = 1;
place = "{700, -20}";
target = down;
type = TopGhost;
},
{
place = "{50, 140}";
type = Stem;
}
);
layerId = "C2265137-4960-4D1A-899B-D2ADBAADF5E4";
paths = (
{
closed = 1;
nodes = (
"240 0 LINE",
"240 700 LINE",
"100 700 LINE",
"100 0 LINE"
);
}
);
width = 340;
}
);
leftMetricsKey = A;
note = afii10055;
rightMetricsKey = A;
unicode = 0406;
},
{
glyphname = "Yi-cy";
lastChange = "2023-05-28 20:48:15 +0000";
layers = (
{
hints = (
{
horizontal = 1;
place = "{0, 21}";
target = up;
type = BottomGhost;
},
{
horizontal = 1;
place = "{700, -20}";
target = down;
type = TopGhost;
},
{
horizontal = 1;
place = "{770, 140}";
type = Stem;
},
{
place = "{72, 140}";
type = Stem;
},
{
place = "{-50, 140}";
type = Stem;
},
{
place = "{194, 140}";
type = Stem;
}
);
layerId = "C2265137-4960-4D1A-899B-D2ADBAADF5E4";
paths = (
{
closed = 1;
nodes = (
"362 0 LINE",
"362 700 LINE",
"222 700 LINE",
"222 0 LINE"
);
},
{
closed = 1;
nodes = (
"100 770 LINE",
"240 770 LINE",
"240 910 LINE",
"100 910 LINE"
);
},
{
closed = 1;
nodes = (
"344 770 LINE",
"484 770 LINE",
"484 910 LINE",
"344 910 LINE"
);
}
);
width = 584;
}
);
leftMetricsKey = A;
note = afii10056;
rightMetricsKey = A;
unicode = 0407;
},
{
glyphname = "Je-cy";
lastChange = "2023-05-28 20:48:15 +0000";
layers = (
{
hints = (
{
horizontal = 1;
place = "{0, 140}";
type = Stem;
},
{
horizontal = 1;
place = "{560, 140}";
type = Stem;
},
{
place = "{20, 140}";
type = Stem;
},
{
place = "{509, 139}";
type = Stem;
}
);
layerId = "C2265137-4960-4D1A-899B-D2ADBAADF5E4";
paths = (
{
closed = 1;
nodes = (
"449 140 LINE",
"379 140 LINE",
"240 279 LINE",
"240 349 LINE",
"100 349 LINE",
"100 209 LINE",
"309 0 LINE",
"519 0 LINE",
"728 209 LINE",
"728 700 LINE",
"379 700 LINE",
"379 560 LINE",
"589 560 LINE",
"589 279 LINE"
);
}
);
width = 828;
}
);
leftMetricsKey = A;
note = afii10057;
rightMetricsKey = A;
unicode = 0408;
},
{
glyphname = "Tshe-cy";
lastChange = "2023-05-28 20:48:15 +0000";
layers = (
{
hints = (
{
horizontal = 1;
place = "{0, 21}";
target = up;
type = BottomGhost;
},
{
horizontal = 1;
place = "{268, 140}";
type = Stem;
},
{
horizontal = 1;
place = "{560, 140}";
type = Stem;
},
{
place = "{185, 140}";
type = Stem;
},
{
place = "{674, 139}";
type = Stem;
}
);
layerId = "C2265137-4960-4D1A-899B-D2ADBAADF5E4";
paths = (
{
closed = 1;
nodes = (
"100 700 LINE",
"100 560 LINE",
"265 560 LINE",
"265 0 LINE",
"405 0 LINE",
"405 268 LINE",
"754 268 LINE",
"754 0 LINE",
"893 0 LINE",
"893 338 LINE",
"824 408 LINE",
"405 408 LINE",
"405 560 LINE",
"665 560 LINE",
"665 700 LINE"
);
}
);
width = 993;
}
);
leftMetricsKey = A;
note = afii10060;
rightMetricsKey = A;
unicode = 040B;
},
{
glyphname = "Iu-cy";
lastChange = "2023-05-28 20:48:15 +0000";
layers = (
{
hints = (
{
horizontal = 1;
place = "{0, 140}";
type = Stem;
},
{
horizontal = 1;
place = "{279, 140}";
type = Stem;
},
{
horizontal = 1;
place = "{560, 140}";
type = Stem;
},
{
place = "{50, 140}";
type = Stem;
},
{
place = "{329, 140}";
type = Stem;
},
{
place = "{749, 139}";
type = Stem;
}
);
layerId = "C2265137-4960-4D1A-899B-D2ADBAADF5E4";
paths = (
{
closed = 1;
nodes = (
"519 140 LINE",
"519 560 LINE",
"799 560 LINE",
"799 140 LINE"
);
},
{
closed = 1;
nodes = (
"240 0 LINE",
"240 279 LINE",
"379 279 LINE",
"379 69 LINE",
"449 0 LINE",
"868 0 LINE",
"938 69 LINE",
"938 629 LINE",
"868 700 LINE",
"449 700 LINE",
"379 629 LINE",
"379 419 LINE",
"240 419 LINE",
"240 700 LINE",
"100 700 LINE",
"100 0 LINE"
);
}
);
width = 1038;
}
);
leftMetricsKey = A;
note = afii10048;
rightMetricsKey = A;
unicode = 042E;
},
{
glyphname = "Ia-cy";
lastChange = "2023-05-28 20:48:15 +0000";
layers = (
{
hints = (
{
horizontal = 1;
place = "{0, 21}";
target = up;
type = BottomGhost;
},
{
horizontal = 1;
place = "{209, 140}";
type = Stem;
},
{
horizontal = 1;
place = "{560, 140}";
type = Stem;
},
{
place = "{50, 140}";
type = Stem;
},
{
place = "{539, 139}";
type = Stem;
}
);
layerId = "C2265137-4960-4D1A-899B-D2ADBAADF5E4";
paths = (
{
closed = 1;
nodes = (
"240 349 LINE",
"240 560 LINE",
"589 560 LINE",
"589 349 LINE"
);
},
{
closed = 1;
nodes = (
"240 0 LINE",
"240 69 LINE",
"379 209 LINE",
"589 209 LINE",
"589 0 LINE",
"728 0 LINE",
"728 700 LINE",
"169 700 LINE",
"100 629 LINE",
"100 279 LINE",
"169 209 LINE",
"100 140 LINE",
"100 0 LINE"
);
}
);
width = 828;
}
);
leftMetricsKey = A;
note = afii10049;
rightMetricsKey = A;
unicode = 042F;
},
{
glyphname = "Dje-cy";
lastChange = "2023-05-28 20:48:15 +0000";
layers = (
{
hints = (
{
horizontal = 1;
place = "{0, 140}";
type = Stem;
},
{
horizontal = 1;
place = "{268, 140}";
type = Stem;
},
{
horizontal = 1;
place = "{560, 140}";
type = Stem;
},
{
place = "{185, 140}";
type = Stem;
},
{
place = "{674, 139}";
type = Stem;
},
{
place = "{575, 238}";
type = Stem;
}
);
layerId = "C2265137-4960-4D1A-899B-D2ADBAADF5E4";
paths = (
{
closed = 1;
nodes = (
"100 700 LINE",
"100 560 LINE",
"265 560 LINE",
"265 0 LINE",
"405 0 LINE",
"405 268 LINE",
"754 268 LINE",
"754 140 LINE",
"655 140 LINE",
"655 0 LINE",
"825 0 LINE",
"893 70 LINE",
"893 338 LINE",
"824 408 LINE",
"405 408 LINE",
"405 560 LINE",
"665 560 LINE",
"665 700 LINE"
);
}
);
width = 993;
}
);
leftMetricsKey = A;
note = afii10051;
rightMetricsKey = A;
unicode = 0402;
},
{
glyphname = "Ghestroke-cy";
lastChange = "2023-05-28 20:48:15 +0000";
layers = (
{
layerId = "C2265137-4960-4D1A-899B-D2ADBAADF5E4";
paths = (
{
closed = 1;
nodes = (
"306 0 LINE",
"306 279 LINE",
"589 279 LINE",
"589 419 LINE",
"306 419 LINE",
"306 560 LINE",
"766 560 LINE",
"766 700 LINE",
"166 700 LINE",
"166 419 LINE",
"100 419 LINE",
"100 279 LINE",
"166 279 LINE",
"166 0 LINE"
);
}
);
width = 866;
}
);
leftMetricsKey = A;
note = uni0492;
rightMetricsKey = A;
unicode = 0492;
},
{
glyphname = "Kadescender-cy";
lastChange = "2023-05-28 20:48:15 +0000";
layers = (
{
hints = (
{
horizontal = 1;
place = "{-140, 21}";
target = up;
type = BottomGhost;
},
{
horizontal = 1;
place = "{0, -20}";
target = down;
type = TopGhost;
},
{
horizontal = 1;
place = "{279, 140}";
type = Stem;
},
{
horizontal = 1;
place = "{700, -20}";
target = down;
type = TopGhost;
},
{
place = "{50, 140}";
type = Stem;
},
{
place = "{539, 139}";
type = Stem;
},
{
place = "{609, 140}";
type = Stem;
}
);
layerId = "C2265137-4960-4D1A-899B-D2ADBAADF5E4";
paths = (
{
closed = 1;
nodes = (
"240 0 LINE",
"240 279 LINE",
"449 279 LINE",
"589 140 LINE",
"589 0 LINE",
"659 0 LINE",
"659 -140 LINE",
"799 -140 LINE",
"799 140 LINE",
"728 140 LINE",
"728 209 LINE",
"589 349 LINE",
"728 489 LINE",
"728 700 LINE",
"589 700 LINE",
"589 559 LINE",
"449 419 LINE",
"240 419 LINE",
"240 700 LINE",
"100 700 LINE",
"100 0 LINE"
);
}
);
width = 899;
}
);
leftMetricsKey = A;
note = uni049A;
rightMetricsKey = A;
unicode = 049A;
},
{
glyphname = "Endescender-cy";
lastChange = "2023-05-28 20:48:15 +0000";
layers = (
{
hints = (
{
horizontal = 1;
place = "{-140, 21}";
target = up;
type = BottomGhost;
},
{
horizontal = 1;
place = "{0, -20}";
target = down;
type = TopGhost;
},
{
horizontal = 1;
place = "{279, 140}";
type = Stem;
},
{
horizontal = 1;
place = "{700, -20}";
target = down;
type = TopGhost;
},
{
place = "{50, 140}";
type = Stem;
},
{
place = "{539, 139}";
type = Stem;
},
{
place = "{609, 140}";
type = Stem;
}
);
layerId = "C2265137-4960-4D1A-899B-D2ADBAADF5E4";
paths = (
{
closed = 1;
nodes = (
"240 0 LINE",
"240 279 LINE",
"589 279 LINE",
"589 0 LINE",
"659 0 LINE",
"659 -140 LINE",
"799 -140 LINE",
"799 140 LINE",
"728 140 LINE",
"728 700 LINE",
"589 700 LINE",
"589 419 LINE",
"240 419 LINE",
"240 700 LINE",
"100 700 LINE",
"100 0 LINE"
);
}
);
width = 899;
}
);
leftMetricsKey = A;
note = uni04A2;
rightMetricsKey = A;
unicode = 04A2;
},
{
glyphname = "Ustraight-cy";
lastChange = "2023-05-28 20:48:15 +0000";
layers = (
{
hints = (
{
horizontal = 1;
place = "{0, 21}";
target = up;
type = BottomGhost;
},
{
horizontal = 1;
place = "{700, -20}";
target = down;
type = TopGhost;
},
{
place = "{30, 140}";
type = Stem;
},
{
place = "{275, 139}";
type = Stem;
},
{
place = "{519, 139}";
type = Stem;
}
);
layerId = "C2265137-4960-4D1A-899B-D2ADBAADF5E4";
paths = (
{
closed = 1;
nodes = (
"484 0 LINE",
"484 264 LINE",
"728 439 LINE",
"728 700 LINE",
"589 700 LINE",
"589 498 LINE",
"413 380 LINE",
"240 498 LINE",
"240 700 LINE",
"100 700 LINE",
"100 439 LINE",
"345 264 LINE",
"345 0 LINE"
);
}
);
width = 828;
}
);
leftMetricsKey = A;
note = uni04AE;
rightMetricsKey = A;
unicode = 04AE;
},
{
glyphname = "Ustraightstroke-cy";
lastChange = "2023-05-28 20:48:15 +0000";
layers = (
{
hints = (
{
horizontal = 1;
place = "{0, 21}";
target = up;
type = BottomGhost;
},
{
horizontal = 1;
place = "{140, 139}";
type = Stem;
},
{
horizontal = 1;
place = "{700, -20}";
target = down;
type = TopGhost;
},
{
place = "{30, 140}";
type = Stem;
},
{
place = "{275, 139}";
type = Stem;
},
{
place = "{519, 139}";
type = Stem;
}
);
layerId = "C2265137-4960-4D1A-899B-D2ADBAADF5E4";
paths = (
{
closed = 1;
nodes = (
"659 140 LINE",
"659 279 LINE",
"505 279 LINE",
"728 439 LINE",
"728 700 LINE",
"589 700 LINE",
"589 498 LINE",
"413 380 LINE",
"240 498 LINE",
"240 700 LINE",
"100 700 LINE",
"100 439 LINE",
"323 279 LINE",
"169 279 LINE",
"169 140 LINE",
"345 140 LINE",
"345 0 LINE",
"484 0 LINE",
"484 140 LINE"
);
}
);
width = 828;
}
);
leftMetricsKey = A;
note = uni04B0;
rightMetricsKey = A;
unicode = 04B0;
},
{
glyphname = "Shha-cy";
lastChange = "2023-05-28 20:48:15 +0000";
layers = (
{
hints = (
{
horizontal = 1;
place = "{0, 21}";
target = up;
type = BottomGhost;
},
{
horizontal = 1;
place = "{348, 140}";
type = Stem;
},
{
horizontal = 1;
place = "{700, -20}";
target = down;
type = TopGhost;
},
{
place = "{50, 140}";
type = Stem;
},
{
place = "{539, 139}";
type = Stem;
}
);
layerId = "C2265137-4960-4D1A-899B-D2ADBAADF5E4";
paths = (
{
closed = 1;
nodes = (
"100 700 LINE",
"100 0 LINE",
"240 0 LINE",
"240 348 LINE",
"589 348 LINE",
"589 0 LINE",
"728 0 LINE",
"728 418 LINE",
"659 488 LINE",
"240 488 LINE",
"240 700 LINE"
);
}
);
width = 828;
}
);
leftMetricsKey = A;
note = uni04BA;
rightMetricsKey = A;
unicode = 04BA;
},
{
glyphname = "Schwa-cy";
lastChange = "2023-05-28 20:48:15 +0000";
layers = (
{
hints = (
{
horizontal = 1;
place = "{0, 140}";
type = Stem;
},
{
horizontal = 1;
place = "{279, 140}";
type = Stem;
},
{
horizontal = 1;
place = "{490, 210}";
type = Stem;
},
{
place = "{50, 140}";
type = Stem;
},
{
place = "{539, 139}";
type = Stem;
},
{
horizontal = 1;
place = "{560, 140}";
type = Stem;
}
);
layerId = "C2265137-4960-4D1A-899B-D2ADBAADF5E4";
paths = (
{
closed = 1;
nodes = (
"100 69 LINE",
"169 0 LINE",
"659 0 LINE",
"728 69 LINE",
"728 629 LINE",
"659 700 LINE",
"169 700 LINE",
"100 629 LINE",
"100 490 LINE",
"240 490 LINE",
"240 560 LINE",
"589 560 LINE",
"589 419 LINE",
"100 419 LINE"
);
},
{
closed = 1;
nodes = (
"589 279 LINE",
"589 140 LINE",
"240 140 LINE",
"240 279 LINE"
);
}
);
width = 828;
}
);
leftMetricsKey = A;
note = uni04D8;
rightMetricsKey = A;
unicode = 04D8;
},
{
glyphname = "Obarred-cy";
lastChange = "2023-05-28 20:48:15 +0000";
layers = (
{
hints = (
{
horizontal = 1;
place = "{0, 140}";
type = Stem;
},
{
horizontal = 1;
place = "{297, 108}";
type = Stem;
},
{
horizontal = 1;
place = "{560, 140}";
type = Stem;
},
{
place = "{50, 140}";
type = Stem;
},
{
place = "{571, 140}";
type = Stem;
}
);
layerId = "C2265137-4960-4D1A-899B-D2ADBAADF5E4";
paths = (
{
closed = 1;
nodes = (
"692 0 LINE",
"761 69 LINE",
"761 629 LINE",
"692 700 LINE",
"169 700 LINE",
"100 629 LINE",
"100 69 LINE",
"169 0 LINE"
);
},
{
closed = 1;
nodes = (
"240 560 LINE",
"621 560 LINE",
"621 405 LINE",
"240 405 LINE"
);
},
{
closed = 1;
nodes = (
"621 140 LINE",
"240 140 LINE",
"240 297 LINE",
"621 297 LINE"
);
}
);
width = 861;
}
);
leftMetricsKey = A;
note = uni04E8;
rightMetricsKey = A;
unicode = 04E8;
},
{
glyphname = "a-cy";
lastChange = "2023-05-28 20:48:15 +0000";
layers = (
{
hints = (
{
horizontal = 1;
place = "{0, 21}";
target = up;
type = BottomGhost;
},
{
horizontal = 1;
place = "{209, 140}";
type = Stem;
},
{
horizontal = 1;
place = "{560, 140}";
type = Stem;
},
{
place = "{40, 140}";
type = Stem;
},
{
place = "{529, 139}";
type = Stem;
}
);
layerId = "C2265137-4960-4D1A-899B-D2ADBAADF5E4";
paths = (
{
closed = 1;
nodes = (
"240 349 LINE",
"240 419 LINE",
"379 560 LINE",
"589 560 LINE",
"589 349 LINE"
);
},
{
closed = 1;
nodes = (
"240 0 LINE",
"240 209 LINE",
"589 209 LINE",
"589 0 LINE",
"728 0 LINE",
"728 700 LINE",
"309 700 LINE",
"100 489 LINE",
"100 0 LINE"
);
}
);
width = 828;
}
);
leftMetricsKey = A;
note = afii10065;
rightMetricsKey = A;
unicode = 0430;
},
{
glyphname = "be-cy";
lastChange = "2023-05-28 20:48:15 +0000";
layers = (
{
hints = (
{
horizontal = 1;
place = "{0, 140}";
type = Stem;
},
{
horizontal = 1;
place = "{279, 140}";
type = Stem;
},
{
horizontal = 1;
place = "{560, 140}";
type = Stem;
},
{
place = "{50, 140}";
type = Stem;
},
{
place = "{539, 139}";
type = Stem;
}
);
layerId = "C2265137-4960-4D1A-899B-D2ADBAADF5E4";
paths = (
{
closed = 1;
nodes = (
"240 140 LINE",
"240 279 LINE",
"589 279 LINE",
"589 140 LINE"
);
},
{
closed = 1;
nodes = (
"659 0 LINE",
"728 69 LINE",
"728 349 LINE",
"659 419 LINE",
"240 419 LINE",
"240 560 LINE",
"694 560 LINE",
"694 700 LINE",
"100 700 LINE",
"100 0 LINE"
);
}
);
width = 828;
}
);
leftMetricsKey = A;
note = afii10066;
rightMetricsKey = A;
unicode = 0431;
},
{
glyphname = "ve-cy";
lastChange = "2023-05-28 20:48:15 +0000";
layers = (
{
hints = (
{
horizontal = 1;
place = "{0, 140}";
type = Stem;
},
{
horizontal = 1;
place = "{279, 140}";
type = Stem;
},
{
horizontal = 1;
place = "{560, 140}";
type = Stem;
},
{
place = "{50, 140}";
type = Stem;
},
{
place = "{539, 139}";
type = Stem;
}
);
layerId = "C2265137-4960-4D1A-899B-D2ADBAADF5E4";
paths = (
{
closed = 1;
nodes = (
"240 140 LINE",
"240 279 LINE",
"589 279 LINE",
"589 140 LINE"
);
},
{
closed = 1;
nodes = (
"240 419 LINE",
"240 560 LINE",
"589 560 LINE",
"589 419 LINE"
);
},
{
closed = 1;
nodes = (
"659 0 LINE",
"728 69 LINE",
"728 279 LINE",
"659 349 LINE",
"728 419 LINE",
"728 629 LINE",
"659 700 LINE",
"100 700 LINE",
"100 0 LINE"
);
}
);
width = 828;
}
);
leftMetricsKey = A;
note = afii10067;
rightMetricsKey = A;
unicode = 0432;
},
{
glyphname = "ge-cy";
lastChange = "2023-05-28 20:48:15 +0000";
layers = (
{
hints = (
{
horizontal = 1;
place = "{0, 21}";
target = up;
type = BottomGhost;
},
{
horizontal = 1;
place = "{560, 140}";
type = Stem;
},
{
place = "{50, 140}";
type = Stem;
}
);
layerId = "C2265137-4960-4D1A-899B-D2ADBAADF5E4";
paths = (
{
closed = 1;
nodes = (
"240 0 LINE",
"240 560 LINE",
"694 560 LINE",
"694 700 LINE",
"100 700 LINE",
"100 0 LINE"
);
}
);
width = 794;
}
);
leftMetricsKey = A;
note = afii10068;
rightMetricsKey = A;
unicode = 0433;
},
{
glyphname = "gje-cy";
lastChange = "2023-05-28 20:48:15 +0000";
layers = (
{
hints = (
{
horizontal = 1;
place = "{0, 21}";
target = up;
type = BottomGhost;
},
{
horizontal = 1;
place = "{560, 140}";
type = Stem;
},
{
horizontal = 1;
place = "{940, -20}";
target = down;
type = TopGhost;
},
{
place = "{50, 140}";
type = Stem;
}
);
layerId = "C2265137-4960-4D1A-899B-D2ADBAADF5E4";
paths = (
{
closed = 1;
nodes = (
"240 0 LINE",
"240 560 LINE",
"694 560 LINE",
"694 700 LINE",
"100 700 LINE",
"100 0 LINE"
);
},
{
closed = 1;
nodes = (
"470 940 LINE",
"320 750 LINE",
"460 750 LINE",
"620 940 LINE"
);
}
);
width = 794;
}
);
leftMetricsKey = A;
note = afii10100;
rightMetricsKey = A;
unicode = 0453;
},
{
glyphname = "gheupturn-cy";
lastChange = "2023-05-28 20:48:15 +0000";
layers = (
{
hints = (
{
horizontal = 1;
place = "{0, 21}";
target = up;
type = BottomGhost;
},
{
horizontal = 1;
place = "{560, 210}";
type = Stem;
},
{
place = "{50, 140}";
type = Stem;
},
{
place = "{504, 140}";
type = Stem;
}
);
layerId = "C2265137-4960-4D1A-899B-D2ADBAADF5E4";
paths = (
{
closed = 1;
nodes = (
"694 560 LINE",
"694 770 LINE",
"554 770 LINE",
"554 700 LINE",
"100 700 LINE",
"100 0 LINE",
"240 0 LINE",
"240 560 LINE"
);
}
);
width = 794;
}
);
leftMetricsKey = A;
note = afii10098;
rightMetricsKey = A;
unicode = 0491;
},
{
glyphname = "de-cy";
lastChange = "2023-05-28 20:48:15 +0000";
layers = (
{
hints = (
{
horizontal = 1;
place = "{-140, 21}";
target = up;
type = BottomGhost;
},
{
horizontal = 1;
place = "{0, 140}";
type = Stem;
},
{
horizontal = 1;
place = "{560, 140}";
type = Stem;
},
{
place = "{79, 140}";
type = Stem;
},
{
place = "{499, 139}";
type = Stem;
},
{
place = "{10, 140}";
type = Stem;
},
{
place = "{569, 140}";
type = Stem;
}
);
layerId = "C2265137-4960-4D1A-899B-D2ADBAADF5E4";
paths = (
{
closed = 1;
nodes = (
"309 140 LINE",
"309 420 LINE",
"449 560 LINE",
"589 560 LINE",
"589 140 LINE"
);
},
{
closed = 1;
nodes = (
"240 -140 LINE",
"240 0 LINE",
"659 0 LINE",
"659 -140 LINE",
"799 -140 LINE",
"799 140 LINE",
"728 140 LINE",
"728 700 LINE",
"379 700 LINE",
"169 490 LINE",
"169 140 LINE",
"100 140 LINE",
"100 -140 LINE"
);
}
);
width = 899;
}
);
leftMetricsKey = A;
note = afii10069;
rightMetricsKey = A;
unicode = 0434;
},
{
glyphname = "ie-cy";
lastChange = "2023-05-28 20:48:15 +0000";
layers = (
{
hints = (
{
horizontal = 1;
place = "{0, 140}";
type = Stem;
},
{
horizontal = 1;
place = "{279, 140}";
type = Stem;
},
{
horizontal = 1;
place = "{560, 140}";
type = Stem;
},
{
place = "{50, 140}";
type = Stem;
}
);
layerId = "C2265137-4960-4D1A-899B-D2ADBAADF5E4";
paths = (
{
closed = 1;
nodes = (
"694 0 LINE",
"694 140 LINE",
"240 140 LINE",
"240 279 LINE",
"659 279 LINE",
"659 419 LINE",
"240 419 LINE",
"240 560 LINE",
"694 560 LINE",
"694 700 LINE",
"100 700 LINE",
"100 0 LINE"
);
}
);
width = 794;
}
);
leftMetricsKey = A;
note = afii10070;
rightMetricsKey = A;
unicode = 0435;
},
{
glyphname = "io-cy";
lastChange = "2023-05-28 20:48:15 +0000";
layers = (
{
hints = (
{
horizontal = 1;
place = "{0, 140}";
type = Stem;
},
{
horizontal = 1;
place = "{279, 140}";
type = Stem;
},
{
horizontal = 1;
place = "{560, 140}";
type = Stem;
},
{
horizontal = 1;
place = "{769, 140}";
type = Stem;
},
{
place = "{155, 140}";
type = Stem;
},
{
place = "{399, 140}";
type = Stem;
},
{
place = "{50, 140}";
type = Stem;
}
);
layerId = "C2265137-4960-4D1A-899B-D2ADBAADF5E4";
paths = (
{
closed = 1;
nodes = (
"205 769 LINE",
"345 769 LINE",
"345 909 LINE",
"205 909 LINE"
);
},
{
closed = 1;
nodes = (
"449 769 LINE",
"589 769 LINE",
"589 909 LINE",
"449 909 LINE"
);
},
{
closed = 1;
nodes = (
"694 0 LINE",
"694 140 LINE",
"240 140 LINE",
"240 279 LINE",
"659 279 LINE",
"659 419 LINE",
"240 419 LINE",
"240 560 LINE",
"694 560 LINE",
"694 700 LINE",
"100 700 LINE",
"100 0 LINE"
);
}
);
width = 794;
}
);
leftMetricsKey = A;
note = afii10071;
rightMetricsKey = A;
unicode = 0451;
},
{
glyphname = "zhe-cy";
lastChange = "2023-05-28 20:48:15 +0000";
layers = (
{
hints = (
{
horizontal = 1;
place = "{0, 21}";
target = up;
type = BottomGhost;
},
{
horizontal = 1;
place = "{279, 140}";
type = Stem;
},
{
horizontal = 1;
place = "{700, -20}";
target = down;
type = TopGhost;
},
{
place = "{40, 140}";
type = Stem;
},
{
place = "{389, 140}";
type = Stem;
},
{
place = "{739, 139}";
type = Stem;
}
);
layerId = "C2265137-4960-4D1A-899B-D2ADBAADF5E4";
paths = (
{
closed = 1;
nodes = (
"240 0 LINE",
"240 140 LINE",
"379 279 LINE",
"449 279 LINE",
"449 0 LINE",
"589 0 LINE",
"589 279 LINE",
"659 279 LINE",
"799 140 LINE",
"799 0 LINE",
"938 0 LINE",
"938 209 LINE",
"799 349 LINE",
"938 489 LINE",
"938 700 LINE",
"799 700 LINE",
"799 559 LINE",
"659 419 LINE",
"589 419 LINE",
"589 700 LINE",
"449 700 LINE",
"449 419 LINE",
"379 419 LINE",
"240 559 LINE",
"240 700 LINE",
"100 700 LINE",
"100 489 LINE",
"240 349 LINE",
"100 209 LINE",
"100 0 LINE"
);
}
);
width = 1038;
}
);
leftMetricsKey = A;
note = afii10072;
rightMetricsKey = A;
unicode = 0436;
},
{
glyphname = "ze-cy";
lastChange = "2023-05-28 20:48:15 +0000";
layers = (
{
hints = (
{
horizontal = 1;
place = "{0, 140}";
type = Stem;
},
{
horizontal = 1;
place = "{279, 140}";
type = Stem;
},
{
horizontal = 1;
place = "{490, 210}";
type = Stem;
},
{
place = "{30, 140}";
type = Stem;
},
{
place = "{519, 139}";
type = Stem;
},
{
horizontal = 1;
place = "{560, 140}";
type = Stem;
}
);
layerId = "C2265137-4960-4D1A-899B-D2ADBAADF5E4";
paths = (
{
closed = 1;
nodes = (
"659 0 LINE",
"728 69 LINE",
"728 279 LINE",
"659 349 LINE",
"728 419 LINE",
"728 629 LINE",
"659 700 LINE",
"169 700 LINE",
"100 629 LINE",
"100 490 LINE",
"240 490 LINE",
"240 560 LINE",
"589 560 LINE",
"589 419 LINE",
"379 419 LINE",
"379 279 LINE",
"589 279 LINE",
"589 140 LINE",
"240 140 LINE",
"240 209 LINE",
"100 209 LINE",
"100 69 LINE",
"169 0 LINE"
);
}
);
width = 828;
}
);
leftMetricsKey = A;
note = afii10073;
rightMetricsKey = A;
unicode = 0437;
},
{
glyphname = "ii-cy";
lastChange = "2023-05-28 20:48:15 +0000";
layers = (
{
hints = (
{
horizontal = 1;
place = "{0, 21}";
target = up;
type = BottomGhost;
},
{
horizontal = 1;
place = "{700, -20}";
target = down;
type = TopGhost;
},
{
place = "{50, 140}";
type = Stem;
},
{
place = "{539, 139}";
type = Stem;
}
);
layerId = "C2265137-4960-4D1A-899B-D2ADBAADF5E4";
paths = (
{
closed = 1;
nodes = (
"240 0 LINE",
"589 467 LINE",
"589 0 LINE",
"728 0 LINE",
"728 700 LINE",
"589 700 LINE",
"240 234 LINE",
"240 700 LINE",
"100 700 LINE",
"100 0 LINE"
);
}
);
width = 828;
}
);
leftMetricsKey = A;
note = afii10074;
rightMetricsKey = A;
unicode = 0438;
},
{
glyphname = "iishort-cy";
lastChange = "2023-05-28 20:48:15 +0000";
layers = (
{
hints = (
{
horizontal = 1;
place = "{0, 21}";
target = up;
type = BottomGhost;
},
{
horizontal = 1;
place = "{700, -20}";
target = down;
type = TopGhost;
},
{
horizontal = 1;
place = "{769, 119}";
type = Stem;
},
{
place = "{119, 140}";
type = Stem;
},
{
place = "{469, 140}";
type = Stem;
},
{
place = "{50, 140}";
type = Stem;
},
{
place = "{539, 139}";
type = Stem;
},
{
horizontal = 1;
place = "{769, 210}";
type = Stem;
}
);
layerId = "C2265137-4960-4D1A-899B-D2ADBAADF5E4";
paths = (
{
closed = 1;
nodes = (
"169 839 LINE",
"240 769 LINE",
"589 769 LINE",
"659 839 LINE",
"659 979 LINE",
"519 979 LINE",
"519 888 LINE",
"309 888 LINE",
"309 979 LINE",
"169 979 LINE"
);
},
{
closed = 1;
nodes = (
"240 0 LINE",
"589 467 LINE",
"589 0 LINE",
"728 0 LINE",
"728 700 LINE",
"589 700 LINE",
"240 234 LINE",
"240 700 LINE",
"100 700 LINE",
"100 0 LINE"
);
}
);
width = 828;
}
);
leftMetricsKey = A;
note = afii10075;
rightMetricsKey = A;
unicode = 0439;
},
{
glyphname = "ka-cy";
lastChange = "2023-05-28 20:48:15 +0000";
layers = (
{
hints = (
{
horizontal = 1;
place = "{0, 21}";
target = up;
type = BottomGhost;
},
{
horizontal = 1;
place = "{279, 140}";
type = Stem;
},
{
horizontal = 1;
place = "{700, -20}";
target = down;
type = TopGhost;
},
{
place = "{50, 140}";
type = Stem;
},
{
place = "{539, 139}";
type = Stem;
}
);
layerId = "C2265137-4960-4D1A-899B-D2ADBAADF5E4";
paths = (
{
closed = 1;
nodes = (
"240 0 LINE",
"240 279 LINE",
"449 279 LINE",
"589 140 LINE",
"589 0 LINE",
"728 0 LINE",
"728 209 LINE",
"589 349 LINE",
"728 489 LINE",
"728 700 LINE",
"589 700 LINE",
"589 559 LINE",
"449 419 LINE",
"240 419 LINE",
"240 700 LINE",
"100 700 LINE",
"100 0 LINE"
);
}
);
width = 828;
}
);
leftMetricsKey = A;
note = afii10076;
rightMetricsKey = A;
unicode = 043A;
},
{
glyphname = "kje-cy";
lastChange = "2023-05-28 20:48:15 +0000";
layers = (
{
hints = (
{
horizontal = 1;
place = "{0, 21}";
target = up;
type = BottomGhost;
},
{
horizontal = 1;
place = "{279, 140}";
type = Stem;
},
{
horizontal = 1;
place = "{700, -20}";
target = down;
type = TopGhost;
},
{
horizontal = 1;
place = "{920, -20}";
target = down;
type = TopGhost;
},
{
place = "{50, 140}";
type = Stem;
},
{
place = "{539, 139}";
type = Stem;
}
);
layerId = "C2265137-4960-4D1A-899B-D2ADBAADF5E4";
paths = (
{
closed = 1;
nodes = (
"240 0 LINE",
"240 279 LINE",
"449 279 LINE",
"589 140 LINE",
"589 0 LINE",
"728 0 LINE",
"728 209 LINE",
"589 349 LINE",
"728 489 LINE",
"728 700 LINE",
"589 700 LINE",
"589 559 LINE",
"449 419 LINE",
"240 419 LINE",
"240 700 LINE",
"100 700 LINE",
"100 0 LINE"
);
},
{
closed = 1;
nodes = (
"470 920 LINE",
"320 730 LINE",
"460 730 LINE",
"620 920 LINE"
);
}
);
width = 828;
}
);
leftMetricsKey = A;
note = afii10109;
rightMetricsKey = A;
unicode = 045C;
},
{
glyphname = "el-cy";
lastChange = "2023-05-28 20:48:15 +0000";
layers = (
{
hints = (
{
horizontal = 1;
place = "{0, 21}";
target = up;
type = BottomGhost;
},
{
horizontal = 1;
place = "{560, 140}";
type = Stem;
},
{
place = "{40, 140}";
type = Stem;
},
{
place = "{529, 139}";
type = Stem;
}
);
layerId = "C2265137-4960-4D1A-899B-D2ADBAADF5E4";
paths = (
{
closed = 1;
nodes = (
"240 0 LINE",
"240 420 LINE",
"379 560 LINE",
"589 560 LINE",
"589 0 LINE",
"728 0 LINE",
"728 700 LINE",
"309 700 LINE",
"100 490 LINE",
"100 0 LINE"
);
}
);
width = 828;
}
);
leftMetricsKey = A;
note = afii10077;
rightMetricsKey = A;
unicode = 043B;
},
{
glyphname = "em-cy";
lastChange = "2023-05-28 20:48:15 +0000";
layers = (
{
hints = (
{
horizontal = 1;
place = "{0, 21}";
target = up;
type = BottomGhost;
},
{
horizontal = 1;
place = "{700, -20}";
target = down;
type = TopGhost;
},
{
place = "{50, 140}";
type = Stem;
},
{
place = "{677, 140}";
type = Stem;
}
);
layerId = "C2265137-4960-4D1A-899B-D2ADBAADF5E4";
paths = (
{
closed = 1;
nodes = (
"240 0 LINE",
"240 472 LINE",
"427 203 LINE",
"544 203 LINE",
"727 472 LINE",
"727 0 LINE",
"867 0 LINE",
"867 700 LINE",
"732 700 LINE",
"484 361 LINE",
"240 700 LINE",
"100 700 LINE",
"100 0 LINE"
);
}
);
width = 967;
}
);
leftMetricsKey = A;
note = afii10078;
rightMetricsKey = A;
unicode = 043C;
},
{
glyphname = "en-cy";
lastChange = "2023-05-28 20:48:15 +0000";
layers = (
{
hints = (
{
horizontal = 1;
place = "{0, 21}";
target = up;
type = BottomGhost;
},
{
horizontal = 1;
place = "{279, 140}";
type = Stem;
},
{
horizontal = 1;
place = "{700, -20}";
target = down;
type = TopGhost;
},
{
place = "{50, 140}";
type = Stem;
},
{
place = "{539, 139}";
type = Stem;
}
);
layerId = "C2265137-4960-4D1A-899B-D2ADBAADF5E4";
paths = (
{
closed = 1;
nodes = (
"240 0 LINE",
"240 279 LINE",
"589 279 LINE",
"589 0 LINE",
"728 0 LINE",
"728 700 LINE",
"589 700 LINE",
"589 419 LINE",
"240 419 LINE",
"240 700 LINE",
"100 700 LINE",
"100 0 LINE"
);
}
);
width = 828;
}
);
leftMetricsKey = A;
note = afii10079;
rightMetricsKey = A;
unicode = 043D;
},
{
glyphname = "o-cy";
lastChange = "2023-05-28 20:48:15 +0000";
layers = (
{
hints = (
{
horizontal = 1;
place = "{0, 140}";
type = Stem;
},
{
horizontal = 1;
place = "{560, 140}";
type = Stem;
},
{
place = "{50, 140}";
type = Stem;
},
{
place = "{539, 139}";
type = Stem;
}
);
layerId = "C2265137-4960-4D1A-899B-D2ADBAADF5E4";
paths = (
{
closed = 1;
nodes = (
"240 140 LINE",
"240 560 LINE",
"589 560 LINE",
"589 140 LINE"
);
},
{
closed = 1;
nodes = (
"659 0 LINE",
"728 69 LINE",
"728 629 LINE",
"659 700 LINE",
"169 700 LINE",
"100 629 LINE",
"100 69 LINE",
"169 0 LINE"
);
}
);
width = 828;
}
);
leftMetricsKey = A;
note = afii10080;
rightMetricsKey = A;
unicode = 043E;
},
{
glyphname = "pe-cy";
lastChange = "2023-05-28 20:48:15 +0000";
layers = (
{
hints = (
{
horizontal = 1;
place = "{0, 21}";
target = up;
type = BottomGhost;
},
{
horizontal = 1;
place = "{560, 140}";
type = Stem;
},
{
place = "{50, 140}";
type = Stem;
},
{
place = "{539, 139}";
type = Stem;
}
);
layerId = "C2265137-4960-4D1A-899B-D2ADBAADF5E4";
paths = (
{
closed = 1;
nodes = (
"240 0 LINE",
"240 560 LINE",
"589 560 LINE",
"589 0 LINE",
"728 0 LINE",
"728 700 LINE",
"100 700 LINE",
"100 0 LINE"
);
}
);
width = 828;
}
);
leftMetricsKey = A;
note = afii10081;
rightMetricsKey = A;
unicode = 043F;
},
{
glyphname = "er-cy";
lastChange = "2023-05-28 20:48:15 +0000";
layers = (
{
hints = (
{
horizontal = 1;
place = "{0, 21}";
target = up;
type = BottomGhost;
},
{
horizontal = 1;
place = "{209, 140}";
type = Stem;
},
{
horizontal = 1;
place = "{560, 140}";
type = Stem;
},
{
place = "{50, 140}";
type = Stem;
},
{
place = "{539, 139}";
type = Stem;
}
);
layerId = "C2265137-4960-4D1A-899B-D2ADBAADF5E4";
paths = (
{
closed = 1;
nodes = (
"240 349 LINE",
"240 560 LINE",
"589 560 LINE",
"589 349 LINE"
);
},
{
closed = 1;
nodes = (
"240 0 LINE",
"240 209 LINE",
"659 209 LINE",
"728 279 LINE",
"728 629 LINE",
"659 700 LINE",
"100 700 LINE",
"100 0 LINE"
);
}
);
width = 828;
}
);
leftMetricsKey = A;
note = afii10082;
rightMetricsKey = A;
unicode = 0440;
},
{
glyphname = "es-cy";
lastChange = "2023-05-28 20:48:15 +0000";
layers = (
{
hints = (
{
horizontal = 1;
place = "{0, 209}";
type = Stem;
},
{
horizontal = 1;
place = "{490, 210}";
type = Stem;
},
{
place = "{50, 140}";
type = Stem;
},
{
place = "{539, 139}";
type = Stem;
},
{
horizontal = 1;
place = "{0, 140}";
type = Stem;
},
{
horizontal = 1;
place = "{560, 140}";
type = Stem;
}
);
layerId = "C2265137-4960-4D1A-899B-D2ADBAADF5E4";
paths = (
{
closed = 1;
nodes = (
"659 0 LINE",
"728 69 LINE",
"728 209 LINE",
"589 209 LINE",
"589 140 LINE",
"240 140 LINE",
"240 560 LINE",
"589 560 LINE",
"589 490 LINE",
"728 490 LINE",
"728 629 LINE",
"659 700 LINE",
"169 700 LINE",
"100 629 LINE",
"100 69 LINE",
"169 0 LINE"
);
}
);
width = 828;
}
);
leftMetricsKey = A;
note = afii10083;
rightMetricsKey = A;
unicode = 0441;
},
{
glyphname = "te-cy";
lastChange = "2023-05-28 20:48:15 +0000";
layers = (
{
hints = (
{
horizontal = 1;
place = "{0, 21}";
target = up;
type = BottomGhost;
},
{
horizontal = 1;
place = "{560, 140}";
type = Stem;
},
{
place = "{265, 140}";
type = Stem;
}
);
layerId = "C2265137-4960-4D1A-899B-D2ADBAADF5E4";
paths = (
{
closed = 1;
nodes = (
"485 0 LINE",
"485 560 LINE",
"728 560 LINE",
"728 700 LINE",
"100 700 LINE",
"100 560 LINE",
"345 560 LINE",
"345 0 LINE"
);
}
);
width = 828;
}
);
leftMetricsKey = A;
note = afii10084;
rightMetricsKey = A;
unicode = 0442;
},
{
glyphname = "u-cy";
lastChange = "2023-05-28 20:48:15 +0000";
layers = (
{
hints = (
{
horizontal = 1;
place = "{0, 140}";
type = Stem;
},
{
horizontal = 1;
place = "{279, 140}";
type = Stem;
},
{
horizontal = 1;
place = "{700, -20}";
target = down;
type = TopGhost;
},
{
place = "{20, 140}";
type = Stem;
},
{
place = "{509, 139}";
type = Stem;
}
);
layerId = "C2265137-4960-4D1A-899B-D2ADBAADF5E4";
paths = (
{
closed = 1;
nodes = (
"169 0 LINE",
"519 0 LINE",
"728 209 LINE",
"728 700 LINE",
"589 700 LINE",
"589 419 LINE",
"379 419 LINE",
"240 559 LINE",
"240 700 LINE",
"100 700 LINE",
"100 489 LINE",
"309 279 LINE",
"589 279 LINE",
"449 140 LINE",
"169 140 LINE"
);
}
);
width = 828;
}
);
leftMetricsKey = A;
note = afii10085;
rightMetricsKey = A;
unicode = 0443;
},
{
glyphname = "ushort-cy";
lastChange = "2023-05-28 20:48:15 +0000";
layers = (
{
hints = (
{
horizontal = 1;
place = "{0, 140}";
type = Stem;
},
{
horizontal = 1;
place = "{279, 140}";
type = Stem;
},
{
horizontal = 1;
place = "{700, -20}";
target = down;
type = TopGhost;
},
{
horizontal = 1;
place = "{769, 119}";
type = Stem;
},
{
place = "{89, 140}";
type = Stem;
},
{
place = "{439, 140}";
type = Stem;
},
{
place = "{20, 140}";
type = Stem;
},
{
place = "{509, 139}";
type = Stem;
},
{
horizontal = 1;
place = "{769, 210}";
type = Stem;
}
);
layerId = "C2265137-4960-4D1A-899B-D2ADBAADF5E4";
paths = (
{
closed = 1;
nodes = (
"169 0 LINE",
"519 0 LINE",
"728 209 LINE",
"728 700 LINE",
"589 700 LINE",
"589 419 LINE",
"379 419 LINE",
"240 559 LINE",
"240 700 LINE",
"100 700 LINE",
"100 489 LINE",
"309 279 LINE",
"589 279 LINE",
"449 140 LINE",
"169 140 LINE"
);
},
{
closed = 1;
nodes = (
"169 839 LINE",
"240 769 LINE",
"589 769 LINE",
"659 839 LINE",
"659 979 LINE",
"519 979 LINE",
"519 888 LINE",
"309 888 LINE",
"309 979 LINE",
"169 979 LINE"
);
}
);
width = 828;
}
);
leftMetricsKey = A;
note = afii10110;
rightMetricsKey = A;
unicode = 045E;
},
{
glyphname = "ef-cy";
lastChange = "2023-05-28 20:48:15 +0000";
layers = (
{
hints = (
{
horizontal = 1;
place = "{0, 21}";
target = up;
type = BottomGhost;
},
{
horizontal = 1;
place = "{104, 140}";
type = Stem;
},
{
horizontal = 1;
place = "{560, 140}";
type = Stem;
},
{
horizontal = 1;
place = "{805, -20}";
target = down;
type = TopGhost;
},
{
place = "{40, 140}";
type = Stem;
},
{
place = "{389, 140}";
type = Stem;
},
{
place = "{739, 139}";
type = Stem;
}
);
layerId = "C2265137-4960-4D1A-899B-D2ADBAADF5E4";
paths = (
{
closed = 1;
nodes = (
"169 700 LINE",
"100 629 LINE",
"100 173 LINE",
"169 104 LINE",
"449 104 LINE",
"449 0 LINE",
"589 0 LINE",
"589 104 LINE",
"868 104 LINE",
"938 173 LINE",
"938 629 LINE",
"868 700 LINE",
"589 700 LINE",
"589 805 LINE",
"449 805 LINE",
"449 700 LINE"
);
},
{
closed = 1;
nodes = (
"240 244 LINE",
"240 560 LINE",
"449 560 LINE",
"449 244 LINE"
);
},
{
closed = 1;
nodes = (
"589 244 LINE",
"589 560 LINE",
"799 560 LINE",
"799 244 LINE"
);
}
);
width = 1038;
}
);
leftMetricsKey = A;
note = afii10086;
rightMetricsKey = A;
unicode = 0444;
},
{
glyphname = "ha-cy";
lastChange = "2023-05-28 20:48:15 +0000";
layers = (
{
hints = (
{
horizontal = 1;
place = "{0, 21}";
target = up;
type = BottomGhost;
},
{
horizontal = 1;
place = "{279, 140}";
type = Stem;
},
{
horizontal = 1;
place = "{700, -20}";
target = down;
type = TopGhost;
},
{
place = "{40, 140}";
type = Stem;
},
{
place = "{529, 139}";
type = Stem;
}
);
layerId = "C2265137-4960-4D1A-899B-D2ADBAADF5E4";
paths = (
{
closed = 1;
nodes = (
"240 0 LINE",
"240 140 LINE",
"379 279 LINE",
"449 279 LINE",
"589 140 LINE",
"589 0 LINE",
"728 0 LINE",
"728 209 LINE",
"589 349 LINE",
"728 489 LINE",
"728 700 LINE",
"589 700 LINE",
"589 559 LINE",
"449 419 LINE",
"379 419 LINE",
"240 559 LINE",
"240 700 LINE",
"100 700 LINE",
"100 489 LINE",
"240 349 LINE",
"100 209 LINE",
"100 0 LINE"
);
}
);
width = 828;
}
);
leftMetricsKey = A;
note = afii10087;
rightMetricsKey = A;
unicode = 0445;
},
{
glyphname = "che-cy";
lastChange = "2023-05-28 20:48:15 +0000";
layers = (
{
hints = (
{
horizontal = 1;
place = "{0, 21}";
target = up;
type = BottomGhost;
},
{
horizontal = 1;
place = "{279, 140}";
type = Stem;
},
{
horizontal = 1;
place = "{700, -20}";
target = down;
type = TopGhost;
},
{
place = "{40, 140}";
type = Stem;
},
{
place = "{495, 140}";
type = Stem;
}
);
layerId = "C2265137-4960-4D1A-899B-D2ADBAADF5E4";
paths = (
{
closed = 1;
nodes = (
"695 0 LINE",
"695 700 LINE",
"555 700 LINE",
"555 419 LINE",
"240 419 LINE",
"240 700 LINE",
"100 700 LINE",
"100 349 LINE",
"169 279 LINE",
"555 279 LINE",
"555 0 LINE"
);
}
);
width = 795;
}
);
leftMetricsKey = A;
note = afii10089;
rightMetricsKey = A;
unicode = 0447;
},
{
glyphname = "tse-cy";
lastChange = "2023-05-28 20:48:15 +0000";
layers = (
{
hints = (
{
horizontal = 1;
place = "{-140, 21}";
target = up;
type = BottomGhost;
},
{
horizontal = 1;
place = "{0, 140}";
type = Stem;
},
{
horizontal = 1;
place = "{700, -20}";
target = down;
type = TopGhost;
},
{
place = "{50, 140}";
type = Stem;
},
{
place = "{609, 140}";
type = Stem;
},
{
place = "{539, 139}";
type = Stem;
}
);
layerId = "C2265137-4960-4D1A-899B-D2ADBAADF5E4";
paths = (
{
closed = 1;
nodes = (
"799 -140 LINE",
"799 140 LINE",
"728 140 LINE",
"728 700 LINE",
"589 700 LINE",
"589 140 LINE",
"240 140 LINE",
"240 700 LINE",
"100 700 LINE",
"100 0 LINE",
"659 0 LINE",
"659 -140 LINE"
);
}
);
width = 899;
}
);
leftMetricsKey = A;
note = afii10088;
rightMetricsKey = A;
unicode = 0446;
},
{
glyphname = "sha-cy";
lastChange = "2023-05-28 20:48:15 +0000";
layers = (
{
hints = (
{
horizontal = 1;
place = "{0, 140}";
type = Stem;
},
{
horizontal = 1;
place = "{700, -20}";
target = down;
type = TopGhost;
},
{
place = "{50, 140}";
type = Stem;
},
{
place = "{399, 140}";
type = Stem;
},
{
place = "{749, 139}";
type = Stem;
}
);
layerId = "C2265137-4960-4D1A-899B-D2ADBAADF5E4";
paths = (
{
closed = 1;
nodes = (
"938 0 LINE",
"938 700 LINE",
"799 700 LINE",
"799 140 LINE",
"589 140 LINE",
"589 700 LINE",
"449 700 LINE",
"449 140 LINE",
"240 140 LINE",
"240 700 LINE",
"100 700 LINE",
"100 0 LINE"
);
}
);
width = 1038;
}
);
leftMetricsKey = A;
note = afii10090;
rightMetricsKey = A;
unicode = 0448;
},
{
glyphname = "shcha-cy";
lastChange = "2023-05-28 20:48:15 +0000";
layers = (
{
hints = (
{
horizontal = 1;
place = "{-140, 21}";
target = up;
type = BottomGhost;
},
{
horizontal = 1;
place = "{0, 140}";
type = Stem;
},
{
horizontal = 1;
place = "{700, -20}";
target = down;
type = TopGhost;
},
{
place = "{50, 140}";
type = Stem;
},
{
place = "{399, 140}";
type = Stem;
},
{
place = "{818, 140}";
type = Stem;
},
{
place = "{749, 139}";
type = Stem;
}
);
layerId = "C2265137-4960-4D1A-899B-D2ADBAADF5E4";
paths = (
{
closed = 1;
nodes = (
"1008 -140 LINE",
"1008 140 LINE",
"938 140 LINE",
"938 700 LINE",
"799 700 LINE",
"799 140 LINE",
"589 140 LINE",
"589 700 LINE",
"449 700 LINE",
"449 140 LINE",
"240 140 LINE",
"240 700 LINE",
"100 700 LINE",
"100 0 LINE",
"868 0 LINE",
"868 -140 LINE"
);
}
);
width = 1108;
}
);
leftMetricsKey = A;
note = afii10091;
rightMetricsKey = A;
unicode = 0449;
},
{
glyphname = "dzhe-cy";
lastChange = "2023-05-28 20:48:15 +0000";
layers = (
{
hints = (
{
horizontal = 1;
place = "{-140, 21}";
target = up;
type = BottomGhost;
},
{
horizontal = 1;
place = "{0, 140}";
type = Stem;
},
{
horizontal = 1;
place = "{700, -20}";
target = down;
type = TopGhost;
},
{
place = "{50, 140}";
type = Stem;
},
{
place = "{294, 140}";
type = Stem;
},
{
place = "{539, 139}";
type = Stem;
}
);
layerId = "C2265137-4960-4D1A-899B-D2ADBAADF5E4";
paths = (
{
closed = 1;
nodes = (
"484 -140 LINE",
"484 0 LINE",
"728 0 LINE",
"728 700 LINE",
"589 700 LINE",
"589 140 LINE",
"240 140 LINE",
"240 700 LINE",
"100 700 LINE",
"100 0 LINE",
"344 0 LINE",
"344 -140 LINE"
);
}
);
width = 828;
}
);
leftMetricsKey = A;
note = afii10193;
rightMetricsKey = A;
unicode = 045F;
},
{
glyphname = "softsign-cy";
lastChange = "2023-05-28 20:48:15 +0000";
layers = (
{
hints = (
{
horizontal = 1;
place = "{0, 140}";
type = Stem;
},
{
horizontal = 1;
place = "{349, 140}";
type = Stem;
},
{
horizontal = 1;
place = "{700, -20}";
target = down;
type = TopGhost;
},
{
place = "{50, 140}";
type = Stem;
},
{
place = "{539, 139}";
type = Stem;
}
);
layerId = "C2265137-4960-4D1A-899B-D2ADBAADF5E4";
paths = (
{
closed = 1;
nodes = (
"240 140 LINE",
"240 349 LINE",
"589 349 LINE",
"589 140 LINE"
);
},
{
closed = 1;
nodes = (
"659 0 LINE",
"728 69 LINE",
"728 419 LINE",
"659 489 LINE",
"240 489 LINE",
"240 700 LINE",
"100 700 LINE",
"100 0 LINE"
);
}
);
width = 828;
}
);
leftMetricsKey = A;
note = afii10094;
rightMetricsKey = A;
unicode = 044C;
},
{
glyphname = "hardsign-cy";
lastChange = "2023-05-28 20:48:15 +0000";
layers = (
{
hints = (
{
horizontal = 1;
place = "{0, 140}";
type = Stem;
},
{
horizontal = 1;
place = "{349, 140}";
type = Stem;
},
{
horizontal = 1;
place = "{560, 140}";
type = Stem;
},
{
place = "{160, 139}";
type = Stem;
},
{
place = "{648, 140}";
type = Stem;
}
);
layerId = "C2265137-4960-4D1A-899B-D2ADBAADF5E4";
paths = (
{
closed = 1;
nodes = (
"379 140 LINE",
"379 349 LINE",
"728 349 LINE",
"728 140 LINE"
);
},
{
closed = 1;
nodes = (
"799 0 LINE",
"868 69 LINE",
"868 419 LINE",
"799 489 LINE",
"379 489 LINE",
"379 700 LINE",
"100 700 LINE",
"100 560 LINE",
"240 560 LINE",
"240 0 LINE"
);
}
);
width = 968;
}
);
leftMetricsKey = A;
note = afii10092;
rightMetricsKey = A;
unicode = 044A;
},
{
glyphname = "yeru-cy";
lastChange = "2023-05-28 20:48:15 +0000";
layers = (
{
hints = (
{
horizontal = 1;
place = "{0, 140}";
type = Stem;
},
{
horizontal = 1;
place = "{349, 140}";
type = Stem;
},
{
horizontal = 1;
place = "{700, -20}";
target = down;
type = TopGhost;
},
{
place = "{50, 140}";
type = Stem;
},
{
place = "{539, 139}";
type = Stem;
},
{
place = "{749, 139}";
type = Stem;
}
);
layerId = "C2265137-4960-4D1A-899B-D2ADBAADF5E4";
paths = (
{
closed = 1;
nodes = (
"240 140 LINE",
"240 349 LINE",
"589 349 LINE",
"589 140 LINE"
);
},
{
closed = 1;
nodes = (
"659 0 LINE",
"728 69 LINE",
"728 419 LINE",
"659 489 LINE",
"240 489 LINE",
"240 700 LINE",
"100 700 LINE",
"100 0 LINE"
);
},
{
closed = 1;
nodes = (
"938 0 LINE",
"938 700 LINE",
"799 700 LINE",
"799 0 LINE"
);
}
);
width = 1038;
}
);
leftMetricsKey = A;
note = afii10093;
rightMetricsKey = A;
unicode = 044B;
},
{
glyphname = "lje-cy";
lastChange = "2023-05-28 20:48:15 +0000";
layers = (
{
hints = (
{
horizontal = 1;
place = "{0, 140}";
type = Stem;
},
{
horizontal = 1;
place = "{349, 140}";
type = Stem;
},
{
horizontal = 1;
place = "{560, 140}";
type = Stem;
},
{
place = "{40, 140}";
type = Stem;
},
{
place = "{479, 139}";
type = Stem;
},
{
place = "{917, 139}";
type = Stem;
}
);
layerId = "C2265137-4960-4D1A-899B-D2ADBAADF5E4";
paths = (
{
closed = 1;
nodes = (
"1047 0 LINE",
"1116 69 LINE",
"1116 419 LINE",
"1047 489 LINE",
"678 489 LINE",
"678 700 LINE",
"309 700 LINE",
"100 490 LINE",
"100 0 LINE",
"240 0 LINE",
"240 420 LINE",
"379 560 LINE",
"539 560 LINE",
"539 0 LINE"
);
},
{
closed = 1;
nodes = (
"678 140 LINE",
"678 349 LINE",
"977 349 LINE",
"977 140 LINE"
);
}
);
width = 1216;
}
);
leftMetricsKey = A;
note = afii10106;
rightMetricsKey = A;
unicode = 0459;
},
{
glyphname = "nje-cy";
lastChange = "2023-05-28 20:48:15 +0000";
layers = (
{
hints = (
{
horizontal = 1;
place = "{0, 140}";
type = Stem;
},
{
horizontal = 1;
place = "{310, 140}";
type = Stem;
},
{
horizontal = 1;
place = "{700, -20}";
target = down;
type = TopGhost;
},
{
place = "{50, 140}";
type = Stem;
},
{
place = "{489, 139}";
type = Stem;
},
{
place = "{927, 139}";
type = Stem;
}
);
layerId = "C2265137-4960-4D1A-899B-D2ADBAADF5E4";
paths = (
{
closed = 1;
nodes = (
"240 0 LINE",
"240 310 LINE",
"539 310 LINE",
"539 0 LINE",
"1047 0 LINE",
"1116 69 LINE",
"1116 380 LINE",
"1047 450 LINE",
"678 450 LINE",
"678 700 LINE",
"539 700 LINE",
"539 450 LINE",
"240 450 LINE",
"240 700 LINE",
"100 700 LINE",
"100 0 LINE"
);
},
{
closed = 1;
nodes = (
"678 140 LINE",
"678 310 LINE",
"977 310 LINE",
"977 140 LINE"
);
}
);
width = 1216;
}
);
leftMetricsKey = A;
note = afii10107;
rightMetricsKey = A;
unicode = 045A;
},
{
glyphname = "dze-cy";
lastChange = "2023-05-28 20:48:15 +0000";
layers = (
{
hints = (
{
horizontal = 1;
place = "{0, 140}";
type = Stem;
},
{
horizontal = 1;
place = "{279, 141}";
type = Stem;
},
{
horizontal = 1;
place = "{560, 140}";
type = Stem;
},
{
place = "{50, 140}";
type = Stem;
},
{
place = "{539, 139}";
type = Stem;
},
{
horizontal = 1;
place = "{490, 210}";
type = Stem;
}
);
layerId = "C2265137-4960-4D1A-899B-D2ADBAADF5E4";
paths = (
{
closed = 1;
nodes = (
"659 0 LINE",
"728 69 LINE",
"728 350 LINE",
"659 420 LINE",
"240 420 LINE",
"240 560 LINE",
"589 560 LINE",
"589 490 LINE",
"728 490 LINE",
"728 629 LINE",
"659 700 LINE",
"169 700 LINE",
"100 629 LINE",
"100 329 LINE",
"169 279 LINE",
"589 279 LINE",
"589 140 LINE",
"240 140 LINE",
"240 209 LINE",
"100 209 LINE",
"100 69 LINE",
"169 0 LINE"
);
}
);
width = 828;
}
);
leftMetricsKey = A;
note = afii10102;
rightMetricsKey = A;
unicode = 0455;
},
{
glyphname = "e-cy";
lastChange = "2023-05-28 20:48:15 +0000";
layers = (
{
hints = (
{
horizontal = 1;
place = "{0, 209}";
type = Stem;
},
{
horizontal = 1;
place = "{279, 140}";
type = Stem;
},
{
horizontal = 1;
place = "{490, 210}";
type = Stem;
},
{
place = "{50, 139}";
type = Stem;
},
{
place = "{538, 140}";
type = Stem;
},
{
horizontal = 1;
place = "{0, 140}";
type = Stem;
},
{
horizontal = 1;
place = "{560, 140}";
type = Stem;
}
);
layerId = "C2265137-4960-4D1A-899B-D2ADBAADF5E4";
paths = (
{
closed = 1;
nodes = (
"659 0 LINE",
"728 69 LINE",
"728 209 LINE",
"588 209 LINE",
"588 140 LINE",
"239 140 LINE",
"239 279 LINE",
"519 279 LINE",
"519 419 LINE",
"239 419 LINE",
"239 560 LINE",
"588 560 LINE",
"588 490 LINE",
"728 490 LINE",
"728 629 LINE",
"659 700 LINE",
"169 700 LINE",
"100 629 LINE",
"100 69 LINE",
"169 0 LINE"
);
}
);
width = 828;
}
);
leftMetricsKey = A;
note = afii10101;
rightMetricsKey = A;
unicode = 0454;
},
{
glyphname = "ereversed-cy";
lastChange = "2023-05-28 20:48:15 +0000";
layers = (
{
hints = (
{
horizontal = 1;
place = "{0, 140}";
type = Stem;
},
{
horizontal = 1;
place = "{279, 140}";
type = Stem;
},
{
horizontal = 1;
place = "{490, 210}";
type = Stem;
},
{
place = "{40, 140}";
type = Stem;
},
{
place = "{529, 139}";
type = Stem;
},
{
horizontal = 1;
place = "{560, 140}";
type = Stem;
}
);
layerId = "C2265137-4960-4D1A-899B-D2ADBAADF5E4";
paths = (
{
closed = 1;
nodes = (
"659 0 LINE",
"728 69 LINE",
"728 629 LINE",
"659 700 LINE",
"169 700 LINE",
"100 629 LINE",
"100 490 LINE",
"240 490 LINE",
"240 560 LINE",
"589 560 LINE",
"589 419 LINE",
"309 419 LINE",
"309 279 LINE",
"589 279 LINE",
"589 140 LINE",
"240 140 LINE",
"240 209 LINE",
"100 209 LINE",
"100 69 LINE",
"169 0 LINE"
);
}
);
width = 828;
}
);
leftMetricsKey = A;
note = afii10095;
rightMetricsKey = A;
unicode = 044D;
},
{
glyphname = "i-cy";
lastChange = "2023-05-28 20:48:15 +0000";
layers = (
{
hints = (
{
horizontal = 1;
place = "{0, 21}";
target = up;
type = BottomGhost;
},
{
horizontal = 1;
place = "{700, -20}";
target = down;
type = TopGhost;
},
{
place = "{50, 140}";
type = Stem;
}
);
layerId = "C2265137-4960-4D1A-899B-D2ADBAADF5E4";
paths = (
{
closed = 1;
nodes = (
"240 0 LINE",
"240 700 LINE",
"100 700 LINE",
"100 0 LINE"
);
}
);
width = 340;
}
);
leftMetricsKey = A;
note = afii10103;
rightMetricsKey = A;
unicode = 0456;
},
{
glyphname = "yi-cy";
lastChange = "2023-05-28 20:48:15 +0000";
layers = (
{
hints = (
{
horizontal = 1;
place = "{0, 21}";
target = up;
type = BottomGhost;
},
{
horizontal = 1;
place = "{700, -20}";
target = down;
type = TopGhost;
},
{
horizontal = 1;
place = "{770, 140}";
type = Stem;
},
{
place = "{72, 140}";
type = Stem;
},
{
place = "{-50, 140}";
type = Stem;
},
{
place = "{194, 140}";
type = Stem;
}
);
layerId = "C2265137-4960-4D1A-899B-D2ADBAADF5E4";
paths = (
{
closed = 1;
nodes = (
"362 0 LINE",
"362 700 LINE",
"222 700 LINE",
"222 0 LINE"
);
},
{
closed = 1;
nodes = (
"100 770 LINE",
"240 770 LINE",
"240 910 LINE",
"100 910 LINE"
);
},
{
closed = 1;
nodes = (
"344 770 LINE",
"484 770 LINE",
"484 910 LINE",
"344 910 LINE"
);
}
);
width = 584;
}
);
leftMetricsKey = A;
note = afii10104;
rightMetricsKey = A;
unicode = 0457;
},
{
glyphname = "je-cy";
lastChange = "2023-05-28 20:48:15 +0000";
layers = (
{
hints = (
{
horizontal = 1;
place = "{0, 140}";
type = Stem;
},
{
horizontal = 1;
place = "{560, 140}";
type = Stem;
},
{
place = "{20, 140}";
type = Stem;
},
{
place = "{509, 139}";
type = Stem;
}
);
layerId = "C2265137-4960-4D1A-899B-D2ADBAADF5E4";
paths = (
{
closed = 1;
nodes = (
"449 140 LINE",
"379 140 LINE",
"240 279 LINE",
"240 349 LINE",
"100 349 LINE",
"100 209 LINE",
"309 0 LINE",
"519 0 LINE",
"728 209 LINE",
"728 700 LINE",
"379 700 LINE",
"379 560 LINE",
"589 560 LINE",
"589 279 LINE"
);
}
);
width = 828;
}
);
leftMetricsKey = A;
note = afii10105;
rightMetricsKey = A;
unicode = 0458;
},
{
glyphname = "tshe-cy";
lastChange = "2023-05-28 20:48:15 +0000";
layers = (
{
hints = (
{
horizontal = 1;
place = "{0, 21}";
target = up;
type = BottomGhost;
},
{
horizontal = 1;
place = "{268, 140}";
type = Stem;
},
{
horizontal = 1;
place = "{560, 140}";
type = Stem;
},
{
place = "{185, 140}";
type = Stem;
},
{
place = "{674, 139}";
type = Stem;
}
);
layerId = "C2265137-4960-4D1A-899B-D2ADBAADF5E4";
paths = (
{
closed = 1;
nodes = (
"100 700 LINE",
"100 560 LINE",
"265 560 LINE",
"265 0 LINE",
"405 0 LINE",
"405 268 LINE",
"754 268 LINE",
"754 0 LINE",
"893 0 LINE",
"893 338 LINE",
"824 408 LINE",
"405 408 LINE",
"405 560 LINE",
"665 560 LINE",
"665 700 LINE"
);
}
);
width = 993;
}
);
leftMetricsKey = A;
note = afii10108;
rightMetricsKey = A;
unicode = 045B;
},
{
glyphname = "iu-cy";
lastChange = "2023-05-28 20:48:15 +0000";
layers = (
{
hints = (
{
horizontal = 1;
place = "{0, 140}";
type = Stem;
},
{
horizontal = 1;
place = "{279, 140}";
type = Stem;
},
{
horizontal = 1;
place = "{560, 140}";
type = Stem;
},
{
place = "{50, 140}";
type = Stem;
},
{
place = "{329, 140}";
type = Stem;
},
{
place = "{749, 139}";
type = Stem;
}
);
layerId = "C2265137-4960-4D1A-899B-D2ADBAADF5E4";
paths = (
{
closed = 1;
nodes = (
"519 140 LINE",
"519 560 LINE",
"799 560 LINE",
"799 140 LINE"
);
},
{
closed = 1;
nodes = (
"240 0 LINE",
"240 279 LINE",
"379 279 LINE",
"379 69 LINE",
"449 0 LINE",
"868 0 LINE",
"938 69 LINE",
"938 629 LINE",
"868 700 LINE",
"449 700 LINE",
"379 629 LINE",
"379 419 LINE",
"240 419 LINE",
"240 700 LINE",
"100 700 LINE",
"100 0 LINE"
);
}
);
width = 1038;
}
);
leftMetricsKey = A;
note = afii10096;
rightMetricsKey = A;
unicode = 044E;
},
{
glyphname = "ia-cy";
lastChange = "2023-05-28 20:48:15 +0000";
layers = (
{
hints = (
{
horizontal = 1;
place = "{0, 21}";
target = up;
type = BottomGhost;
},
{
horizontal = 1;
place = "{209, 140}";
type = Stem;
},
{
horizontal = 1;
place = "{560, 140}";
type = Stem;
},
{
place = "{50, 140}";
type = Stem;
},
{
place = "{539, 139}";
type = Stem;
}
);
layerId = "C2265137-4960-4D1A-899B-D2ADBAADF5E4";
paths = (
{
closed = 1;
nodes = (
"240 349 LINE",
"240 560 LINE",
"589 560 LINE",
"589 349 LINE"
);
},
{
closed = 1;
nodes = (
"240 0 LINE",
"240 69 LINE",
"379 209 LINE",
"589 209 LINE",
"589 0 LINE",
"728 0 LINE",
"728 700 LINE",
"169 700 LINE",
"100 629 LINE",
"100 279 LINE",
"169 209 LINE",
"100 140 LINE",
"100 0 LINE"
);
}
);
width = 828;
}
);
leftMetricsKey = A;
note = afii10097;
rightMetricsKey = A;
unicode = 044F;
},
{
glyphname = "dje-cy";
lastChange = "2023-05-28 20:48:15 +0000";
layers = (
{
hints = (
{
horizontal = 1;
place = "{0, 140}";
type = Stem;
},
{
horizontal = 1;
place = "{268, 140}";
type = Stem;
},
{
horizontal = 1;
place = "{560, 140}";
type = Stem;
},
{
place = "{185, 140}";
type = Stem;
},
{
place = "{674, 139}";
type = Stem;
},
{
place = "{575, 238}";
type = Stem;
}
);
layerId = "C2265137-4960-4D1A-899B-D2ADBAADF5E4";
paths = (
{
closed = 1;
nodes = (
"100 700 LINE",
"100 560 LINE",
"265 560 LINE",
"265 0 LINE",
"405 0 LINE",
"405 268 LINE",
"754 268 LINE",
"754 140 LINE",
"655 140 LINE",
"655 0 LINE",
"825 0 LINE",
"893 70 LINE",
"893 338 LINE",
"824 408 LINE",
"405 408 LINE",
"405 560 LINE",
"665 560 LINE",
"665 700 LINE"
);
}
);
width = 993;
}
);
leftMetricsKey = A;
note = afii10099;
rightMetricsKey = A;
unicode = 0452;
},
{
glyphname = "ghestroke-cy";
lastChange = "2023-05-28 20:48:15 +0000";
layers = (
{
hints = (
{
horizontal = 1;
place = "{0, 21}";
target = up;
type = BottomGhost;
},
{
horizontal = 1;
place = "{279, 140}";
type = Stem;
},
{
horizontal = 1;
place = "{560, 140}";
type = Stem;
},
{
place = "{86, 140}";
type = Stem;
}
);
layerId = "C2265137-4960-4D1A-899B-D2ADBAADF5E4";
paths = (
{
closed = 1;
nodes = (
"306 0 LINE",
"306 279 LINE",
"589 279 LINE",
"589 419 LINE",
"306 419 LINE",
"306 560 LINE",
"766 560 LINE",
"766 700 LINE",
"166 700 LINE",
"166 419 LINE",
"100 419 LINE",
"100 279 LINE",
"166 279 LINE",
"166 0 LINE"
);
}
);
width = 866;
}
);
leftMetricsKey = A;
note = uni0493;
rightMetricsKey = A;
unicode = 0493;
},
{
glyphname = "ustraight-cy";
lastChange = "2023-05-28 20:48:15 +0000";
layers = (
{
hints = (
{
horizontal = 1;
place = "{0, 21}";
target = up;
type = BottomGhost;
},
{
horizontal = 1;
place = "{700, -20}";
target = down;
type = TopGhost;
},
{
place = "{30, 140}";
type = Stem;
},
{
place = "{275, 139}";
type = Stem;
},
{
place = "{519, 139}";
type = Stem;
}
);
layerId = "C2265137-4960-4D1A-899B-D2ADBAADF5E4";
paths = (
{
closed = 1;
nodes = (
"484 0 LINE",
"484 264 LINE",
"728 439 LINE",
"728 700 LINE",
"589 700 LINE",
"589 498 LINE",
"413 380 LINE",
"240 498 LINE",
"240 700 LINE",
"100 700 LINE",
"100 439 LINE",
"345 264 LINE",
"345 0 LINE"
);
}
);
width = 828;
}
);
leftMetricsKey = A;
note = uni04AF;
rightMetricsKey = A;
unicode = 04AF;
},
{
glyphname = "ustraightstroke-cy";
lastChange = "2023-05-28 20:48:15 +0000";
layers = (
{
hints = (
{
horizontal = 1;
place = "{0, 21}";
target = up;
type = BottomGhost;
},
{
horizontal = 1;
place = "{140, 139}";
type = Stem;
},
{
horizontal = 1;
place = "{700, -20}";
target = down;
type = TopGhost;
},
{
place = "{30, 140}";
type = Stem;
},
{
place = "{275, 139}";
type = Stem;
},
{
place = "{519, 139}";
type = Stem;
}
);
layerId = "C2265137-4960-4D1A-899B-D2ADBAADF5E4";
paths = (
{
closed = 1;
nodes = (
"659 140 LINE",
"659 279 LINE",
"505 279 LINE",
"728 439 LINE",
"728 700 LINE",
"589 700 LINE",
"589 498 LINE",
"413 380 LINE",
"240 498 LINE",
"240 700 LINE",
"100 700 LINE",
"100 439 LINE",
"323 279 LINE",
"169 279 LINE",
"169 140 LINE",
"345 140 LINE",
"345 0 LINE",
"484 0 LINE",
"484 140 LINE"
);
}
);
width = 828;
}
);
leftMetricsKey = A;
note = uni04B1;
rightMetricsKey = A;
unicode = 04B1;
},
{
glyphname = "obarred-cy";
lastChange = "2023-05-28 20:48:15 +0000";
layers = (
{
hints = (
{
horizontal = 1;
place = "{0, 140}";
type = Stem;
},
{
horizontal = 1;
place = "{297, 108}";
type = Stem;
},
{
horizontal = 1;
place = "{560, 140}";
type = Stem;
},
{
place = "{50, 140}";
type = Stem;
},
{
place = "{571, 140}";
type = Stem;
}
);
layerId = "C2265137-4960-4D1A-899B-D2ADBAADF5E4";
paths = (
{
closed = 1;
nodes = (
"692 0 LINE",
"761 69 LINE",
"761 629 LINE",
"692 700 LINE",
"169 700 LINE",
"100 629 LINE",
"100 69 LINE",
"169 0 LINE"
);
},
{
closed = 1;
nodes = (
"240 560 LINE",
"621 560 LINE",
"621 405 LINE",
"240 405 LINE"
);
},
{
closed = 1;
nodes = (
"621 140 LINE",
"240 140 LINE",
"240 297 LINE",
"621 297 LINE"
);
}
);
width = 861;
}
);
leftMetricsKey = A;
note = uni04E9;
rightMetricsKey = A;
unicode = 04E9;
},
{
glyphname = zero;
lastChange = "2023-05-28 20:48:15 +0000";
layers = (
{
hints = (
{
horizontal = 1;
place = "{0, 140}";
type = Stem;
},
{
horizontal = 1;
place = "{560, 140}";
type = Stem;
},
{
place = "{50, 140}";
type = Stem;
},
{
place = "{539, 139}";
type = Stem;
}
);
layerId = "C2265137-4960-4D1A-899B-D2ADBAADF5E4";
paths = (
{
closed = 1;
nodes = (
"240 231 LINE",
"240 560 LINE",
"499 560 LINE"
);
},
{
closed = 1;
nodes = (
"589 140 LINE",
"335 140 LINE",
"589 466 LINE"
);
},
{
closed = 1;
nodes = (
"659 0 LINE",
"728 69 LINE",
"728 629 LINE",
"659 700 LINE",
"169 700 LINE",
"100 629 LINE",
"100 69 LINE",
"169 0 LINE"
);
}
);
width = 828;
}
);
leftMetricsKey = A;
note = zero;
rightMetricsKey = A;
unicode = 0030;
},
{
glyphname = one;
lastChange = "2023-05-28 20:48:15 +0000";
layers = (
{
hints = (
{
horizontal = 1;
place = "{0, 21}";
target = up;
type = BottomGhost;
},
{
horizontal = 1;
place = "{560, 140}";
type = Stem;
},
{
place = "{160, 139}";
type = Stem;
}
);
layerId = "C2265137-4960-4D1A-899B-D2ADBAADF5E4";
paths = (
{
closed = 1;
nodes = (
"379 0 LINE",
"379 700 LINE",
"100 700 LINE",
"100 560 LINE",
"240 560 LINE",
"240 0 LINE"
);
}
);
width = 479;
}
);
leftMetricsKey = A;
note = one;
rightMetricsKey = A;
unicode = 0031;
},
{
glyphname = two;
lastChange = "2023-05-28 20:48:15 +0000";
layers = (
{
hints = (
{
horizontal = 1;
place = "{0, 140}";
type = Stem;
},
{
horizontal = 1;
place = "{560, 140}";
type = Stem;
},
{
place = "{20, 140}";
type = Stem;
},
{
place = "{509, 139}";
type = Stem;
},
{
horizontal = 1;
place = "{490, 210}";
type = Stem;
}
);
layerId = "C2265137-4960-4D1A-899B-D2ADBAADF5E4";
paths = (
{
closed = 1;
nodes = (
"589 560 LINE",
"589 489 LINE",
"100 140 LINE",
"100 0 LINE",
"728 0 LINE",
"728 140 LINE",
"338 140 LINE",
"728 419 LINE",
"728 629 LINE",
"659 700 LINE",
"169 700 LINE",
"100 629 LINE",
"100 490 LINE",
"240 490 LINE",
"240 560 LINE"
);
}
);
width = 828;
}
);
leftMetricsKey = A;
note = two;
rightMetricsKey = A;
unicode = 0032;
},
{
glyphname = three;
lastChange = "2023-05-28 20:48:15 +0000";
layers = (
{
hints = (
{
horizontal = 1;
place = "{0, 140}";
type = Stem;
},
{
horizontal = 1;
place = "{279, 141}";
type = Stem;
},
{
horizontal = 1;
place = "{490, 210}";
type = Stem;
},
{
place = "{30, 140}";
type = Stem;
},
{
place = "{519, 139}";
type = Stem;
},
{
horizontal = 1;
place = "{560, 140}";
type = Stem;
}
);
layerId = "C2265137-4960-4D1A-899B-D2ADBAADF5E4";
paths = (
{
closed = 1;
nodes = (
"659 0 LINE",
"728 69 LINE",
"728 350 LINE",
"659 420 LINE",
"552 420 LINE",
"728 501 LINE",
"728 700 LINE",
"100 700 LINE",
"100 490 LINE",
"240 490 LINE",
"240 560 LINE",
"589 560 LINE",
"309 419 LINE",
"309 279 LINE",
"589 279 LINE",
"589 140 LINE",
"240 140 LINE",
"240 209 LINE",
"100 209 LINE",
"100 69 LINE",
"169 0 LINE"
);
}
);
width = 828;
}
);
leftMetricsKey = A;
note = three;
rightMetricsKey = A;
unicode = 0033;
},
{
glyphname = four;
lastChange = "2023-05-28 20:48:15 +0000";
layers = (
{
hints = (
{
horizontal = 1;
place = "{0, 21}";
target = up;
type = BottomGhost;
},
{
horizontal = 1;
place = "{140, 139}";
type = Stem;
},
{
horizontal = 1;
place = "{700, -20}";
target = down;
type = TopGhost;
},
{
place = "{419, 140}";
type = Stem;
}
);
layerId = "C2265137-4960-4D1A-899B-D2ADBAADF5E4";
paths = (
{
closed = 1;
nodes = (
"100 279 LINE",
"100 140 LINE",
"519 140 LINE",
"519 0 LINE",
"659 0 LINE",
"659 140 LINE",
"728 140 LINE",
"728 279 LINE",
"659 279 LINE",
"659 700 LINE",
"519 700 LINE"
);
},
{
closed = 1;
nodes = (
"519 279 LINE",
"275 279 LINE",
"519 521 LINE"
);
}
);
width = 828;
}
);
leftMetricsKey = A;
note = four;
rightMetricsKey = A;
unicode = 0034;
},
{
glyphname = five;
lastChange = "2023-05-28 20:48:15 +0000";
layers = (
{
hints = (
{
horizontal = 1;
place = "{0, 140}";
type = Stem;
},
{
horizontal = 1;
place = "{313, 141}";
type = Stem;
},
{
horizontal = 1;
place = "{560, 140}";
type = Stem;
},
{
place = "{50, 140}";
type = Stem;
},
{
place = "{539, 139}";
type = Stem;
}
);
layerId = "C2265137-4960-4D1A-899B-D2ADBAADF5E4";
paths = (
{
closed = 1;
nodes = (
"659 0 LINE",
"728 69 LINE",
"728 385 LINE",
"659 454 LINE",
"240 454 LINE",
"240 560 LINE",
"698 560 LINE",
"698 700 LINE",
"100 700 LINE",
"100 313 LINE",
"309 313 LINE",
"589 313 LINE",
"589 140 LINE",
"240 140 LINE",
"240 209 LINE",
"100 209 LINE",
"100 69 LINE",
"169 0 LINE"
);
}
);
width = 828;
}
);
leftMetricsKey = A;
note = five;
rightMetricsKey = A;
unicode = 0035;
},
{
glyphname = six;
lastChange = "2023-05-28 20:48:15 +0000";
layers = (
{
hints = (
{
horizontal = 1;
place = "{0, 140}";
type = Stem;
},
{
horizontal = 1;
place = "{279, 140}";
type = Stem;
},
{
horizontal = 1;
place = "{560, 140}";
type = Stem;
},
{
place = "{50, 140}";
type = Stem;
},
{
place = "{539, 139}";
type = Stem;
},
{
horizontal = 1;
place = "{490, 210}";
type = Stem;
}
);
layerId = "C2265137-4960-4D1A-899B-D2ADBAADF5E4";
paths = (
{
closed = 1;
nodes = (
"728 349 LINE",
"659 419 LINE",
"240 419 LINE",
"240 560 LINE",
"589 560 LINE",
"589 490 LINE",
"728 490 LINE",
"728 629 LINE",
"659 700 LINE",
"169 700 LINE",
"100 629 LINE",
"100 69 LINE",
"169 0 LINE",
"659 0 LINE",
"728 69 LINE"
);
},
{
closed = 1;
nodes = (
"589 279 LINE",
"589 140 LINE",
"240 140 LINE",
"240 279 LINE"
);
}
);
width = 828;
}
);
leftMetricsKey = A;
note = six;
rightMetricsKey = A;
unicode = 0036;
},
{
glyphname = seven;
lastChange = "2023-05-28 20:48:15 +0000";
layers = (
{
hints = (
{
horizontal = 1;
place = "{0, 21}";
target = up;
type = BottomGhost;
},
{
horizontal = 1;
place = "{560, 140}";
type = Stem;
}
);
layerId = "C2265137-4960-4D1A-899B-D2ADBAADF5E4";
paths = (
{
closed = 1;
nodes = (
"409 0 LINE",
"728 560 LINE",
"728 700 LINE",
"100 700 LINE",
"100 560 LINE",
"563 560 LINE",
"240 0 LINE"
);
}
);
width = 828;
}
);
leftMetricsKey = A;
note = seven;
rightMetricsKey = A;
unicode = 0037;
},
{
glyphname = eight;
lastChange = "2023-05-28 20:48:15 +0000";
layers = (
{
hints = (
{
horizontal = 1;
place = "{0, 140}";
type = Stem;
},
{
horizontal = 1;
place = "{279, 140}";
type = Stem;
},
{
horizontal = 1;
place = "{560, 140}";
type = Stem;
},
{
place = "{50, 140}";
type = Stem;
},
{
place = "{539, 139}";
type = Stem;
}
);
layerId = "C2265137-4960-4D1A-899B-D2ADBAADF5E4";
paths = (
{
closed = 1;
nodes = (
"240 140 LINE",
"240 279 LINE",
"589 279 LINE",
"589 140 LINE"
);
},
{
closed = 1;
nodes = (
"240 419 LINE",
"240 560 LINE",
"589 560 LINE",
"589 419 LINE"
);
},
{
closed = 1;
nodes = (
"659 0 LINE",
"728 69 LINE",
"728 279 LINE",
"659 349 LINE",
"728 419 LINE",
"728 629 LINE",
"659 700 LINE",
"169 700 LINE",
"100 629 LINE",
"100 419 LINE",
"169 349 LINE",
"100 279 LINE",
"100 69 LINE",
"169 0 LINE"
);
}
);
width = 828;
}
);
leftMetricsKey = A;
note = eight;
rightMetricsKey = A;
unicode = 0038;
},
{
glyphname = nine;
lastChange = "2023-05-28 20:48:15 +0000";
layers = (
{
hints = (
{
horizontal = 1;
place = "{0, 140}";
type = Stem;
},
{
horizontal = 1;
place = "{279, 140}";
type = Stem;
},
{
horizontal = 1;
place = "{560, 140}";
type = Stem;
},
{
place = "{50, 140}";
type = Stem;
},
{
place = "{539, 139}";
type = Stem;
},
{
horizontal = 1;
place = "{0, 209}";
type = Stem;
}
);
layerId = "C2265137-4960-4D1A-899B-D2ADBAADF5E4";
paths = (
{
closed = 1;
nodes = (
"100 349 LINE",
"169 279 LINE",
"589 279 LINE",
"589 140 LINE",
"240 140 LINE",
"240 209 LINE",
"100 209 LINE",
"100 69 LINE",
"169 0 LINE",
"659 0 LINE",
"728 69 LINE",
"728 629 LINE",
"659 700 LINE",
"169 700 LINE",
"100 629 LINE"
);
},
{
closed = 1;
nodes = (
"240 419 LINE",
"240 560 LINE",
"589 560 LINE",
"589 419 LINE"
);
}
);
width = 828;
}
);
leftMetricsKey = A;
note = nine;
rightMetricsKey = A;
unicode = 0039;
},
{
glyphname = period;
lastChange = "2023-05-28 20:48:15 +0000";
layers = (
{
hints = (
{
horizontal = 1;
place = "{0, 140}";
type = Stem;
},
{
place = "{40, 140}";
type = Stem;
}
);
layerId = "C2265137-4960-4D1A-899B-D2ADBAADF5E4";
paths = (
{
closed = 1;
nodes = (
"100 0 LINE",
"240 0 LINE",
"240 140 LINE",
"100 140 LINE"
);
}
);
width = 340;
}
);
leftMetricsKey = A;
note = period;
rightMetricsKey = A;
unicode = 002E;
},
{
glyphname = comma;
lastChange = "2023-05-28 20:48:15 +0000";
layers = (
{
hints = (
{
horizontal = 1;
place = "{-140, 21}";
target = up;
type = BottomGhost;
},
{
horizontal = 1;
place = "{140, -20}";
target = down;
type = TopGhost;
},
{
place = "{40, 140}";
type = Stem;
}
);
layerId = "C2265137-4960-4D1A-899B-D2ADBAADF5E4";
paths = (
{
closed = 1;
nodes = (
"100 -140 LINE",
"240 0 LINE",
"240 140 LINE",
"100 140 LINE"
);
}
);
width = 340;
}
);
leftMetricsKey = A;
note = comma;
rightMetricsKey = A;
unicode = 002C;
},
{
glyphname = colon;
lastChange = "2023-05-28 20:48:15 +0000";
layers = (
{
hints = (
{
horizontal = 1;
place = "{0, 140}";
type = Stem;
},
{
horizontal = 1;
place = "{279, 140}";
type = Stem;
},
{
place = "{40, 140}";
type = Stem;
}
);
layerId = "C2265137-4960-4D1A-899B-D2ADBAADF5E4";
paths = (
{
closed = 1;
nodes = (
"100 0 LINE",
"240 0 LINE",
"240 140 LINE",
"100 140 LINE"
);
},
{
closed = 1;
nodes = (
"100 279 LINE",
"240 279 LINE",
"240 419 LINE",
"100 419 LINE"
);
}
);
width = 340;
}
);
leftMetricsKey = A;
note = colon;
rightMetricsKey = A;
unicode = 003A;
},
{
glyphname = semicolon;
lastChange = "2023-05-28 20:48:15 +0000";
layers = (
{
hints = (
{
horizontal = 1;
place = "{-140, 21}";
target = up;
type = BottomGhost;
},
{
horizontal = 1;
place = "{140, 139}";
type = Stem;
},
{
horizontal = 1;
place = "{279, 140}";
type = Stem;
},
{
place = "{40, 140}";
type = Stem;
}
);
layerId = "C2265137-4960-4D1A-899B-D2ADBAADF5E4";
paths = (
{
closed = 1;
nodes = (
"100 279 LINE",
"240 279 LINE",
"240 419 LINE",
"100 419 LINE"
);
},
{
closed = 1;
nodes = (
"100 -140 LINE",
"240 0 LINE",
"240 140 LINE",
"100 140 LINE"
);
}
);
width = 340;
}
);
leftMetricsKey = A;
note = semicolon;
rightMetricsKey = A;
unicode = 003B;
},
{
glyphname = ellipsis;
lastChange = "2023-05-28 20:48:15 +0000";
layers = (
{
hints = (
{
horizontal = 1;
place = "{0, 140}";
type = Stem;
},
{
place = "{40, 140}";
type = Stem;
},
{
place = "{214, 140}";
type = Stem;
},
{
place = "{389, 140}";
type = Stem;
}
);
layerId = "C2265137-4960-4D1A-899B-D2ADBAADF5E4";
paths = (
{
closed = 1;
nodes = (
"100 0 LINE",
"240 0 LINE",
"240 140 LINE",
"100 140 LINE"
);
},
{
closed = 1;
nodes = (
"274 0 LINE",
"414 0 LINE",
"414 140 LINE",
"274 140 LINE"
);
},
{
closed = 1;
nodes = (
"449 0 LINE",
"589 0 LINE",
"589 140 LINE",
"449 140 LINE"
);
}
);
width = 689;
}
);
leftMetricsKey = A;
note = ellipsis;
rightMetricsKey = A;
unicode = 2026;
},
{
glyphname = exclam;
lastChange = "2023-05-28 20:48:15 +0000";
layers = (
{
hints = (
{
horizontal = 1;
place = "{0, 140}";
type = Stem;
},
{
horizontal = 1;
place = "{700, -20}";
target = down;
type = TopGhost;
},
{
place = "{50, 140}";
type = Stem;
}
);
layerId = "C2265137-4960-4D1A-899B-D2ADBAADF5E4";
paths = (
{
closed = 1;
nodes = (
"240 209 LINE",
"240 700 LINE",
"100 700 LINE",
"100 209 LINE"
);
},
{
closed = 1;
nodes = (
"100 0 LINE",
"240 0 LINE",
"240 140 LINE",
"100 140 LINE"
);
}
);
width = 340;
}
);
leftMetricsKey = A;
note = exclam;
rightMetricsKey = A;
unicode = 0021;
},
{
glyphname = question;
lastChange = "2023-05-28 20:48:15 +0000";
layers = (
{
hints = (
{
horizontal = 1;
place = "{0, 140}";
type = Stem;
},
{
horizontal = 1;
place = "{279, 140}";
type = Stem;
},
{
horizontal = 1;
place = "{490, 210}";
type = Stem;
},
{
place = "{20, 140}";
type = Stem;
},
{
place = "{228, 141}";
type = Stem;
},
{
place = "{509, 139}";
type = Stem;
},
{
horizontal = 1;
place = "{209, 210}";
type = Stem;
},
{
horizontal = 1;
place = "{560, 140}";
type = Stem;
}
);
layerId = "C2265137-4960-4D1A-899B-D2ADBAADF5E4";
paths = (
{
closed = 1;
nodes = (
"659 279 LINE",
"728 349 LINE",
"728 629 LINE",
"659 700 LINE",
"169 700 LINE",
"100 629 LINE",
"100 490 LINE",
"240 490 LINE",
"240 560 LINE",
"589 560 LINE",
"589 419 LINE",
"378 419 LINE",
"308 349 LINE",
"308 209 LINE",
"448 209 LINE",
"448 279 LINE"
);
},
{
closed = 1;
nodes = (
"309 0 LINE",
"449 0 LINE",
"449 140 LINE",
"309 140 LINE"
);
}
);
width = 828;
}
);
leftMetricsKey = A;
note = question;
rightMetricsKey = A;
unicode = 003F;
},
{
glyphname = periodcentered;
lastChange = "2023-05-28 20:48:15 +0000";
layers = (
{
hints = (
{
horizontal = 1;
place = "{280, 140}";
type = Stem;
},
{
place = "{130, 140}";
type = Stem;
}
);
layerId = "C2265137-4960-4D1A-899B-D2ADBAADF5E4";
paths = (
{
closed = 1;
nodes = (
"100 280 LINE",
"240 280 LINE",
"240 420 LINE",
"100 420 LINE"
);
}
);
width = 340;
}
);
leftMetricsKey = A;
note = periodcentered;
rightMetricsKey = A;
unicode = 00B7;
},
{
glyphname = bullet;
lastChange = "2023-05-28 20:48:15 +0000";
layers = (
{
hints = (
{
horizontal = 1;
place = "{175, 21}";
target = up;
type = BottomGhost;
},
{
horizontal = 1;
place = "{524, -20}";
target = down;
type = TopGhost;
}
);
layerId = "C2265137-4960-4D1A-899B-D2ADBAADF5E4";
paths = (
{
closed = 1;
nodes = (
"100 175 LINE",
"413 175 LINE",
"413 524 LINE",
"100 524 LINE"
);
}
);
width = 513;
}
);
leftMetricsKey = A;
note = bullet;
rightMetricsKey = A;
unicode = 2022;
},
{
glyphname = asterisk;
lastChange = "2023-05-28 20:48:15 +0000";
layers = (
{
hints = (
{
horizontal = 1;
place = "{206, 21}";
target = up;
type = BottomGhost;
},
{
horizontal = 1;
place = "{397, 116}";
type = Stem;
},
{
horizontal = 1;
place = "{700, -20}";
target = down;
type = TopGhost;
}
);
layerId = "C2265137-4960-4D1A-899B-D2ADBAADF5E4";
paths = (
{
closed = 1;
nodes = (
"359 350 LINE",
"457 206 LINE",
"552 271 LINE",
"467 397 LINE",
"618 397 LINE",
"618 513 LINE",
"467 513 LINE",
"549 636 LINE",
"455 700 LINE",
"360 556 LINE",
"262 700 LINE",
"166 635 LINE",
"249 513 LINE",
"100 513 LINE",
"100 397 LINE",
"254 397 LINE",
"168 269 LINE",
"263 206 LINE"
);
}
);
width = 718;
}
);
leftMetricsKey = A;
note = asterisk;
rightMetricsKey = A;
unicode = 002A;
},
{
glyphname = numbersign;
lastChange = "2023-05-28 20:48:15 +0000";
layers = (
{
hints = (
{
horizontal = 1;
place = "{0, 21}";
target = up;
type = BottomGhost;
},
{
horizontal = 1;
place = "{141, 138}";
type = Stem;
},
{
horizontal = 1;
place = "{418, 141}";
type = Stem;
},
{
horizontal = 1;
place = "{700, -20}";
target = down;
type = TopGhost;
},
{
place = "{145, 140}";
type = Stem;
},
{
place = "{425, 139}";
type = Stem;
}
);
layerId = "C2265137-4960-4D1A-899B-D2ADBAADF5E4";
paths = (
{
closed = 1;
nodes = (
"484 140 LINE",
"485 0 LINE",
"624 0 LINE",
"624 140 LINE",
"728 140 LINE",
"728 279 LINE",
"624 279 LINE",
"624 419 LINE",
"728 419 LINE",
"728 559 LINE",
"624 559 LINE",
"624 700 LINE",
"485 700 LINE",
"485 559 LINE",
"345 559 LINE",
"345 700 LINE",
"205 700 LINE",
"205 559 LINE",
"100 559 LINE",
"100 418 LINE",
"205 418 LINE",
"205 279 LINE",
"100 279 LINE",
"100 141 LINE",
"205 141 LINE",
"205 0 LINE",
"345 0 LINE",
"345 140 LINE"
);
},
{
closed = 1;
nodes = (
"345 279 LINE",
"345 419 LINE",
"484 419 LINE",
"484 279 LINE"
);
}
);
width = 828;
}
);
leftMetricsKey = A;
note = numbersign;
rightMetricsKey = A;
unicode = 0023;
},
{
glyphname = slash;
lastChange = "2023-05-28 20:48:15 +0000";
layers = (
{
hints = (
{
horizontal = 1;
place = "{0, 21}";
target = up;
type = BottomGhost;
},
{
horizontal = 1;
place = "{700, -20}";
target = down;
type = TopGhost;
}
);
layerId = "C2265137-4960-4D1A-899B-D2ADBAADF5E4";
paths = (
{
closed = 1;
nodes = (
"269 0 LINE",
"659 700 LINE",
"493 700 LINE",
"100 0 LINE"
);
}
);
width = 759;
}
);
leftMetricsKey = A;
note = slash;
rightMetricsKey = A;
unicode = 002F;
},
{
glyphname = backslash;
lastChange = "2023-05-28 20:48:15 +0000";
layers = (
{
hints = (
{
horizontal = 1;
place = "{0, 21}";
target = up;
type = BottomGhost;
},
{
horizontal = 1;
place = "{700, -20}";
target = down;
type = TopGhost;
}
);
layerId = "C2265137-4960-4D1A-899B-D2ADBAADF5E4";
paths = (
{
closed = 1;
nodes = (
"659 0 LINE",
"266 700 LINE",
"100 700 LINE",
"490 0 LINE"
);
}
);
width = 759;
}
);
leftMetricsKey = A;
note = backslash;
rightMetricsKey = A;
unicode = 005C;
},
{
glyphname = parenleft;
lastChange = "2023-05-28 20:48:15 +0000";
layers = (
{
hints = (
{
horizontal = 1;
place = "{-70, 138}";
type = Stem;
},
{
horizontal = 1;
place = "{630, 140}";
type = Stem;
},
{
place = "{50, 140}";
type = Stem;
}
);
layerId = "C2265137-4960-4D1A-899B-D2ADBAADF5E4";
paths = (
{
closed = 1;
nodes = (
"379 -70 LINE",
"379 68 LINE",
"240 68 LINE",
"240 630 LINE",
"379 630 LINE",
"379 770 LINE",
"169 770 LINE",
"100 701 LINE",
"100 -1 LINE",
"171 -70 LINE"
);
}
);
width = 479;
}
);
leftMetricsKey = A;
note = parenleft;
rightMetricsKey = A;
unicode = 0028;
},
{
glyphname = parenright;
lastChange = "2023-05-28 20:48:15 +0000";
layers = (
{
hints = (
{
horizontal = 1;
place = "{-70, 138}";
type = Stem;
},
{
horizontal = 1;
place = "{630, 140}";
type = Stem;
},
{
place = "{170, 139}";
type = Stem;
}
);
layerId = "C2265137-4960-4D1A-899B-D2ADBAADF5E4";
paths = (
{
closed = 1;
nodes = (
"308 -70 LINE",
"379 -1 LINE",
"379 701 LINE",
"309 770 LINE",
"100 770 LINE",
"100 630 LINE",
"240 630 LINE",
"240 68 LINE",
"100 68 LINE",
"100 -70 LINE"
);
}
);
width = 479;
}
);
leftMetricsKey = A;
note = parenright;
rightMetricsKey = A;
unicode = 0029;
},
{
glyphname = braceleft;
lastChange = "2023-05-28 20:48:15 +0000";
layers = (
{
hints = (
{
horizontal = 1;
place = "{-70, 138}";
type = Stem;
},
{
horizontal = 1;
place = "{630, 140}";
type = Stem;
},
{
place = "{89, 140}";
type = Stem;
}
);
layerId = "C2265137-4960-4D1A-899B-D2ADBAADF5E4";
paths = (
{
closed = 1;
nodes = (
"449 -70 LINE",
"449 68 LINE",
"309 68 LINE",
"309 279 LINE",
"240 349 LINE",
"309 419 LINE",
"309 630 LINE",
"449 630 LINE",
"449 770 LINE",
"240 770 LINE",
"169 701 LINE",
"169 419 LINE",
"100 349 LINE",
"169 279 LINE",
"169 -1 LINE",
"241 -70 LINE"
);
}
);
width = 549;
}
);
leftMetricsKey = A;
note = braceleft;
rightMetricsKey = A;
unicode = 007B;
},
{
glyphname = braceright;
lastChange = "2023-05-28 20:48:15 +0000";
layers = (
{
hints = (
{
horizontal = 1;
place = "{-70, 138}";
type = Stem;
},
{
horizontal = 1;
place = "{630, 140}";
type = Stem;
},
{
place = "{170, 139}";
type = Stem;
}
);
layerId = "C2265137-4960-4D1A-899B-D2ADBAADF5E4";
paths = (
{
closed = 1;
nodes = (
"308 -70 LINE",
"379 -1 LINE",
"379 279 LINE",
"449 349 LINE",
"379 419 LINE",
"379 701 LINE",
"309 770 LINE",
"100 770 LINE",
"100 630 LINE",
"240 630 LINE",
"240 419 LINE",
"309 349 LINE",
"240 279 LINE",
"240 68 LINE",
"100 68 LINE",
"100 -70 LINE"
);
}
);
width = 549;
}
);
leftMetricsKey = A;
note = braceright;
rightMetricsKey = A;
unicode = 007D;
},
{
glyphname = bracketleft;
lastChange = "2023-05-28 20:48:15 +0000";
layers = (
{
hints = (
{
horizontal = 1;
place = "{-69, 138}";
type = Stem;
},
{
horizontal = 1;
place = "{629, 140}";
type = Stem;
},
{
place = "{50, 140}";
type = Stem;
}
);
layerId = "C2265137-4960-4D1A-899B-D2ADBAADF5E4";
paths = (
{
closed = 1;
nodes = (
"379 -69 LINE",
"379 69 LINE",
"240 69 LINE",
"240 629 LINE",
"379 629 LINE",
"379 769 LINE",
"100 769 LINE",
"100 -69 LINE"
);
}
);
width = 479;
}
);
leftMetricsKey = A;
note = bracketleft;
rightMetricsKey = A;
unicode = 005B;
},
{
glyphname = bracketright;
lastChange = "2023-05-28 20:48:15 +0000";
layers = (
{
hints = (
{
horizontal = 1;
place = "{-69, 138}";
type = Stem;
},
{
horizontal = 1;
place = "{629, 140}";
type = Stem;
},
{
place = "{170, 139}";
type = Stem;
}
);
layerId = "C2265137-4960-4D1A-899B-D2ADBAADF5E4";
paths = (
{
closed = 1;
nodes = (
"379 -69 LINE",
"379 769 LINE",
"100 769 LINE",
"100 629 LINE",
"240 629 LINE",
"240 69 LINE",
"100 69 LINE",
"100 -69 LINE"
);
}
);
width = 479;
}
);
leftMetricsKey = A;
note = bracketright;
rightMetricsKey = A;
unicode = 005D;
},
{
glyphname = hyphen;
lastChange = "2023-05-28 20:48:15 +0000";
layers = (
{
hints = (
{
horizontal = 1;
place = "{279, 140}";
type = Stem;
}
);
layerId = "C2265137-4960-4D1A-899B-D2ADBAADF5E4";
paths = (
{
closed = 1;
nodes = (
"100 279 LINE",
"379 279 LINE",
"379 419 LINE",
"100 419 LINE"
);
}
);
width = 479;
}
);
leftMetricsKey = A;
note = hyphen;
rightMetricsKey = A;
unicode = 002D;
},
{
glyphname = softhyphen;
lastChange = "2023-05-28 20:48:15 +0000";
layers = (
{
hints = (
{
horizontal = 1;
place = "{279, 140}";
type = Stem;
}
);
layerId = "C2265137-4960-4D1A-899B-D2ADBAADF5E4";
paths = (
{
closed = 1;
nodes = (
"100 279 LINE",
"379 279 LINE",
"379 419 LINE",
"100 419 LINE"
);
}
);
width = 479;
}
);
leftMetricsKey = A;
note = uni00AD;
rightMetricsKey = A;
unicode = 00AD;
},
{
glyphname = endash;
lastChange = "2023-05-28 20:48:15 +0000";
layers = (
{
hints = (
{
horizontal = 1;
place = "{279, 140}";
type = Stem;
}
);
layerId = "C2265137-4960-4D1A-899B-D2ADBAADF5E4";
paths = (
{
closed = 1;
nodes = (
"100 279 LINE",
"728 279 LINE",
"728 419 LINE",
"100 419 LINE"
);
}
);
width = 828;
}
);
leftMetricsKey = A;
note = endash;
rightMetricsKey = A;
unicode = 2013;
},
{
glyphname = emdash;
lastChange = "2023-05-28 20:48:15 +0000";
layers = (
{
hints = (
{
horizontal = 1;
place = "{279, 140}";
type = Stem;
}
);
layerId = "C2265137-4960-4D1A-899B-D2ADBAADF5E4";
paths = (
{
closed = 1;
nodes = (
"100 279 LINE",
"867 279 LINE",
"867 419 LINE",
"100 419 LINE"
);
}
);
width = 967;
}
);
leftMetricsKey = A;
note = emdash;
rightMetricsKey = A;
unicode = 2014;
},
{
glyphname = underscore;
lastChange = "2023-05-28 20:48:15 +0000";
layers = (
{
hints = (
{
horizontal = 1;
place = "{-139, 139}";
type = Stem;
}
);
layerId = "C2265137-4960-4D1A-899B-D2ADBAADF5E4";
paths = (
{
closed = 1;
nodes = (
"100 -139 LINE",
"500 -139 LINE",
"500 0 LINE",
"100 0 LINE"
);
}
);
width = 600;
}
);
leftMetricsKey = A;
note = underscore;
rightMetricsKey = A;
unicode = 005F;
},
{
glyphname = quotesinglbase;
lastChange = "2023-05-28 20:48:15 +0000";
layers = (
{
hints = (
{
horizontal = 1;
place = "{-140, 21}";
target = up;
type = BottomGhost;
},
{
horizontal = 1;
place = "{140, -20}";
target = down;
type = TopGhost;
},
{
place = "{40, 140}";
type = Stem;
}
);
layerId = "C2265137-4960-4D1A-899B-D2ADBAADF5E4";
paths = (
{
closed = 1;
nodes = (
"100 -140 LINE",
"240 0 LINE",
"240 140 LINE",
"100 140 LINE"
);
}
);
width = 340;
}
);
leftMetricsKey = A;
note = quotesinglbase;
rightMetricsKey = A;
unicode = 201A;
},
{
glyphname = quotedblbase;
lastChange = "2023-05-28 20:48:15 +0000";
layers = (
{
hints = (
{
horizontal = 1;
place = "{-140, 21}";
target = up;
type = BottomGhost;
},
{
horizontal = 1;
place = "{140, -20}";
target = down;
type = TopGhost;
},
{
place = "{40, 140}";
type = Stem;
},
{
place = "{249, 140}";
type = Stem;
}
);
layerId = "C2265137-4960-4D1A-899B-D2ADBAADF5E4";
paths = (
{
closed = 1;
nodes = (
"309 -140 LINE",
"449 0 LINE",
"449 140 LINE",
"309 140 LINE"
);
},
{
closed = 1;
nodes = (
"100 -140 LINE",
"240 0 LINE",
"240 140 LINE",
"100 140 LINE"
);
}
);
width = 549;
}
);
leftMetricsKey = A;
note = quotedblbase;
rightMetricsKey = A;
unicode = 201E;
},
{
glyphname = quotedblleft;
lastChange = "2023-05-28 20:48:15 +0000";
layers = (
{
hints = (
{
horizontal = 1;
place = "{419, 21}";
target = up;
type = BottomGhost;
},
{
horizontal = 1;
place = "{699, -20}";
target = down;
type = TopGhost;
},
{
place = "{40, 140}";
type = Stem;
},
{
place = "{249, 140}";
type = Stem;
}
);
layerId = "C2265137-4960-4D1A-899B-D2ADBAADF5E4";
paths = (
{
closed = 1;
nodes = (
"240 699 LINE",
"100 559 LINE",
"100 419 LINE",
"240 419 LINE"
);
},
{
closed = 1;
nodes = (
"449 699 LINE",
"309 559 LINE",
"309 419 LINE",
"449 419 LINE"
);
}
);
width = 549;
}
);
leftMetricsKey = A;
note = quotedblleft;
rightMetricsKey = A;
unicode = 201C;
},
{
glyphname = quotedblright;
lastChange = "2023-05-28 20:48:15 +0000";
layers = (
{
hints = (
{
horizontal = 1;
place = "{419, 21}";
target = up;
type = BottomGhost;
},
{
horizontal = 1;
place = "{700, -20}";
target = down;
type = TopGhost;
},
{
place = "{40, 140}";
type = Stem;
},
{
place = "{249, 140}";
type = Stem;
}
);
layerId = "C2265137-4960-4D1A-899B-D2ADBAADF5E4";
paths = (
{
closed = 1;
nodes = (
"309 419 LINE",
"449 559 LINE",
"449 700 LINE",
"309 700 LINE"
);
},
{
closed = 1;
nodes = (
"100 419 LINE",
"240 559 LINE",
"240 700 LINE",
"100 700 LINE"
);
}
);
width = 549;
}
);
leftMetricsKey = A;
note = quotedblright;
rightMetricsKey = A;
unicode = 201D;
},
{
glyphname = quoteleft;
lastChange = "2023-05-28 20:48:15 +0000";
layers = (
{
hints = (
{
horizontal = 1;
place = "{419, 21}";
target = up;
type = BottomGhost;
},
{
horizontal = 1;
place = "{699, -20}";
target = down;
type = TopGhost;
},
{
place = "{40, 140}";
type = Stem;
}
);
layerId = "C2265137-4960-4D1A-899B-D2ADBAADF5E4";
paths = (
{
closed = 1;
nodes = (
"240 699 LINE",
"100 559 LINE",
"100 419 LINE",
"240 419 LINE"
);
}
);
width = 340;
}
);
leftMetricsKey = A;
note = quoteleft;
rightMetricsKey = A;
unicode = 2018;
},
{
glyphname = quoteright;
lastChange = "2023-05-28 20:48:15 +0000";
layers = (
{
hints = (
{
horizontal = 1;
place = "{419, 21}";
target = up;
type = BottomGhost;
},
{
horizontal = 1;
place = "{700, -20}";
target = down;
type = TopGhost;
},
{
place = "{40, 140}";
type = Stem;
}
);
layerId = "C2265137-4960-4D1A-899B-D2ADBAADF5E4";
paths = (
{
closed = 1;
nodes = (
"100 419 LINE",
"240 559 LINE",
"240 700 LINE",
"100 700 LINE"
);
}
);
width = 340;
}
);
leftMetricsKey = A;
note = quoteright;
rightMetricsKey = A;
unicode = 2019;
},
{
glyphname = guillemetleft;
lastChange = "2023-05-28 20:48:15 +0000";
layers = (
{
hints = (
{
horizontal = 1;
place = "{69, 21}";
target = up;
type = BottomGhost;
},
{
horizontal = 1;
place = "{628, -20}";
target = down;
type = TopGhost;
}
);
layerId = "C2265137-4960-4D1A-899B-D2ADBAADF5E4";
paths = (
{
closed = 1;
nodes = (
"799 69 LINE",
"799 245 LINE",
"659 349 LINE",
"799 454 LINE",
"799 628 LINE",
"414 350 LINE"
);
},
{
closed = 1;
nodes = (
"485 69 LINE",
"485 245 LINE",
"345 349 LINE",
"485 454 LINE",
"485 628 LINE",
"100 350 LINE"
);
}
);
width = 899;
}
);
leftMetricsKey = A;
note = guillemotleft;
rightMetricsKey = A;
unicode = 00AB;
},
{
glyphname = guillemetright;
lastChange = "2023-05-28 20:48:15 +0000";
layers = (
{
hints = (
{
horizontal = 1;
place = "{69, 21}";
target = up;
type = BottomGhost;
},
{
horizontal = 1;
place = "{628, -20}";
target = down;
type = TopGhost;
}
);
layerId = "C2265137-4960-4D1A-899B-D2ADBAADF5E4";
paths = (
{
closed = 1;
nodes = (
"485 350 LINE",
"100 628 LINE",
"100 454 LINE",
"240 349 LINE",
"100 245 LINE",
"100 69 LINE"
);
},
{
closed = 1;
nodes = (
"799 350 LINE",
"414 628 LINE",
"414 454 LINE",
"554 349 LINE",
"414 245 LINE",
"414 69 LINE"
);
}
);
width = 899;
}
);
leftMetricsKey = A;
note = guillemotright;
rightMetricsKey = A;
unicode = 00BB;
},
{
glyphname = guilsinglleft;
lastChange = "2023-05-28 20:48:15 +0000";
layers = (
{
hints = (
{
horizontal = 1;
place = "{69, 21}";
target = up;
type = BottomGhost;
},
{
horizontal = 1;
place = "{628, -20}";
target = down;
type = TopGhost;
}
);
layerId = "C2265137-4960-4D1A-899B-D2ADBAADF5E4";
paths = (
{
closed = 1;
nodes = (
"485 69 LINE",
"485 245 LINE",
"345 349 LINE",
"485 454 LINE",
"485 628 LINE",
"100 350 LINE"
);
}
);
width = 585;
}
);
leftMetricsKey = A;
note = guilsinglleft;
rightMetricsKey = A;
unicode = 2039;
},
{
glyphname = guilsinglright;
lastChange = "2023-05-28 20:48:15 +0000";
layers = (
{
hints = (
{
horizontal = 1;
place = "{69, 21}";
target = up;
type = BottomGhost;
},
{
horizontal = 1;
place = "{628, -20}";
target = down;
type = TopGhost;
}
);
layerId = "C2265137-4960-4D1A-899B-D2ADBAADF5E4";
paths = (
{
closed = 1;
nodes = (
"485 350 LINE",
"100 628 LINE",
"100 454 LINE",
"240 349 LINE",
"100 245 LINE",
"100 69 LINE"
);
}
);
width = 585;
}
);
leftMetricsKey = A;
note = guilsinglright;
rightMetricsKey = A;
unicode = 203A;
},
{
glyphname = quotedbl;
lastChange = "2023-05-28 20:48:15 +0000";
layers = (
{
hints = (
{
horizontal = 1;
place = "{419, 21}";
target = up;
type = BottomGhost;
},
{
horizontal = 1;
place = "{700, -20}";
target = down;
type = TopGhost;
},
{
place = "{40, 140}";
type = Stem;
},
{
place = "{249, 140}";
type = Stem;
}
);
layerId = "C2265137-4960-4D1A-899B-D2ADBAADF5E4";
paths = (
{
closed = 1;
nodes = (
"240 419 LINE",
"240 700 LINE",
"100 700 LINE",
"100 419 LINE"
);
},
{
closed = 1;
nodes = (
"449 419 LINE",
"449 700 LINE",
"309 700 LINE",
"309 419 LINE"
);
}
);
width = 549;
}
);
leftMetricsKey = A;
note = quotedbl;
rightMetricsKey = A;
unicode = 0022;
},
{
glyphname = quotesingle;
lastChange = "2023-05-28 20:48:15 +0000";
layers = (
{
hints = (
{
horizontal = 1;
place = "{419, 21}";
target = up;
type = BottomGhost;
},
{
horizontal = 1;
place = "{700, -20}";
target = down;
type = TopGhost;
},
{
place = "{40, 140}";
type = Stem;
}
);
layerId = "C2265137-4960-4D1A-899B-D2ADBAADF5E4";
paths = (
{
closed = 1;
nodes = (
"240 419 LINE",
"240 700 LINE",
"100 700 LINE",
"100 419 LINE"
);
}
);
width = 340;
}
);
leftMetricsKey = A;
note = quotesingle;
rightMetricsKey = A;
unicode = 0027;
},
{
glyphname = nbspace;
lastChange = "2023-05-28 20:48:15 +0000";
layers = (
{
hints = (
{
horizontal = 1;
place = "{-10, 21}";
target = up;
type = BottomGhost;
},
{
horizontal = 1;
place = "{701, -20}";
target = down;
type = TopGhost;
},
{
place = "{716, 184}";
type = Stem;
},
{
place = "{2109, 174}";
type = Stem;
},
{
horizontal = 1;
place = "{0, -20}";
target = down;
type = TopGhost;
}
);
layerId = "C2265137-4960-4D1A-899B-D2ADBAADF5E4";
paths = (
{
closed = 1;
nodes = (
"1468 261 OFFCURVE",
"1391 338 OFFCURVE",
"1293 338 CURVE SMOOTH",
"1196 338 OFFCURVE",
"1119 261 OFFCURVE",
"1119 164 CURVE SMOOTH",
"1119 67 OFFCURVE",
"1196 -10 OFFCURVE",
"1293 -10 CURVE SMOOTH",
"1391 -10 OFFCURVE",
"1468 67 OFFCURVE",
"1468 164 CURVE SMOOTH"
);
},
{
closed = 1;
nodes = (
"428 0 LINE",
"100 328 LINE",
"100 0 LINE"
);
},
{
closed = 1;
nodes = (
"2148 0 LINE",
"1985 328 LINE",
"1821 0 LINE"
);
},
{
closed = 1;
nodes = (
"2333 261 OFFCURVE",
"2256 338 OFFCURVE",
"2159 338 CURVE",
"2159 -10 LINE",
"2256 -10 OFFCURVE",
"2333 67 OFFCURVE",
"2333 164 CURVE SMOOTH"
);
},
{
closed = 1;
nodes = (
"1811 328 LINE",
"1519 328 LINE",
"1811 26 LINE"
);
},
{
closed = 1;
nodes = (
"1493 0 LINE",
"1785 0 LINE",
"1493 302 LINE"
);
},
{
closed = 1;
nodes = (
"766 328 LINE",
"766 0 LINE",
"930 0 LINE"
);
},
{
closed = 1;
nodes = (
"1094 328 LINE",
"930 0 LINE",
"1094 0 LINE"
);
},
{
closed = 1;
nodes = (
"428 0 LINE",
"756 0 LINE",
"428 164 LINE"
);
},
{
closed = 1;
nodes = (
"428 328 LINE",
"428 164 LINE",
"756 328 LINE"
);
},
{
closed = 1;
nodes = (
"577 364 LINE",
"577 691 LINE",
"249 364 LINE"
);
},
{
closed = 1;
nodes = (
"950 625 OFFCURVE",
"874 701 OFFCURVE",
"776 701 CURVE SMOOTH",
"679 701 OFFCURVE",
"602 625 OFFCURVE",
"602 527 CURVE SMOOTH",
"602 430 OFFCURVE",
"679 353 OFFCURVE",
"776 353 CURVE SMOOTH",
"874 353 OFFCURVE",
"950 430 OFFCURVE",
"950 527 CURVE SMOOTH"
);
},
{
closed = 1;
nodes = (
"920 691 LINE",
"1084 364 LINE",
"1247 691 LINE"
);
},
{
closed = 1;
nodes = (
"1457 364 LINE",
"1293 691 LINE",
"1130 364 LINE"
);
},
{
closed = 1;
nodes = (
"1785 691 LINE",
"1493 691 LINE",
"1785 389 LINE"
);
},
{
closed = 1;
nodes = (
"1468 364 LINE",
"1759 364 LINE",
"1468 666 LINE"
);
},
{
closed = 1;
nodes = (
"2143 691 LINE",
"1852 691 LINE",
"2143 389 LINE"
);
},
{
closed = 1;
nodes = (
"1826 364 LINE",
"2118 364 LINE",
"1826 666 LINE"
);
},
{
closed = 1;
nodes = (
"2154 691 LINE",
"2317 364 LINE",
"2481 691 LINE"
);
}
);
width = 2581;
}
);
leftMetricsKey = A;
note = uni00A0;
rightMetricsKey = A;
unicode = 00A0;
},
{
glyphname = at;
lastChange = "2023-05-28 20:48:15 +0000";
layers = (
{
hints = (
{
horizontal = 1;
place = "{0, 106}";
type = Stem;
},
{
horizontal = 1;
place = "{176, 107}";
type = Stem;
},
{
horizontal = 1;
place = "{421, 106}";
type = Stem;
},
{
horizontal = 1;
place = "{596, 104}";
type = Stem;
},
{
place = "{50, 106}";
type = Stem;
},
{
place = "{209, 103}";
type = Stem;
},
{
place = "{419, 103}";
type = Stem;
},
{
place = "{575, 103}";
type = Stem;
}
);
layerId = "C2265137-4960-4D1A-899B-D2ADBAADF5E4";
paths = (
{
closed = 1;
nodes = (
"206 106 LINE",
"206 596 LINE",
"625 596 LINE",
"625 279 LINE",
"572 279 LINE",
"572 527 LINE",
"259 527 LINE",
"259 176 LINE",
"728 176 LINE",
"728 629 LINE",
"659 700 LINE",
"169 700 LINE",
"100 629 LINE",
"100 69 LINE",
"169 0 LINE",
"728 0 LINE",
"728 106 LINE"
);
},
{
closed = 1;
nodes = (
"362 421 LINE",
"469 421 LINE",
"469 283 LINE",
"362 283 LINE"
);
}
);
width = 828;
}
);
leftMetricsKey = A;
note = at;
rightMetricsKey = A;
unicode = 0040;
},
{
glyphname = ampersand;
lastChange = "2023-05-28 20:48:15 +0000";
layers = (
{
hints = (
{
horizontal = 1;
place = "{0, 140}";
type = Stem;
},
{
horizontal = 1;
place = "{560, 140}";
type = Stem;
},
{
place = "{30, 140}";
type = Stem;
},
{
place = "{379, 140}";
type = Stem;
},
{
place = "{99, 140}";
type = Stem;
}
);
layerId = "C2265137-4960-4D1A-899B-D2ADBAADF5E4";
paths = (
{
closed = 1;
nodes = (
"240 140 LINE",
"240 261 LINE",
"299 293 LINE",
"431 157 LINE",
"414 140 LINE"
);
},
{
closed = 1;
nodes = (
"336 435 LINE",
"309 467 LINE",
"309 560 LINE",
"449 560 LINE",
"449 489 LINE"
);
},
{
closed = 1;
nodes = (
"449 0 LINE",
"519 69 LINE",
"589 0 LINE",
"764 0 LINE",
"606 157 LINE",
"764 314 LINE",
"589 314 LINE",
"519 245 LINE",
"414 349 LINE",
"589 437 LINE",
"589 629 LINE",
"519 700 LINE",
"240 700 LINE",
"169 629 LINE",
"169 443 LINE",
"222 385 LINE",
"169 385 LINE",
"100 314 LINE",
"100 69 LINE",
"169 0 LINE"
);
}
);
width = 864;
}
);
leftMetricsKey = A;
note = ampersand;
rightMetricsKey = A;
unicode = 0026;
},
{
glyphname = paragraph;
lastChange = "2023-05-28 20:48:15 +0000";
layers = (
{
hints = (
{
horizontal = 1;
place = "{0, 21}";
target = up;
type = BottomGhost;
},
{
horizontal = 1;
place = "{595, 105}";
type = Stem;
},
{
place = "{214, 105}";
type = Stem;
},
{
place = "{352, 107}";
type = Stem;
}
);
layerId = "C2265137-4960-4D1A-899B-D2ADBAADF5E4";
paths = (
{
closed = 1;
nodes = (
"379 0 LINE",
"379 595 LINE",
"412 595 LINE",
"412 0 LINE",
"519 0 LINE",
"519 595 LINE",
"589 595 LINE",
"589 700 LINE",
"169 700 LINE",
"100 629 LINE",
"100 349 LINE",
"169 279 LINE",
"274 279 LINE",
"274 0 LINE"
);
}
);
width = 689;
}
);
leftMetricsKey = A;
note = paragraph;
rightMetricsKey = A;
unicode = 00B6;
},
{
glyphname = section;
lastChange = "2023-05-28 20:48:15 +0000";
layers = (
{
hints = (
{
horizontal = 1;
place = "{-70, 140}";
type = Stem;
},
{
horizontal = 1;
place = "{150, 141}";
type = Stem;
},
{
horizontal = 1;
place = "{409, 141}";
type = Stem;
},
{
horizontal = 1;
place = "{630, 140}";
type = Stem;
},
{
place = "{50, 139}";
type = Stem;
},
{
place = "{410, 139}";
type = Stem;
},
{
horizontal = 1;
place = "{-70, 185}";
type = Stem;
}
);
layerId = "C2265137-4960-4D1A-899B-D2ADBAADF5E4";
paths = (
{
closed = 1;
nodes = (
"169 770 LINE",
"100 701 LINE",
"100 479 LINE",
"169 409 LINE",
"100 339 LINE",
"100 220 LINE",
"169 150 LINE",
"460 150 LINE",
"460 70 LINE",
"240 70 LINE",
"240 115 LINE",
"100 115 LINE",
"100 -1 LINE",
"169 -70 LINE",
"530 -70 LINE",
"599 -1 LINE",
"599 221 LINE",
"530 291 LINE",
"599 361 LINE",
"599 480 LINE",
"530 550 LINE",
"239 550 LINE",
"239 630 LINE",
"459 630 LINE",
"459 585 LINE",
"599 585 LINE",
"599 701 LINE",
"530 770 LINE"
);
},
{
closed = 1;
nodes = (
"240 409 LINE",
"459 409 LINE",
"459 291 LINE",
"240 291 LINE"
);
}
);
width = 699;
}
);
leftMetricsKey = A;
note = section;
rightMetricsKey = A;
unicode = 00A7;
},
{
glyphname = copyright;
lastChange = "2023-05-28 20:48:15 +0000";
layers = (
{
hints = (
{
horizontal = 1;
place = "{0, 105}";
type = Stem;
},
{
horizontal = 1;
place = "{140, 139}";
type = Stem;
},
{
horizontal = 1;
place = "{420, 140}";
type = Stem;
},
{
horizontal = 1;
place = "{595, 105}";
type = Stem;
},
{
place = "{50, 105}";
type = Stem;
},
{
place = "{190, 105}";
type = Stem;
},
{
place = "{435, 104}";
type = Stem;
},
{
place = "{574, 104}";
type = Stem;
},
{
horizontal = 1;
place = "{140, 105}";
type = Stem;
},
{
horizontal = 1;
place = "{455, 105}";
type = Stem;
}
);
layerId = "C2265137-4960-4D1A-899B-D2ADBAADF5E4";
paths = (
{
closed = 1;
nodes = (
"205 105 LINE",
"205 595 LINE",
"624 595 LINE",
"624 105 LINE"
);
},
{
closed = 1;
nodes = (
"659 0 LINE",
"728 69 LINE",
"728 629 LINE",
"659 700 LINE",
"169 700 LINE",
"100 629 LINE",
"100 69 LINE",
"169 0 LINE"
);
},
{
closed = 1;
nodes = (
"519 140 LINE",
"589 209 LINE",
"589 279 LINE",
"485 279 LINE",
"485 245 LINE",
"345 245 LINE",
"345 455 LINE",
"485 455 LINE",
"485 420 LINE",
"589 420 LINE",
"589 490 LINE",
"519 560 LINE",
"309 560 LINE",
"240 490 LINE",
"240 209 LINE",
"309 140 LINE"
);
}
);
width = 828;
}
);
leftMetricsKey = A;
note = copyright;
rightMetricsKey = A;
unicode = 00A9;
},
{
glyphname = registered;
lastChange = "2023-05-28 20:48:15 +0000";
layers = (
{
hints = (
{
horizontal = 1;
place = "{279, 70}";
type = Stem;
},
{
horizontal = 1;
place = "{489, 53}";
type = Stem;
},
{
horizontal = 1;
place = "{595, 70}";
type = Stem;
},
{
horizontal = 1;
place = "{700, 69}";
type = Stem;
},
{
place = "{30, 69}";
type = Stem;
},
{
place = "{135, 69}";
type = Stem;
},
{
place = "{379, 70}";
type = Stem;
},
{
place = "{484, 70}";
type = Stem;
}
);
layerId = "C2265137-4960-4D1A-899B-D2ADBAADF5E4";
paths = (
{
closed = 1;
nodes = (
"100 349 LINE",
"169 279 LINE",
"554 279 LINE",
"624 349 LINE",
"624 700 LINE",
"554 769 LINE",
"169 769 LINE",
"100 700 LINE"
);
},
{
closed = 1;
nodes = (
"169 665 LINE",
"205 700 LINE",
"519 700 LINE",
"554 665 LINE",
"554 385 LINE",
"519 349 LINE",
"205 349 LINE",
"169 385 LINE"
);
},
{
closed = 1;
nodes = (
"274 542 LINE",
"274 595 LINE",
"449 595 LINE",
"449 542 LINE"
);
},
{
closed = 1;
nodes = (
"519 385 LINE",
"519 454 LINE",
"485 489 LINE",
"519 524 LINE",
"519 629 LINE",
"449 665 LINE",
"205 665 LINE",
"205 385 LINE",
"274 385 LINE",
"274 489 LINE",
"379 489 LINE",
"449 419 LINE",
"449 385 LINE"
);
}
);
width = 724;
}
);
leftMetricsKey = A;
note = registered;
rightMetricsKey = A;
unicode = 00AE;
},
{
glyphname = trademark;
lastChange = "2023-05-28 20:48:15 +0000";
layers = (
{
hints = (
{
horizontal = 1;
place = "{349, 21}";
target = up;
type = BottomGhost;
},
{
horizontal = 1;
place = "{629, 71}";
type = Stem;
},
{
place = "{122, 70}";
type = Stem;
},
{
place = "{349, 70}";
type = Stem;
},
{
place = "{662, 70}";
type = Stem;
}
);
layerId = "C2265137-4960-4D1A-899B-D2ADBAADF5E4";
paths = (
{
closed = 1;
nodes = (
"519 349 LINE",
"519 586 LINE",
"613 451 LINE",
"671 451 LINE",
"762 586 LINE",
"762 349 LINE",
"832 349 LINE",
"832 700 LINE",
"765 700 LINE",
"641 529 LINE",
"519 700 LINE",
"449 700 LINE",
"449 349 LINE"
);
},
{
closed = 1;
nodes = (
"292 349 LINE",
"292 629 LINE",
"414 629 LINE",
"414 700 LINE",
"100 700 LINE",
"100 629 LINE",
"222 629 LINE",
"222 349 LINE"
);
}
);
width = 932;
}
);
leftMetricsKey = A;
note = trademark;
rightMetricsKey = A;
unicode = 2122;
},
{
glyphname = degree;
lastChange = "2023-05-28 20:48:15 +0000";
layers = (
{
hints = (
{
horizontal = 1;
place = "{351, 106}";
type = Stem;
},
{
horizontal = 1;
place = "{595, 105}";
type = Stem;
},
{
place = "{30, 103}";
type = Stem;
},
{
place = "{240, 103}";
type = Stem;
}
);
layerId = "C2265137-4960-4D1A-899B-D2ADBAADF5E4";
paths = (
{
closed = 1;
nodes = (
"100 351 LINE",
"413 351 LINE",
"413 700 LINE",
"100 700 LINE"
);
},
{
closed = 1;
nodes = (
"203 595 LINE",
"310 595 LINE",
"310 457 LINE",
"203 457 LINE"
);
}
);
width = 513;
}
);
leftMetricsKey = A;
note = degree;
rightMetricsKey = A;
unicode = 00B0;
},
{
glyphname = bar;
lastChange = "2023-05-28 20:48:15 +0000";
layers = (
{
hints = (
{
horizontal = 1;
place = "{-70, 21}";
target = up;
type = BottomGhost;
},
{
horizontal = 1;
place = "{770, -20}";
target = down;
type = TopGhost;
},
{
place = "{50, 140}";
type = Stem;
}
);
layerId = "C2265137-4960-4D1A-899B-D2ADBAADF5E4";
paths = (
{
closed = 1;
nodes = (
"240 -70 LINE",
"240 770 LINE",
"100 770 LINE",
"100 -70 LINE"
);
}
);
width = 340;
}
);
leftMetricsKey = A;
note = bar;
rightMetricsKey = A;
unicode = 007C;
},
{
glyphname = brokenbar;
lastChange = "2023-05-28 20:48:15 +0000";
layers = (
{
hints = (
{
horizontal = 1;
place = "{-70, 21}";
target = up;
type = BottomGhost;
},
{
horizontal = 1;
place = "{770, -20}";
target = down;
type = TopGhost;
},
{
place = "{50, 140}";
type = Stem;
}
);
layerId = "C2265137-4960-4D1A-899B-D2ADBAADF5E4";
paths = (
{
closed = 1;
nodes = (
"100 420 LINE",
"240 420 LINE",
"240 770 LINE",
"100 770 LINE"
);
},
{
closed = 1;
nodes = (
"100 -70 LINE",
"240 -70 LINE",
"240 280 LINE",
"100 280 LINE"
);
}
);
width = 340;
}
);
leftMetricsKey = A;
note = brokenbar;
rightMetricsKey = A;
unicode = 00A6;
},
{
glyphname = dagger;
lastChange = "2023-05-28 20:48:15 +0000";
layers = (
{
hints = (
{
horizontal = 1;
place = "{-70, 21}";
target = up;
type = BottomGhost;
},
{
horizontal = 1;
place = "{420, 140}";
type = Stem;
},
{
horizontal = 1;
place = "{770, -20}";
target = down;
type = TopGhost;
},
{
place = "{200, 140}";
type = Stem;
}
);
layerId = "C2265137-4960-4D1A-899B-D2ADBAADF5E4";
paths = (
{
closed = 1;
nodes = (
"280 560 LINE",
"100 560 LINE",
"100 420 LINE",
"280 420 LINE",
"280 -70 LINE",
"420 -70 LINE",
"420 420 LINE",
"600 420 LINE",
"600 560 LINE",
"420 560 LINE",
"420 770 LINE",
"280 770 LINE"
);
}
);
width = 700;
}
);
leftMetricsKey = A;
note = dagger;
rightMetricsKey = A;
unicode = 2020;
},
{
glyphname = daggerdbl;
lastChange = "2023-05-28 20:48:15 +0000";
layers = (
{
hints = (
{
horizontal = 1;
place = "{-70, 21}";
target = up;
type = BottomGhost;
},
{
horizontal = 1;
place = "{100, 140}";
type = Stem;
},
{
horizontal = 1;
place = "{460, 140}";
type = Stem;
},
{
horizontal = 1;
place = "{770, -20}";
target = down;
type = TopGhost;
},
{
place = "{200, 140}";
type = Stem;
}
);
layerId = "C2265137-4960-4D1A-899B-D2ADBAADF5E4";
paths = (
{
closed = 1;
nodes = (
"280 600 LINE",
"100 600 LINE",
"100 460 LINE",
"280 460 LINE",
"280 240 LINE",
"100 240 LINE",
"100 100 LINE",
"280 100 LINE",
"280 -70 LINE",
"420 -70 LINE",
"420 100 LINE",
"600 100 LINE",
"600 240 LINE",
"420 240 LINE",
"420 460 LINE",
"600 460 LINE",
"600 600 LINE",
"420 600 LINE",
"420 770 LINE",
"280 770 LINE"
);
}
);
width = 700;
}
);
leftMetricsKey = A;
note = daggerdbl;
rightMetricsKey = A;
unicode = 2021;
},
{
glyphname = numero;
lastChange = "2023-05-28 20:48:15 +0000";
layers = (
{
hints = (
{
horizontal = 1;
place = "{0, 21}";
target = up;
type = BottomGhost;
},
{
horizontal = 1;
place = "{211, 100}";
type = Stem;
},
{
horizontal = 1;
place = "{351, 106}";
type = Stem;
},
{
horizontal = 1;
place = "{595, 105}";
type = Stem;
},
{
place = "{50, 140}";
type = Stem;
},
{
place = "{469, 140}";
type = Stem;
},
{
place = "{645, 103}";
type = Stem;
},
{
place = "{855, 103}";
type = Stem;
}
);
layerId = "C2265137-4960-4D1A-899B-D2ADBAADF5E4";
paths = (
{
closed = 1;
nodes = (
"659 0 LINE",
"659 700 LINE",
"519 700 LINE",
"519 245 LINE",
"240 700 LINE",
"100 700 LINE",
"100 0 LINE",
"240 0 LINE",
"240 456 LINE",
"519 0 LINE"
);
},
{
closed = 1;
nodes = (
"695 211 LINE",
"1008 211 LINE",
"1008 311 LINE",
"695 311 LINE"
);
},
{
closed = 1;
nodes = (
"695 351 LINE",
"1008 351 LINE",
"1008 700 LINE",
"695 700 LINE"
);
},
{
closed = 1;
nodes = (
"798 595 LINE",
"905 595 LINE",
"905 457 LINE",
"798 457 LINE"
);
}
);
width = 1108;
}
);
leftMetricsKey = A;
note = afii61352;
rightMetricsKey = A;
unicode = 2116;
},
{
glyphname = currency;
lastChange = "2023-05-28 20:48:15 +0000";
layers = (
{
hints = (
{
horizontal = 1;
place = "{0, 21}";
target = up;
type = BottomGhost;
},
{
horizontal = 1;
place = "{114, 131}";
type = Stem;
},
{
horizontal = 1;
place = "{279, 140}";
type = Stem;
},
{
horizontal = 1;
place = "{560, 140}";
type = Stem;
},
{
place = "{109, 140}";
type = Stem;
},
{
place = "{599, 140}";
type = Stem;
}
);
layerId = "C2265137-4960-4D1A-899B-D2ADBAADF5E4";
paths = (
{
closed = 1;
nodes = (
"309 419 LINE",
"309 560 LINE",
"659 560 LINE",
"659 419 LINE"
);
},
{
closed = 1;
nodes = (
"169 0 LINE",
"309 0 LINE",
"309 114 LINE",
"659 114 LINE",
"659 245 LINE",
"309 245 LINE",
"309 279 LINE",
"728 279 LINE",
"799 349 LINE",
"799 629 LINE",
"728 700 LINE",
"169 700 LINE",
"169 419 LINE",
"100 419 LINE",
"100 279 LINE",
"169 279 LINE",
"169 245 LINE",
"100 245 LINE",
"100 114 LINE",
"169 114 LINE"
);
}
);
width = 899;
}
);
leftMetricsKey = A;
note = currency;
rightMetricsKey = A;
unicode = 00A4;
},
{
glyphname = dollar;
lastChange = "2023-05-28 20:48:15 +0000";
layers = (
{
hints = (
{
horizontal = 1;
place = "{-69, 21}";
target = up;
type = BottomGhost;
},
{
horizontal = 1;
place = "{0, 140}";
type = Stem;
},
{
horizontal = 1;
place = "{279, 140}";
type = Stem;
},
{
horizontal = 1;
place = "{560, 140}";
type = Stem;
},
{
horizontal = 1;
place = "{769, -20}";
target = down;
type = TopGhost;
},
{
place = "{50, 140}";
type = Stem;
},
{
place = "{293, 137}";
type = Stem;
},
{
place = "{539, 139}";
type = Stem;
},
{
horizontal = 1;
place = "{0, 209}";
type = Stem;
},
{
horizontal = 1;
place = "{490, 210}";
type = Stem;
}
);
layerId = "C2265137-4960-4D1A-899B-D2ADBAADF5E4";
paths = (
{
closed = 1;
nodes = (
"343 560 LINE",
"343 419 LINE",
"240 419 LINE",
"240 560 LINE"
);
},
{
closed = 1;
nodes = (
"480 279 LINE",
"589 279 LINE",
"589 140 LINE",
"480 140 LINE"
);
},
{
closed = 1;
nodes = (
"343 140 LINE",
"240 140 LINE",
"240 209 LINE",
"100 209 LINE",
"100 69 LINE",
"169 0 LINE",
"343 0 LINE",
"343 -69 LINE",
"480 -69 LINE",
"480 0 LINE",
"659 0 LINE",
"728 69 LINE",
"728 350 LINE",
"659 419 LINE",
"480 419 LINE",
"480 560 LINE",
"589 560 LINE",
"589 490 LINE",
"728 490 LINE",
"728 629 LINE",
"659 700 LINE",
"480 700 LINE",
"480 769 LINE",
"343 769 LINE",
"343 700 LINE",
"169 700 LINE",
"100 629 LINE",
"100 329 LINE",
"169 279 LINE",
"343 279 LINE"
);
}
);
width = 828;
}
);
leftMetricsKey = A;
note = dollar;
rightMetricsKey = A;
unicode = 0024;
},
{
glyphname = euro;
lastChange = "2023-05-28 20:48:15 +0000";
layers = (
{
hints = (
{
horizontal = 1;
place = "{0, 140}";
type = Stem;
},
{
horizontal = 1;
place = "{209, 102}";
type = Stem;
},
{
horizontal = 1;
place = "{381, 108}";
type = Stem;
},
{
horizontal = 1;
place = "{560, 140}";
type = Stem;
},
{
place = "{99, 140}";
type = Stem;
},
{
place = "{589, 140}";
type = Stem;
},
{
horizontal = 1;
place = "{490, 210}";
type = Stem;
}
);
layerId = "C2265137-4960-4D1A-899B-D2ADBAADF5E4";
paths = (
{
closed = 1;
nodes = (
"589 209 LINE",
"589 311 LINE",
"309 311 LINE",
"309 381 LINE",
"589 381 LINE",
"589 489 LINE",
"309 489 LINE",
"309 560 LINE",
"659 560 LINE",
"659 490 LINE",
"799 490 LINE",
"799 629 LINE",
"728 700 LINE",
"240 700 LINE",
"169 629 LINE",
"169 489 LINE",
"100 489 LINE",
"100 381 LINE",
"169 381 LINE",
"169 311 LINE",
"100 311 LINE",
"100 209 LINE",
"169 209 LINE",
"169 69 LINE",
"240 0 LINE",
"728 0 LINE",
"799 69 LINE",
"799 209 LINE",
"659 209 LINE",
"659 140 LINE",
"309 140 LINE",
"309 209 LINE"
);
}
);
width = 899;
}
);
leftMetricsKey = A;
note = Euro;
rightMetricsKey = A;
unicode = 20AC;
},
{
glyphname = tenge;
lastChange = "2023-05-28 20:48:15 +0000";
layers = (
{
hints = (
{
horizontal = 1;
place = "{0, 21}";
target = up;
type = BottomGhost;
},
{
horizontal = 1;
place = "{385, 139}";
type = Stem;
},
{
horizontal = 1;
place = "{560, 140}";
type = Stem;
},
{
place = "{275, 140}";
type = Stem;
}
);
layerId = "C2265137-4960-4D1A-899B-D2ADBAADF5E4";
paths = (
{
closed = 1;
nodes = (
"485 0 LINE",
"485 385 LINE",
"728 385 LINE",
"728 524 LINE",
"100 524 LINE",
"100 385 LINE",
"345 385 LINE",
"345 0 LINE"
);
},
{
closed = 1;
nodes = (
"100 560 LINE",
"728 560 LINE",
"728 700 LINE",
"100 700 LINE"
);
}
);
width = 828;
}
);
leftMetricsKey = A;
note = uni20B8;
rightMetricsKey = A;
unicode = 20B8;
},
{
glyphname = plus;
lastChange = "2023-05-28 20:48:15 +0000";
layers = (
{
hints = (
{
horizontal = 1;
place = "{69, 21}";
target = up;
type = BottomGhost;
},
{
horizontal = 1;
place = "{279, 140}";
type = Stem;
},
{
horizontal = 1;
place = "{629, -20}";
target = down;
type = TopGhost;
},
{
place = "{229, 140}";
type = Stem;
}
);
layerId = "C2265137-4960-4D1A-899B-D2ADBAADF5E4";
paths = (
{
closed = 1;
nodes = (
"309 419 LINE",
"100 419 LINE",
"100 279 LINE",
"309 279 LINE",
"309 69 LINE",
"449 69 LINE",
"449 279 LINE",
"659 279 LINE",
"659 419 LINE",
"449 419 LINE",
"449 629 LINE",
"309 629 LINE"
);
}
);
width = 759;
}
);
leftMetricsKey = A;
note = plus;
rightMetricsKey = A;
unicode = 002B;
},
{
glyphname = equal;
lastChange = "2023-05-28 20:48:15 +0000";
layers = (
{
hints = (
{
horizontal = 1;
place = "{175, 140}";
type = Stem;
},
{
horizontal = 1;
place = "{386, 139}";
type = Stem;
}
);
layerId = "C2265137-4960-4D1A-899B-D2ADBAADF5E4";
paths = (
{
closed = 1;
nodes = (
"100 315 LINE",
"100 175 LINE",
"659 175 LINE",
"659 315 LINE"
);
},
{
closed = 1;
nodes = (
"100 525 LINE",
"100 386 LINE",
"659 386 LINE",
"659 525 LINE"
);
}
);
width = 759;
}
);
leftMetricsKey = A;
note = equal;
rightMetricsKey = A;
unicode = 003D;
},
{
glyphname = greater;
lastChange = "2023-05-28 20:48:15 +0000";
layers = (
{
hints = (
{
horizontal = 1;
place = "{0, 21}";
target = up;
type = BottomGhost;
},
{
horizontal = 1;
place = "{699, -20}";
target = down;
type = TopGhost;
}
);
layerId = "C2265137-4960-4D1A-899B-D2ADBAADF5E4";
paths = (
{
closed = 1;
nodes = (
"659 349 LINE",
"100 699 LINE",
"100 524 LINE",
"379 349 LINE",
"100 174 LINE",
"100 0 LINE"
);
}
);
width = 759;
}
);
leftMetricsKey = A;
note = greater;
rightMetricsKey = A;
unicode = 003E;
},
{
glyphname = less;
lastChange = "2023-05-28 20:48:15 +0000";
layers = (
{
hints = (
{
horizontal = 1;
place = "{0, 21}";
target = up;
type = BottomGhost;
},
{
horizontal = 1;
place = "{699, -20}";
target = down;
type = TopGhost;
}
);
layerId = "C2265137-4960-4D1A-899B-D2ADBAADF5E4";
paths = (
{
closed = 1;
nodes = (
"659 0 LINE",
"659 174 LINE",
"379 349 LINE",
"659 524 LINE",
"659 699 LINE",
"100 349 LINE"
);
}
);
width = 759;
}
);
leftMetricsKey = A;
note = less;
rightMetricsKey = A;
unicode = 003C;
},
{
glyphname = plusminus;
lastChange = "2023-05-28 20:48:15 +0000";
layers = (
{
hints = (
{
horizontal = 1;
place = "{-10, 21}";
target = up;
type = BottomGhost;
},
{
horizontal = 1;
place = "{701, -20}";
target = down;
type = TopGhost;
},
{
place = "{716, 184}";
type = Stem;
},
{
place = "{2109, 174}";
type = Stem;
},
{
horizontal = 1;
place = "{0, -20}";
target = down;
type = TopGhost;
}
);
layerId = "C2265137-4960-4D1A-899B-D2ADBAADF5E4";
paths = (
{
closed = 1;
nodes = (
"1468 261 OFFCURVE",
"1391 338 OFFCURVE",
"1293 338 CURVE SMOOTH",
"1196 338 OFFCURVE",
"1119 261 OFFCURVE",
"1119 164 CURVE SMOOTH",
"1119 67 OFFCURVE",
"1196 -10 OFFCURVE",
"1293 -10 CURVE SMOOTH",
"1391 -10 OFFCURVE",
"1468 67 OFFCURVE",
"1468 164 CURVE SMOOTH"
);
},
{
closed = 1;
nodes = (
"428 0 LINE",
"100 328 LINE",
"100 0 LINE"
);
},
{
closed = 1;
nodes = (
"2148 0 LINE",
"1985 328 LINE",
"1821 0 LINE"
);
},
{
closed = 1;
nodes = (
"2333 261 OFFCURVE",
"2256 338 OFFCURVE",
"2159 338 CURVE",
"2159 -10 LINE",
"2256 -10 OFFCURVE",
"2333 67 OFFCURVE",
"2333 164 CURVE SMOOTH"
);
},
{
closed = 1;
nodes = (
"1811 328 LINE",
"1519 328 LINE",
"1811 26 LINE"
);
},
{
closed = 1;
nodes = (
"1493 0 LINE",
"1785 0 LINE",
"1493 302 LINE"
);
},
{
closed = 1;
nodes = (
"766 328 LINE",
"766 0 LINE",
"930 0 LINE"
);
},
{
closed = 1;
nodes = (
"1094 328 LINE",
"930 0 LINE",
"1094 0 LINE"
);
},
{
closed = 1;
nodes = (
"428 0 LINE",
"756 0 LINE",
"428 164 LINE"
);
},
{
closed = 1;
nodes = (
"428 328 LINE",
"428 164 LINE",
"756 328 LINE"
);
},
{
closed = 1;
nodes = (
"577 364 LINE",
"577 691 LINE",
"249 364 LINE"
);
},
{
closed = 1;
nodes = (
"950 625 OFFCURVE",
"874 701 OFFCURVE",
"776 701 CURVE SMOOTH",
"679 701 OFFCURVE",
"602 625 OFFCURVE",
"602 527 CURVE SMOOTH",
"602 430 OFFCURVE",
"679 353 OFFCURVE",
"776 353 CURVE SMOOTH",
"874 353 OFFCURVE",
"950 430 OFFCURVE",
"950 527 CURVE SMOOTH"
);
},
{
closed = 1;
nodes = (
"920 691 LINE",
"1084 364 LINE",
"1247 691 LINE"
);
},
{
closed = 1;
nodes = (
"1457 364 LINE",
"1293 691 LINE",
"1130 364 LINE"
);
},
{
closed = 1;
nodes = (
"1785 691 LINE",
"1493 691 LINE",
"1785 389 LINE"
);
},
{
closed = 1;
nodes = (
"1468 364 LINE",
"1759 364 LINE",
"1468 666 LINE"
);
},
{
closed = 1;
nodes = (
"2143 691 LINE",
"1852 691 LINE",
"2143 389 LINE"
);
},
{
closed = 1;
nodes = (
"1826 364 LINE",
"2118 364 LINE",
"1826 666 LINE"
);
},
{
closed = 1;
nodes = (
"2154 691 LINE",
"2317 364 LINE",
"2481 691 LINE"
);
}
);
width = 2581;
}
);
leftMetricsKey = A;
note = plusminus;
rightMetricsKey = A;
unicode = 00B1;
},
{
glyphname = asciitilde;
lastChange = "2023-05-28 20:48:15 +0000";
layers = (
{
hints = (
{
horizontal = 1;
place = "{225, 21}";
target = up;
type = BottomGhost;
},
{
horizontal = 1;
place = "{489, -20}";
target = down;
type = TopGhost;
}
);
layerId = "C2265137-4960-4D1A-899B-D2ADBAADF5E4";
paths = (
{
closed = 1;
nodes = (
"100 225 LINE",
"274 330 LINE",
"485 225 LINE",
"659 330 LINE",
"659 489 LINE",
"486 385 LINE",
"274 489 LINE",
"100 385 LINE"
);
}
);
width = 759;
}
);
leftMetricsKey = A;
note = asciitilde;
rightMetricsKey = A;
unicode = 007E;
},
{
glyphname = logicalnot;
lastChange = "2023-05-28 20:48:15 +0000";
layers = (
{
hints = (
{
horizontal = 1;
place = "{215, 21}";
target = up;
type = BottomGhost;
},
{
horizontal = 1;
place = "{350, 140}";
type = Stem;
},
{
place = "{440, 139}";
type = Stem;
}
);
layerId = "C2265137-4960-4D1A-899B-D2ADBAADF5E4";
paths = (
{
closed = 1;
nodes = (
"100 350 LINE",
"520 350 LINE",
"520 215 LINE",
"659 215 LINE",
"659 490 LINE",
"100 490 LINE"
);
}
);
width = 759;
}
);
leftMetricsKey = A;
note = logicalnot;
rightMetricsKey = A;
unicode = 00AC;
},
{
glyphname = asciicircum;
lastChange = "2023-05-28 20:48:15 +0000";
layers = (
{
hints = (
{
horizontal = 1;
place = "{314, 21}";
target = up;
type = BottomGhost;
},
{
horizontal = 1;
place = "{700, -20}";
target = down;
type = TopGhost;
}
);
layerId = "C2265137-4960-4D1A-899B-D2ADBAADF5E4";
paths = (
{
closed = 1;
nodes = (
"378 700 LINE",
"100 314 LINE",
"274 314 LINE",
"379 455 LINE",
"485 314 LINE",
"659 314 LINE"
);
}
);
width = 759;
}
);
leftMetricsKey = A;
note = asciicircum;
rightMetricsKey = A;
unicode = 005E;
},
{
glyphname = micro;
lastChange = "2023-05-28 20:48:15 +0000";
layers = (
{
hints = (
{
horizontal = 1;
place = "{-10, 21}";
target = up;
type = BottomGhost;
},
{
horizontal = 1;
place = "{701, -20}";
target = down;
type = TopGhost;
},
{
place = "{716, 184}";
type = Stem;
},
{
place = "{2109, 174}";
type = Stem;
},
{
horizontal = 1;
place = "{0, -20}";
target = down;
type = TopGhost;
}
);
layerId = "C2265137-4960-4D1A-899B-D2ADBAADF5E4";
paths = (
{
closed = 1;
nodes = (
"1468 261 OFFCURVE",
"1391 338 OFFCURVE",
"1293 338 CURVE SMOOTH",
"1196 338 OFFCURVE",
"1119 261 OFFCURVE",
"1119 164 CURVE SMOOTH",
"1119 67 OFFCURVE",
"1196 -10 OFFCURVE",
"1293 -10 CURVE SMOOTH",
"1391 -10 OFFCURVE",
"1468 67 OFFCURVE",
"1468 164 CURVE SMOOTH"
);
},
{
closed = 1;
nodes = (
"428 0 LINE",
"100 328 LINE",
"100 0 LINE"
);
},
{
closed = 1;
nodes = (
"2148 0 LINE",
"1985 328 LINE",
"1821 0 LINE"
);
},
{
closed = 1;
nodes = (
"2333 261 OFFCURVE",
"2256 338 OFFCURVE",
"2159 338 CURVE",
"2159 -10 LINE",
"2256 -10 OFFCURVE",
"2333 67 OFFCURVE",
"2333 164 CURVE SMOOTH"
);
},
{
closed = 1;
nodes = (
"1811 328 LINE",
"1519 328 LINE",
"1811 26 LINE"
);
},
{
closed = 1;
nodes = (
"1493 0 LINE",
"1785 0 LINE",
"1493 302 LINE"
);
},
{
closed = 1;
nodes = (
"766 328 LINE",
"766 0 LINE",
"930 0 LINE"
);
},
{
closed = 1;
nodes = (
"1094 328 LINE",
"930 0 LINE",
"1094 0 LINE"
);
},
{
closed = 1;
nodes = (
"428 0 LINE",
"756 0 LINE",
"428 164 LINE"
);
},
{
closed = 1;
nodes = (
"428 328 LINE",
"428 164 LINE",
"756 328 LINE"
);
},
{
closed = 1;
nodes = (
"577 364 LINE",
"577 691 LINE",
"249 364 LINE"
);
},
{
closed = 1;
nodes = (
"950 625 OFFCURVE",
"874 701 OFFCURVE",
"776 701 CURVE SMOOTH",
"679 701 OFFCURVE",
"602 625 OFFCURVE",
"602 527 CURVE SMOOTH",
"602 430 OFFCURVE",
"679 353 OFFCURVE",
"776 353 CURVE SMOOTH",
"874 353 OFFCURVE",
"950 430 OFFCURVE",
"950 527 CURVE SMOOTH"
);
},
{
closed = 1;
nodes = (
"920 691 LINE",
"1084 364 LINE",
"1247 691 LINE"
);
},
{
closed = 1;
nodes = (
"1457 364 LINE",
"1293 691 LINE",
"1130 364 LINE"
);
},
{
closed = 1;
nodes = (
"1785 691 LINE",
"1493 691 LINE",
"1785 389 LINE"
);
},
{
closed = 1;
nodes = (
"1468 364 LINE",
"1759 364 LINE",
"1468 666 LINE"
);
},
{
closed = 1;
nodes = (
"2143 691 LINE",
"1852 691 LINE",
"2143 389 LINE"
);
},
{
closed = 1;
nodes = (
"1826 364 LINE",
"2118 364 LINE",
"1826 666 LINE"
);
},
{
closed = 1;
nodes = (
"2154 691 LINE",
"2317 364 LINE",
"2481 691 LINE"
);
}
);
width = 2581;
}
);
leftMetricsKey = A;
note = mu;
rightMetricsKey = A;
unicode = 00B5;
},
{
glyphname = percent;
lastChange = "2023-05-28 20:48:15 +0000";
layers = (
{
hints = (
{
horizontal = 1;
place = "{0, 105}";
type = Stem;
},
{
horizontal = 1;
place = "{174, 104}";
type = Stem;
},
{
horizontal = 1;
place = "{420, 105}";
type = Stem;
},
{
horizontal = 1;
place = "{700, -20}";
target = down;
type = TopGhost;
},
{
place = "{30, 105}";
type = Stem;
},
{
place = "{204, 104}";
type = Stem;
},
{
place = "{451, 105}";
type = Stem;
},
{
place = "{626, 104}";
type = Stem;
},
{
horizontal = 1;
place = "{595, 104}";
type = Stem;
}
);
layerId = "C2265137-4960-4D1A-899B-D2ADBAADF5E4";
paths = (
{
closed = 1;
nodes = (
"268 0 LINE",
"799 700 LINE",
"635 700 LINE",
"100 0 LINE"
);
},
{
closed = 1;
nodes = (
"521 0 LINE",
"800 0 LINE",
"800 278 LINE",
"521 278 LINE"
);
},
{
closed = 1;
nodes = (
"626 174 LINE",
"696 174 LINE",
"696 105 LINE",
"626 105 LINE"
);
},
{
closed = 1;
nodes = (
"100 420 LINE",
"378 420 LINE",
"378 699 LINE",
"100 699 LINE"
);
},
{
closed = 1;
nodes = (
"205 595 LINE",
"274 595 LINE",
"274 525 LINE",
"205 525 LINE"
);
}
);
width = 900;
}
);
leftMetricsKey = A;
note = percent;
rightMetricsKey = A;
unicode = 0025;
},
{
glyphname = perthousand;
lastChange = "2023-05-28 20:48:15 +0000";
layers = (
{
hints = (
{
horizontal = 1;
place = "{0, 105}";
type = Stem;
},
{
horizontal = 1;
place = "{174, 104}";
type = Stem;
},
{
horizontal = 1;
place = "{420, 105}";
type = Stem;
},
{
horizontal = 1;
place = "{700, -20}";
target = down;
type = TopGhost;
},
{
place = "{30, 105}";
type = Stem;
},
{
place = "{204, 104}";
type = Stem;
},
{
place = "{451, 105}";
type = Stem;
},
{
place = "{626, 104}";
type = Stem;
},
{
place = "{780, 105}";
type = Stem;
},
{
place = "{955, 104}";
type = Stem;
},
{
horizontal = 1;
place = "{595, 104}";
type = Stem;
}
);
layerId = "C2265137-4960-4D1A-899B-D2ADBAADF5E4";
paths = (
{
closed = 1;
nodes = (
"268 0 LINE",
"799 700 LINE",
"635 700 LINE",
"100 0 LINE"
);
},
{
closed = 1;
nodes = (
"521 0 LINE",
"800 0 LINE",
"800 278 LINE",
"521 278 LINE"
);
},
{
closed = 1;
nodes = (
"626 174 LINE",
"696 174 LINE",
"696 105 LINE",
"626 105 LINE"
);
},
{
closed = 1;
nodes = (
"100 420 LINE",
"378 420 LINE",
"378 699 LINE",
"100 699 LINE"
);
},
{
closed = 1;
nodes = (
"205 595 LINE",
"274 595 LINE",
"274 525 LINE",
"205 525 LINE"
);
},
{
closed = 1;
nodes = (
"850 0 LINE",
"1129 0 LINE",
"1129 278 LINE",
"850 278 LINE"
);
},
{
closed = 1;
nodes = (
"955 174 LINE",
"1025 174 LINE",
"1025 105 LINE",
"955 105 LINE"
);
}
);
width = 1229;
}
);
leftMetricsKey = A;
note = perthousand;
rightMetricsKey = A;
unicode = 2030;
},
{
glyphname = grave;
lastChange = "2023-05-28 20:48:15 +0000";
layers = (
{
hints = (
{
horizontal = 1;
place = "{489, 21}";
target = up;
type = BottomGhost;
},
{
horizontal = 1;
place = "{768, -20}";
target = down;
type = TopGhost;
}
);
layerId = "C2265137-4960-4D1A-899B-D2ADBAADF5E4";
paths = (
{
closed = 1;
nodes = (
"100 628 LINE",
"379 489 LINE",
"379 628 LINE",
"100 768 LINE"
);
}
);
width = 479;
}
);
leftMetricsKey = A;
note = grave;
rightMetricsKey = A;
unicode = 0060;
},
{
glyphname = _0127;
lastChange = "2023-05-28 20:48:15 +0000";
layers = (
{
hints = (
{
horizontal = 1;
place = "{-10, 21}";
target = up;
type = BottomGhost;
},
{
horizontal = 1;
place = "{701, -20}";
target = down;
type = TopGhost;
},
{
place = "{716, 184}";
type = Stem;
},
{
place = "{2109, 174}";
type = Stem;
},
{
horizontal = 1;
place = "{0, -20}";
target = down;
type = TopGhost;
}
);
layerId = "C2265137-4960-4D1A-899B-D2ADBAADF5E4";
paths = (
{
closed = 1;
nodes = (
"1468 261 OFFCURVE",
"1391 338 OFFCURVE",
"1293 338 CURVE SMOOTH",
"1196 338 OFFCURVE",
"1119 261 OFFCURVE",
"1119 164 CURVE SMOOTH",
"1119 67 OFFCURVE",
"1196 -10 OFFCURVE",
"1293 -10 CURVE SMOOTH",
"1391 -10 OFFCURVE",
"1468 67 OFFCURVE",
"1468 164 CURVE SMOOTH"
);
},
{
closed = 1;
nodes = (
"428 0 LINE",
"100 328 LINE",
"100 0 LINE"
);
},
{
closed = 1;
nodes = (
"2148 0 LINE",
"1985 328 LINE",
"1821 0 LINE"
);
},
{
closed = 1;
nodes = (
"2333 261 OFFCURVE",
"2256 338 OFFCURVE",
"2159 338 CURVE",
"2159 -10 LINE",
"2256 -10 OFFCURVE",
"2333 67 OFFCURVE",
"2333 164 CURVE SMOOTH"
);
},
{
closed = 1;
nodes = (
"1811 328 LINE",
"1519 328 LINE",
"1811 26 LINE"
);
},
{
closed = 1;
nodes = (
"1493 0 LINE",
"1785 0 LINE",
"1493 302 LINE"
);
},
{
closed = 1;
nodes = (
"766 328 LINE",
"766 0 LINE",
"930 0 LINE"
);
},
{
closed = 1;
nodes = (
"1094 328 LINE",
"930 0 LINE",
"1094 0 LINE"
);
},
{
closed = 1;
nodes = (
"428 0 LINE",
"756 0 LINE",
"428 164 LINE"
);
},
{
closed = 1;
nodes = (
"428 328 LINE",
"428 164 LINE",
"756 328 LINE"
);
},
{
closed = 1;
nodes = (
"577 364 LINE",
"577 691 LINE",
"249 364 LINE"
);
},
{
closed = 1;
nodes = (
"950 625 OFFCURVE",
"874 701 OFFCURVE",
"776 701 CURVE SMOOTH",
"679 701 OFFCURVE",
"602 625 OFFCURVE",
"602 527 CURVE SMOOTH",
"602 430 OFFCURVE",
"679 353 OFFCURVE",
"776 353 CURVE SMOOTH",
"874 353 OFFCURVE",
"950 430 OFFCURVE",
"950 527 CURVE SMOOTH"
);
},
{
closed = 1;
nodes = (
"920 691 LINE",
"1084 364 LINE",
"1247 691 LINE"
);
},
{
closed = 1;
nodes = (
"1457 364 LINE",
"1293 691 LINE",
"1130 364 LINE"
);
},
{
closed = 1;
nodes = (
"1785 691 LINE",
"1493 691 LINE",
"1785 389 LINE"
);
},
{
closed = 1;
nodes = (
"1468 364 LINE",
"1759 364 LINE",
"1468 666 LINE"
);
},
{
closed = 1;
nodes = (
"2143 691 LINE",
"1852 691 LINE",
"2143 389 LINE"
);
},
{
closed = 1;
nodes = (
"1826 364 LINE",
"2118 364 LINE",
"1826 666 LINE"
);
},
{
closed = 1;
nodes = (
"2154 691 LINE",
"2317 364 LINE",
"2481 691 LINE"
);
}
);
width = 2581;
}
);
leftMetricsKey = A;
note = _0127;
rightMetricsKey = A;
},
